<?xml version="1.0" encoding="utf-8"?>
<!-- Generator: Adobe Illustrator 15.0.0, SVG Export Plug-In . SVG Version: 6.00 Build 0)  -->
<!DOCTYPE svg PUBLIC "-//W3C//DTD SVG 1.1//EN" "http://www.w3.org/Graphics/SVG/1.1/DTD/svg11.dtd">
<svg version="1.1" id="Untitled-page_x25_201" xmlns="http://www.w3.org/2000/svg" xmlns:xlink="http://www.w3.org/1999/xlink"
	 x="0px" y="0px" width="84px" height="84px" viewBox="0 0 84 84" enable-background="new 0 0 84 84" xml:space="preserve">
<path fill="none" d="z"/>
<path fill="none" d="z"/>
<g>
	<g id="Cloud_x5F_Sun_x5F_Drizzle">
		<g>
			<path fill="#FFFFFF" d="M32.145,63.265c-1.796,0-3.254,1.456-3.254,3.255v4.339c0,1.799,1.458,3.255,3.254,3.255
				c1.796,0,3.255-1.456,3.255-3.255V66.52C35.399,64.721,33.941,63.265,32.145,63.265z M32.145,50.245
				c-1.796,0-3.254,1.457-3.254,3.255v4.341c0,1.799,1.458,3.255,3.254,3.255c1.796,0,3.255-1.456,3.255-3.255V53.5
				C35.399,51.702,33.941,50.245,32.145,50.245z M42.994,67.604c-1.797,0-3.255,1.455-3.255,3.254v4.34
				c0,1.799,1.458,3.255,3.255,3.255c1.797,0,3.255-1.456,3.255-3.255v-4.34C46.249,69.06,44.79,67.604,42.994,67.604z
				 M70.829,38.676c3.558-3.361,5.796-8.103,5.796-13.381c0-10.184-8.258-18.443-18.443-18.443c-6.121,0-11.531,2.992-14.887,7.585
				c-2.155-0.676-4.43-1.077-6.81-1.077c-12.11,0-21.984,9.454-22.713,21.382c-5.197,2.713-8.749,8.146-8.749,14.42
				c0,8.987,7.284,16.272,16.273,16.272c1.797,0,3.255-1.455,3.255-3.255c0-1.799-1.458-3.255-3.255-3.255
				c-5.382,0-9.764-4.382-9.764-9.763c0-3.645,2.014-6.958,5.256-8.651l3.256-1.704l0.224-3.668
				c0.526-8.563,7.649-15.269,16.218-15.269c5.005,0,9.662,2.269,12.779,6.224l1.875,2.381l3.03,0.097
				c5.29,0.171,9.438,4.448,9.438,9.74v4.336l4.005,1.672c2.838,1.185,4.674,3.936,4.674,7.01c0,4.188-3.406,7.595-7.593,7.595
				c-1.799,0-3.257,1.456-3.257,3.255c0,1.8,1.458,3.255,3.257,3.255c7.789,0,14.103-6.314,14.103-14.104
				C78.795,45.747,75.534,40.958,70.829,38.676z M68.483,31.241c-2.562-5.283-7.887-8.974-14.104-9.176
				c-1.434-1.815-3.15-3.391-5.06-4.703c2.183-2.441,5.333-4.002,8.861-4.002c6.582,0,11.933,5.353,11.933,11.935
				C70.114,27.466,69.504,29.487,68.483,31.241z M53.843,50.245c-1.798,0-3.254,1.457-3.254,3.255v4.341
				c0,1.799,1.456,3.255,3.254,3.255c1.795,0,3.254-1.456,3.254-3.255V53.5C57.097,51.702,55.638,50.245,53.843,50.245z
				 M42.994,54.584c-1.797,0-3.255,1.458-3.255,3.257v4.34c0,1.799,1.458,3.256,3.255,3.256c1.797,0,3.255-1.457,3.255-3.256v-4.34
				C46.249,56.042,44.79,54.584,42.994,54.584z M53.843,63.265c-1.798,0-3.254,1.456-3.254,3.255v4.339
				c0,1.799,1.456,3.255,3.254,3.255c1.795,0,3.254-1.456,3.254-3.255V66.52C57.097,64.721,55.638,63.265,53.843,63.265z"/>
		</g>
	</g>
</g>
</svg>
