<?xml version="1.0" standalone="no"?>
<!-- Generator: Adobe Fireworks 10, Export SVG Extension by Aaron Beall (http://fireworks.abeall.com) . Version: 0.6.1  -->
<!DOCTYPE svg PUBLIC "-//W3C//DTD SVG 1.1//EN" "http://www.w3.org/Graphics/SVG/1.1/DTD/svg11.dtd">
<svg id="Untitled-page%201" viewBox="0 0 166 166" style="background-color:#ffffff00" version="1.1"
	xmlns="http://www.w3.org/2000/svg" xmlns:xlink="http://www.w3.org/1999/xlink" xml:space="preserve"
	x="0px" y="0px" width="166px" height="166px"
>
	<g id="Calque%201">
		<g>
			<path d="M 134 47.4266 C 134 47.8159 134 48.2057 134 48.5951 C 102.6358 49.2421 68.562 49.2431 37 48.5951 C 37 48.2057 37 47.8159 37 47.4266 C 38.3252 46.0684 39.4102 44.1646 40.9785 42.1697 C 42.1049 40.7369 43.9172 37.7261 45.3359 37.3022 C 47.6116 36.6223 52.4256 37.3022 55.377 37.3022 C 78.7411 37.3022 103.6606 37.3022 125.8535 37.3022 C 128.8277 40.4111 131.199 44.1396 134 47.4266 Z" fill="#000000"/>
			<path d="M 37 56.1883 C 37 54.8904 37 53.5924 37 52.2943 C 41.8926 51.6501 49.3476 51.6501 54.2402 52.2943 C 56.442 64.9664 38.5755 66.2137 37 56.1883 Z" fill="#000000"/>
			<path d="M 57.6504 51.9048 C 63.0225 52.0302 68.8853 51.6513 73.9434 52.0995 C 76.9291 66.0423 54.7235 66.9514 57.082 52.2943 C 57.2208 52.1124 57.4264 51.9994 57.6504 51.9048 Z" fill="#000000"/>
			<path d="M 94.0254 52.2943 C 96.5299 66.3042 74.5932 66.4904 76.9746 52.2943 C 81.8047 51.6501 89.1953 51.6501 94.0254 52.2943 Z" fill="#000000"/>
			<path d="M 113.918 52.0995 C 116.2732 63.3265 101.7157 66.6793 97.625 58.3302 C 97.0054 57.0654 96.2881 53.6463 97.0566 52.2943 C 101.8702 51.5221 108.79 51.9023 113.918 52.0995 Z" fill="#000000"/>
			<path d="M 134 52.2943 C 134 53.5924 134 54.8904 134 56.1883 C 133.2718 58.2786 132.4052 59.8325 130.9688 61.056 C 125.3847 65.8127 115.1859 61.8885 116.9492 52.0995 C 122.1459 51.8966 129.1155 51.5301 134 52.2943 Z" fill="#000000"/>
			<path d="M 129.6426 65.9234 C 130.3253 79.0645 130.0215 96.8922 130.0215 112.0683 C 130.0215 114.0132 130.2183 117.3018 129.4531 118.1042 C 128.392 119.2168 124.4995 118.6882 122.8223 118.6882 C 120.2545 118.6882 118.0979 118.6882 115.8125 118.6882 C 115.3708 104.9288 115.7491 90.3266 115.623 76.2428 C 107.9187 76.2428 100.2141 76.2428 92.5098 76.2428 C 92.3843 90.3271 92.7614 104.9283 92.3203 118.6882 C 79.7947 118.6882 66.8114 118.6882 53.6719 118.6882 C 50.7888 118.6882 43.0586 119.6892 41.5469 118.1042 C 40.0677 116.5528 40.9785 108.55 40.9785 105.2537 C 40.9785 92.3234 40.6697 77.9672 41.3574 65.9234 C 44.907 65.785 47.4293 66.4219 50.4512 64.9501 C 52.1566 64.1194 53.4095 62.5845 54.8086 61.4453 C 56.2636 60.2605 59.0297 64.2078 60.4922 64.9501 C 63.4317 66.4417 67.9482 66.3782 70.7227 64.7554 C 72.1403 63.926 74.3939 61.0788 75.459 61.056 C 76.5737 61.0319 78.536 63.7902 79.8164 64.5608 C 82.9999 66.4764 87.6846 66.5041 90.9941 64.5608 C 92.0015 63.969 94.3468 61.1095 95.3516 61.056 C 96.7813 60.9793 98.9747 64.1529 100.0879 64.7554 C 104.4642 67.1235 109.8204 65.8463 112.9707 63.003 C 113.6234 62.4139 114.713 61.056 115.4336 61.056 C 116.5884 61.056 118.5487 63.8456 119.791 64.5608 C 122.6105 66.1832 125.7733 65.998 129.6426 65.9234 ZM 56.5137 76.2428 C 56.6389 82.8638 56.2627 90.0002 56.7031 96.2973 C 62.9565 96.7502 70.027 96.3634 76.5957 96.492 C 77.0365 90.0006 76.6599 82.6691 76.7852 75.8536 C 70.5947 75.4006 63.5876 75.7874 57.082 75.6585 C 56.8091 75.7675 56.6198 75.9626 56.5137 76.2428 Z" fill="#000000"/>
			<path d="M 110.1289 93.9608 C 112.8453 93.5318 113.8834 100.4377 111.6445 101.9439 C 107.7598 104.5569 106.6231 94.5147 110.1289 93.9608 Z" fill="#000000"/>
		</g>
	</g>
</svg>