<?xml version="1.0" standalone="no"?>
<!-- Generator: Adobe Fireworks 10, Export SVG Extension by Aaron Beall (http://fireworks.abeall.com) . Version: 0.6.1  -->
<!DOCTYPE svg PUBLIC "-//W3C//DTD SVG 1.1//EN" "http://www.w3.org/Graphics/SVG/1.1/DTD/svg11.dtd">
<svg id="Untitled-page%201" viewBox="0 0 300 300" style="background-color:#ffffff00" version="1.1"
	xmlns="http://www.w3.org/2000/svg" xmlns:xlink="http://www.w3.org/1999/xlink" xml:space="preserve"
	x="0px" y="0px" width="300px" height="300px"
>
	<g id="Calque%201">
		<path d="M 150.5041 59.3083 C 106.5544 59.3192 70.799 93.8925 70.799 136.3701 C 70.799 163.9374 81.9879 180.3395 90.2285 192.4247 C 95.2975 199.8608 98.1669 204.2866 98.1669 208.7396 C 98.1669 218.7344 103.5272 228.1575 113.0499 235.218 C 113.2896 241.1462 114.1635 255.6212 114.1635 255.6212 L 114.1635 255.6321 C 114.3213 259.7422 116.4828 268.1636 130.6446 272.8671 C 132.3107 275.3223 134.5021 277.5051 137.1564 279.2744 C 138.817 280.3958 140.7799 281 142.789 281 L 158.222 281 C 160.2256 281 162.1857 280.4121 163.8519 279.2744 C 166.5089 277.4944 168.7085 275.3223 170.3637 272.8671 C 184.6506 268.1146 186.7305 259.5952 186.8503 255.6049 C 186.8503 255.6049 187.7214 241.1572 187.961 235.229 C 197.4783 228.1575 202.8468 218.7451 202.8468 208.7504 C 202.8468 204.2975 205.7108 199.8608 210.8288 192.3701 C 219.0067 180.3885 230.2228 163.97 230.2228 136.3647 C 230.2119 93.8761 194.451 59.3083 150.5041 59.3083 ZM 194.1244 181.0745 C 188.2387 189.7081 182.6851 197.8521 182.6851 208.7396 C 182.6851 213.5247 178.3566 217.3733 175.1332 219.6 L 125.8777 219.6 C 122.6544 217.3843 118.3286 213.5247 118.3286 208.7396 C 118.3286 197.8521 112.7695 189.7081 106.8158 180.9764 C 99.3837 170.0779 90.9526 157.7207 90.9526 136.3757 C 90.9526 105.0087 117.6698 79.4775 150.5096 79.4666 C 183.3548 79.4666 210.0665 104.9896 210.0665 136.3647 C 210.0665 157.7534 201.6163 170.0942 194.1244 181.0745 Z" fill="#000000"/>
	</g>
</svg>