<?xml version="1.0" standalone="no"?>
<!-- Generator: Adobe Fireworks 10, Export SVG Extension by Aaron Beall (http://fireworks.abeall.com) . Version: 0.6.1  -->
<!DOCTYPE svg PUBLIC "-//W3C//DTD SVG 1.1//EN" "http://www.w3.org/Graphics/SVG/1.1/DTD/svg11.dtd">
<svg id="Untitled-page%201" viewBox="0 0 300 300" style="background-color:#ffffff00" version="1.1"
	xmlns="http://www.w3.org/2000/svg" xmlns:xlink="http://www.w3.org/1999/xlink" xml:space="preserve"
	x="0px" y="0px" width="300px" height="300px"
>
	<g id="Calque%201">
		<path d="M 225.9283 92.9336 L 245.0155 92.9336 C 246.6631 92.9336 248.0159 91.6392 248.0984 89.9978 L 249.4809 62.0977 C 249.524 61.2527 249.2158 60.4268 248.6326 59.814 C 248.0504 59.2004 247.2453 58.853 246.3979 58.853 L 224.546 58.853 C 223.6987 58.853 222.8936 59.2004 222.3114 59.814 C 221.7282 60.4268 221.4199 61.2527 221.4631 62.0977 L 222.8455 89.9978 C 222.928 91.6438 224.2809 92.9336 225.9283 92.9336 ZM 246.4176 61.9624 L 246.1476 67.2502 L 224.7866 67.0225 L 224.5224 61.9624 L 246.4176 61.9624 Z" fill="#000001"/>
	</g>
</svg>