<?xml version="1.0" standalone="no"?>
<!-- Generator: Adobe Fireworks 10, Export SVG Extension by Aaron Beall (http://fireworks.abeall.com) . Version: 0.6.1  -->
<!DOCTYPE svg PUBLIC "-//W3C//DTD SVG 1.1//EN" "http://www.w3.org/Graphics/SVG/1.1/DTD/svg11.dtd">
<svg id="Untitled-page%201" viewBox="0 0 300 300" style="background-color:#ffffff00" version="1.1"
	xmlns="http://www.w3.org/2000/svg" xmlns:xlink="http://www.w3.org/1999/xlink" xml:space="preserve"
	x="0px" y="0px" width="300px" height="300px"
>
	<g id="Calque%201">
		<path d="M 164.9672 53.261 C 179.4213 54.9514 192.493 44.4155 194.1356 29.7603 C 195.7732 15.0957 185.4034 1.8508 170.9297 0.1752 C 156.4951 -1.5005 143.4188 9.0261 141.7667 23.686 C 140.1244 38.3457 150.5038 51.5859 164.9672 53.261 Z" fill="#000001"/>
		<path d="M 126.128 130.0222 L 149.0106 74.2271 L 150.3159 77.0715 C 150.6817 77.8828 151.4281 78.4521 152.3049 78.6016 C 152.4355 78.6309 152.5847 78.6357 152.729 78.6357 C 153.4565 78.6357 154.1546 78.3364 154.6553 77.8 L 160.9507 71.1172 C 161.6634 70.3545 161.8657 69.2346 161.4847 68.2588 C 161.1195 67.269 160.1799 66.603 159.1638 66.5544 L 151.3662 66.1396 L 147.2285 54.522 C 146.8721 53.4932 145.9135 52.7827 144.8252 52.7397 C 143.7703 52.6384 142.7541 53.3145 142.3062 54.3042 L 134.2581 72.0352 C 133.8246 73.0156 133.9883 74.1694 134.7061 74.9756 C 135.2213 75.5503 135.9485 75.864 136.6807 75.864 C 136.9745 75.864 137.2634 75.8154 137.5381 75.7197 L 145.1237 71.6101 L 116.0809 127.2454 L 126.128 130.0222 Z" fill="#000001"/>
		<path d="M 219.2864 108.728 C 208.3246 109.5486 197.3529 110.3696 186.3901 111.2004 C 181.8925 99.7173 176.9069 84.2849 172.6881 76.5352 C 169.2832 70.2822 165.5357 71.3301 163.1705 75.4583 C 154.4864 90.6304 131.3826 137.7478 131.3826 137.7478 L 107.2381 131.1907 L 137.8655 54.6565 C 136.3915 54.2556 132.8563 52.1753 126.4891 54.314 L 39.2499 74.8071 C 32.8248 76.3086 28.8224 82.822 30.3106 89.3362 C 31.7941 95.8547 38.2193 99.9202 44.6442 98.3994 L 102.0701 84.918 C 93.7425 99.9399 85.7136 115.1494 77.9497 130.4761 C 77.9497 130.4761 36.3794 199.2449 42.7032 202.0652 C 49.0223 204.8752 76.5337 173.5039 76.5337 173.5039 L 76.5337 283.6453 C 76.5337 292.6748 83.7581 300 92.6637 300 C 101.5741 300 108.7889 292.6748 108.7889 283.6453 C 108.7889 283.6453 102.9032 205.9619 125.574 158.8396 C 148.2399 111.688 157.0735 98.583 157.0735 98.583 C 157.0735 98.583 165.5887 118.9939 169.0328 127.6462 C 170.4192 131.1328 172.7646 137.6133 180.8901 136.8064 C 194.6942 135.4397 205.4783 134.73 219.3198 133.6868 C 234.9973 132.4846 235.1082 107.5403 219.2864 108.728 Z" fill="#0581b5"/>
		<path d="M 203.3105 98.0762 C 201.451 98.0762 199.9439 99.5876 199.9439 101.4512 C 199.9439 103.3198 201.451 104.8313 203.3105 104.8313 L 267.6334 104.8313 C 269.493 104.8313 271 103.3198 271 101.4512 C 271 99.5876 269.493 98.0762 267.6334 98.0762 L 203.3105 98.0762 Z" fill="#000001"/>
	</g>
</svg>