<?xml version="1.0" standalone="no"?>
<!-- Generator: Adobe Fireworks 10, Export SVG Extension by Aaron Beall (http://fireworks.abeall.com) . Version: 0.6.1  -->
<!DOCTYPE svg PUBLIC "-//W3C//DTD SVG 1.1//EN" "http://www.w3.org/Graphics/SVG/1.1/DTD/svg11.dtd">
<svg id="Untitled-page%201" viewBox="0 0 166 166" style="background-color:#ffffff00" version="1.1"
	xmlns="http://www.w3.org/2000/svg" xmlns:xlink="http://www.w3.org/1999/xlink" xml:space="preserve"
	x="0px" y="0px" width="166px" height="166px"
>
	<g>
		<path d="M 140 47.0522 C 140 72.7238 140 98.3938 140 124.0654 C 139.1099 125.4076 130.6143 124.8952 126.7497 124.8952 C 100.0313 124.8952 74.3825 124.8952 47.2495 124.8952 C 43.0799 124.8952 35.3635 125.4348 34 124.0654 C 34 98.3938 34 72.7238 34 47.0522 C 35.696 45.6646 38.3115 45.5513 40.832 45.184 C 48.4179 44.0776 58.0019 44.0926 65.4686 45.391 C 65.7083 40.9275 64.9666 35.4785 65.8831 31.6907 C 77.6908 28.1704 96.8029 27.9663 108.3241 31.8993 C 108.7862 36.0015 108.4086 40.9472 108.5314 45.391 C 113.0495 44.8273 118.7012 44.1214 124.8864 44.3541 C 129.2574 44.5173 137.3694 45.3064 140 47.0522 ZM 70.4373 35.4271 C 70.4373 63.5897 70.4373 91.7507 70.4373 119.9132 C 73.1291 119.9132 75.8198 119.9132 78.5116 119.9132 C 78.7814 110.3574 77.9681 99.7179 78.9263 90.8513 C 83.4382 90.2785 91.1023 89.9354 95.2811 91.0599 C 95.7621 100.265 95.3519 110.3634 95.4884 119.9132 C 98.1792 119.9132 100.8709 119.9132 103.5627 119.9132 C 103.5627 91.7507 103.5627 63.5897 103.5627 35.4271 C 93.6282 33.509 80.3718 33.509 70.4373 35.4271 ZM 46.6292 59.0914 C 45.681 61.6716 46.4776 65.9975 46.2147 69.2639 C 49.9487 69.6085 55.1096 69.6085 58.8439 69.2639 C 58.7112 65.937 59.113 62.0736 58.6366 59.0914 C 54.6342 59.0914 50.6316 59.0914 46.6292 59.0914 ZM 115.57 59.0914 C 114.6226 61.6716 115.4185 65.9975 115.1563 69.2639 C 118.8904 69.6085 124.0513 69.6085 127.7853 69.2639 C 127.652 65.937 128.0545 62.0736 127.5781 59.0914 C 123.5756 59.0914 119.5725 59.0914 115.57 59.0914 ZM 46.6292 78.6051 C 45.681 81.1837 46.4776 85.5111 46.2147 88.776 C 49.9487 89.1206 55.1096 89.1206 58.8439 88.776 C 58.7112 85.4492 59.113 81.5872 58.6366 78.6051 C 54.6342 78.6051 50.6316 78.6051 46.6292 78.6051 ZM 115.57 78.6051 C 114.6226 81.1837 115.4185 85.5111 115.1563 88.776 C 118.8904 89.1206 124.0513 89.1206 127.7853 88.776 C 127.652 85.4492 128.0545 81.5872 127.5781 78.6051 C 123.5756 78.6051 119.5725 78.6051 115.57 78.6051 ZM 46.8358 97.9101 C 46.538 98.0265 46.3307 98.2336 46.2147 98.5328 C 46.348 101.7901 45.9456 105.5826 46.4219 108.4968 C 50.4937 108.4968 54.5655 108.4968 58.6366 108.4968 C 58.9802 105.5101 58.9802 101.1039 58.6366 98.1172 C 55.112 97.6381 50.704 98.0446 46.8358 97.9101 ZM 115.7772 97.9101 C 115.4796 98.0265 115.2722 98.2336 115.1563 98.5328 C 115.2888 101.7901 114.887 105.5826 115.3634 108.4968 C 119.4353 108.4968 123.5063 108.4968 127.5781 108.4968 C 127.9218 105.5101 127.9218 101.1039 127.5781 98.1172 C 124.0535 97.6381 119.6454 98.0446 115.7772 97.9101 Z" fill="#000000"/>
		<path d="M 89.2775 46.2224 C 89.6739 46.7242 89.4078 47.8895 89.4841 48.7134 C 91.5372 49.4222 94.0163 49.7049 95.2811 51.2043 C 94.9955 53.3386 93.7699 54.5326 92.5903 55.7706 C 90.6358 54.6007 83.7992 53.1118 83.4803 56.3934 C 83.1773 59.5146 91.1152 60.1056 93.6252 61.998 C 98.4831 65.6604 97.1248 74.6131 89.6913 75.2827 C 89.1727 75.8707 89.796 77.6029 89.2775 78.1894 C 87.926 78.4644 85.1462 78.6746 84.1014 77.9822 C 83.705 77.4805 83.9711 76.3136 83.8941 75.4913 C 82.6347 74.7295 77.6003 73.3359 77.4767 71.3392 C 77.3794 69.7672 79.9392 68.7893 80.9959 67.6027 C 82.5028 67.961 83.3725 69.5344 85.3436 69.8866 C 87.5958 70.2872 90.5393 69.7717 90.727 68.2255 C 91.0512 65.5455 83.8715 64.6598 82.0308 63.6591 C 76.5353 60.6709 75.8486 50.97 83.8941 49.1274 C 82.6225 45.2096 86.9113 45.8067 89.2775 46.2224 Z" fill="#000000"/>
	</g>
</svg>