<?xml version="1.0" standalone="no"?>
<!-- Generator: Adobe Fireworks 10, Export SVG Extension by Aaron Beall (http://fireworks.abeall.com) . Version: 0.6.1  -->
<!DOCTYPE svg PUBLIC "-//W3C//DTD SVG 1.1//EN" "http://www.w3.org/Graphics/SVG/1.1/DTD/svg11.dtd">
<svg id="Untitled-page%201" viewBox="0 0 166 166" style="background-color:#ffffff00" version="1.1"
	xmlns="http://www.w3.org/2000/svg" xmlns:xlink="http://www.w3.org/1999/xlink" xml:space="preserve"
	x="0px" y="0px" width="166px" height="166px"
>
	<g id="Calque%201">
		<g>
			<g>
				<path d="M 81.4683 52.8999 C 87.2495 50.0032 94.1932 52.3696 100.1392 55.0118 C 106.3784 57.7841 115.1669 64.9282 108.7745 73.08 C 105.7948 76.8798 99.3786 79.4944 93.6044 81.5275 C 91.5344 82.2562 88.6556 83.7413 86.6028 82.9354 C 84.8729 82.2562 83.8446 79.095 84.5026 77.0691 C 85.3919 74.3298 90.552 73.3128 93.3713 72.1414 C 97.0029 70.6322 99.9357 69.4159 102.0063 66.979 C 101.1094 65.4561 99.3707 64.7797 97.8053 63.9286 C 97.8053 65.3365 97.8053 66.7444 97.8053 68.1523 C 94.4333 71.4024 85.4326 71.151 83.1023 75.6612 C 81.1645 79.4109 83.3025 84.3319 86.8364 85.0473 C 91.4914 85.9896 93.6959 82.4677 97.8053 82.2315 C 97.8053 88.2543 97.8053 94.2769 97.8053 100.2997 C 94.46 100.2997 91.115 100.2997 87.77 100.2997 C 87.77 99.0482 87.77 97.7967 87.77 96.5452 C 86.5074 95.859 84.2148 96.2086 83.1023 95.372 C 80.6135 97.2499 78.9356 99.9432 76.8005 102.1769 C 83.483 103.5252 98.926 99.2543 101.0727 104.9927 C 104.5872 114.3876 88.6053 112.0323 81.2352 112.0323 C 73.4511 112.0323 59.3218 114.6719 61.1639 105.6967 C 61.6551 103.3046 67.2221 97.9277 68.8657 96.076 C 71.4989 93.1093 74.3661 90.2933 77.0342 86.9245 C 77.0342 78.3205 77.0342 69.7168 77.0342 61.1127 C 71.8602 55.9875 65.4212 48.5201 66.065 36.4742 C 66.3536 31.079 69.0479 19.9707 73.0666 19.11 C 76.0356 18.474 78.9123 20.6904 78.9013 23.3337 C 78.8932 25.3062 77.2179 27.162 76.3337 29.4347 C 73.0233 37.9479 75.4194 48.5242 81.4683 52.8999 Z" fill="#000000"/>
				<path d="M 85.4361 33.1891 C 97.458 30.764 99.6945 49.1516 88.2368 50.0841 C 77.8916 50.926 75.202 35.2538 85.4361 33.1891 Z" fill="#000000"/>
			</g>
			<path d="M 97.3386 113.6749 C 98.6017 114.408 98.0387 116.4014 98.0387 117.664 C 98.0387 121.3875 99.2638 128.39 98.0387 131.5085 C 96.5936 135.188 89.9591 134.5903 88.7035 131.0391 C 87.1352 126.6043 88.9977 118.5558 88.0031 113.9095 C 91.0787 113.795 94.6362 114.1646 97.3386 113.6749 Z" fill="#000000"/>
		</g>
	</g>
</svg>