<?xml version="1.0" standalone="no"?>
<!-- Generator: Adobe Fireworks 10, Export SVG Extension by Aaron Beall (http://fireworks.abeall.com) . Version: 0.6.1  -->
<!DOCTYPE svg PUBLIC "-//W3C//DTD SVG 1.1//EN" "http://www.w3.org/Graphics/SVG/1.1/DTD/svg11.dtd">
<svg id="Untitled-page%201" viewBox="0 0 300 300" style="background-color:#ffffff00" version="1.1"
	xmlns="http://www.w3.org/2000/svg" xmlns:xlink="http://www.w3.org/1999/xlink" xml:space="preserve"
	x="0px" y="0px" width="300px" height="300px"
>
	<g id="Calque%201">
		<path d="M 146.1816 117 C 149.0605 117 151.9395 117 154.8184 117 C 155.1922 120.0721 155.7591 122.951 156.2578 125.8984 C 158.892 126.7538 161.5181 127.6173 163.5859 129.0391 C 166.2496 127.4717 168.6312 125.6222 171.0449 123.8047 C 173.2586 125.6913 175.3086 127.7413 177.1953 129.9551 C 175.3868 132.3341 173.642 134.777 171.9609 137.2832 C 173.2028 139.531 174.3856 141.8378 174.9707 144.7422 C 177.9994 145.2029 180.8776 145.8143 184 146.1816 C 184 149.0605 184 151.9395 184 154.8184 C 180.9279 155.1921 178.0488 155.759 175.1016 156.2578 C 174.2462 158.8921 173.3827 161.5181 171.9609 163.5859 C 173.5336 166.2444 175.4047 168.6044 177.1953 171.0449 C 175.3086 173.2587 173.2586 175.3087 171.0449 177.1953 C 168.666 175.3868 166.2231 173.642 163.7168 171.9609 C 161.4692 173.2028 159.1623 174.3856 156.2578 174.9707 C 155.7969 177.9994 155.1857 180.8778 154.8184 184 C 151.9395 184 149.0605 184 146.1816 184 C 145.8078 180.9279 145.2407 178.0486 144.7422 175.1016 C 142.108 174.2462 139.4819 173.3827 137.4141 171.9609 C 134.7555 173.5337 132.3954 175.4045 129.9551 177.1953 C 127.7414 175.3087 125.6912 173.2587 123.8047 171.0449 C 125.6132 168.6659 127.3578 166.223 129.0391 163.7168 C 127.7971 161.469 126.6144 159.1622 126.0293 156.2578 C 123.0004 155.7969 120.1224 155.1857 117 154.8184 C 117 151.9395 117 149.0605 117 146.1816 C 120.1224 145.8143 123.0004 145.2029 126.0293 144.7422 C 126.639 141.9059 127.7046 139.5255 129.0391 137.4141 C 127.4844 134.694 125.4865 132.4172 123.8047 129.8242 C 125.822 127.7848 127.7197 125.6261 129.9551 123.8047 C 132.3688 125.6222 134.7504 127.4717 137.4141 129.0391 C 139.5255 127.7046 141.9059 126.6389 144.7422 126.0293 C 145.2029 123.0005 145.8143 120.1222 146.1816 117 ZM 138.5918 138.8535 C 136.1319 141.3265 134.2138 144.4753 133.8809 148.7988 C 133.088 159.0907 140.4443 166.4756 148.7988 167.1191 C 162.4266 168.1687 171.422 154.3 165.2871 142.6484 C 162.7698 137.8674 156.7346 133.1353 148.5371 134.0117 C 144.3098 134.4636 140.9294 136.5033 138.5918 138.8535 Z" fill="#ffffff"/>
	</g>
</svg>