<?xml version="1.0" standalone="no"?>
<!-- Generator: Adobe Fireworks 10, Export SVG Extension by Aaron Beall (http://fireworks.abeall.com) . Version: 0.6.1  -->
<!DOCTYPE svg PUBLIC "-//W3C//DTD SVG 1.1//EN" "http://www.w3.org/Graphics/SVG/1.1/DTD/svg11.dtd">
<svg id="Untitled-page%201" viewBox="0 0 66 66" style="background-color:#ffffff" version="1.1"
	xmlns="http://www.w3.org/2000/svg" xmlns:xlink="http://www.w3.org/1999/xlink" xml:space="preserve"
	x="0px" y="0px" width="66px" height="66px"
>
	<g id="Calque%201">
		<rect x="0" y="0" width="66" height="66" fill="#0581b5"/>
		<g>
			<path d="M 11 30.5535 C 11.6069 28.8389 12.8488 28.6497 14.6357 27.9612 C 27.0984 23.1614 39.584 18.4031 52.0306 13.6177 C 52.8387 13.3064 54.2927 12.6912 54.7999 13.1858 C 55.2529 13.6262 54.8354 14.811 54.5413 15.605 C 50.6494 26.105 47.082 36.3008 43.2882 46.54 C 42.7168 48.0808 42.1555 50.2681 41.3828 51.2046 C 39.3354 53.689 36.5188 51.3347 34.8044 50.0823 C 31.3125 47.5322 28.2896 45.2708 24.8499 42.9099 C 25.7029 41.6138 26.9624 40.6279 28.0529 39.5396 C 36.0083 31.5991 44.1589 23.7749 52.0306 15.864 C 41.7802 23.9792 31.4021 31.967 21.2141 40.1455 C 19.5835 38.9775 17.7922 37.7673 15.9341 36.4292 C 14.3855 35.3145 11.814 33.717 11 32.0227 C 11 31.5332 11 31.043 11 30.5535 Z" fill="#ffffff"/>
			<path d="M 18.9639 42.2195 C 21.767 44.1233 25.2911 46.6362 28.3986 48.8723 C 28.7916 49.1541 29.6936 49.7651 29.697 49.8225 C 29.7122 50.0503 28.6361 50.6628 28.2261 50.9463 C 27.0275 51.7734 24.8787 53.5354 23.6377 53.8848 C 20.3494 54.8062 20.3477 49.9727 19.9156 47.6624 C 19.5615 45.762 19.2952 44.0168 18.9639 42.2195 Z" fill="#ffffff"/>
		</g>
	</g>
</svg>