<?xml version="1.0" standalone="no"?>
<!-- Generator: Adobe Fireworks 10, Export SVG Extension by Aaron Beall (http://fireworks.abeall.com) . Version: 0.6.1  -->
<!DOCTYPE svg PUBLIC "-//W3C//DTD SVG 1.1//EN" "http://www.w3.org/Graphics/SVG/1.1/DTD/svg11.dtd">
<svg id="Untitled-page%201" viewBox="0 0 32 32" style="background-color:#ffffff00" version="1.1"
	xmlns="http://www.w3.org/2000/svg" xmlns:xlink="http://www.w3.org/1999/xlink" xml:space="preserve"
	x="0px" y="0px" width="32px" height="32px"
>
	<g id="Calque%201">
		<path d="M 15.6327 4 C 15.8826 4 16.1326 4 16.3826 4 C 17.3047 4.3317 18.4591 5.564 19.1945 6.2031 C 21.0132 7.7836 22.6569 9.1712 24.4435 10.7031 C 25.3262 11.4599 26.2246 12.1958 26.9743 13.0469 C 26.9743 16.3682 26.9743 20.2837 26.9743 23.9688 C 26.9743 25.7056 27.2773 27.7455 25.8027 28 C 19.2726 28 12.7427 28 6.2126 28 C 4.6615 27.655 5.041 25.4947 5.041 23.5938 C 5.041 20.0651 5.041 16.266 5.041 13.0469 C 5.791 12.1956 6.6885 11.4604 7.5717 10.7031 C 9.3589 9.1708 11.0016 7.7839 12.8207 6.2031 C 13.5635 5.5576 14.7135 4.3297 15.6327 4 ZM 17.1324 6.25 C 16.7513 5.9165 16.1857 5.1281 15.7733 5.4531 C 12.8033 7.7946 10.0693 10.5129 7.1499 12.9531 C 7.7551 13.4033 8.4769 13.9513 9.0714 14.4063 C 9.2771 14.5636 9.4608 14.8316 9.6807 14.7813 C 9.8065 13.3723 9.22 10.8655 10.5712 10.7031 C 12.0587 10.5244 13.9985 10.7031 16.0076 10.7031 C 18.0159 10.7031 20.001 10.4942 21.491 10.7031 C 22.8397 10.8923 22.1718 13.499 22.3346 14.8281 C 23.1379 14.3347 24.062 13.5559 24.8654 12.9063 C 22.4641 10.7846 19.6261 8.4316 17.1324 6.25 ZM 11.0867 12.2031 C 11.0867 13.4531 11.0867 14.7031 11.0867 15.9531 C 12.2805 16.8955 13.4299 17.7932 14.6953 18.7656 C 15.0093 19.0068 15.6667 19.64 15.9608 19.6562 C 16.2892 19.6744 16.9296 19.075 17.2731 18.8126 C 18.2394 18.0739 18.7572 17.6189 19.7101 16.8906 C 20.0521 16.6293 20.8204 16.2368 20.9286 15.9063 C 21.0875 15.421 20.9286 14.6228 20.9286 13.9844 C 20.9286 13.326 20.9286 12.6752 20.9286 12.0625 C 17.6636 12.0625 14.3986 12.0625 11.1335 12.0625 C 11.0789 12.0704 11.0826 12.1366 11.0867 12.2031 ZM 6.4469 26.5938 C 12.7114 26.6719 19.3038 26.6719 25.5684 26.5938 C 25.6776 22.5469 25.584 18.2969 25.6152 14.1719 C 23.5325 15.6885 21.0776 17.5635 18.8665 19.2812 C 17.9578 19.9872 16.8928 21.3388 15.4452 20.9219 C 14.6424 20.6906 13.8441 19.8134 13.1488 19.2812 C 10.8379 17.5126 8.6755 15.8475 6.4469 14.1719 C 6.4443 14.1433 6.4399 14.1164 6.4 14.125 C 6.4312 18.2657 6.3376 22.5311 6.4469 26.5938 Z" fill="#ffffff"/>
	</g>
</svg>