<?xml version="1.0" standalone="no"?>
<!-- Generator: Adobe Fireworks 10, Export SVG Extension by Aaron Beall (http://fireworks.abeall.com) . Version: 0.6.1  -->
<!DOCTYPE svg PUBLIC "-//W3C//DTD SVG 1.1//EN" "http://www.w3.org/Graphics/SVG/1.1/DTD/svg11.dtd">
<svg id="Untitled-page%201" viewBox="0 0 32 32" style="background-color:#ffffff00" version="1.1"
	xmlns="http://www.w3.org/2000/svg" xmlns:xlink="http://www.w3.org/1999/xlink" xml:space="preserve"
	x="0px" y="0px" width="32px" height="32px"
>
	<g id="Calque%201">
		<g>
			<path d="M 14.4239 4 C 15.1399 4 15.8559 4 16.5719 4 C 21.8366 4.6421 25.3042 7.3871 27.0682 11.4071 C 28.0178 13.5713 28.293 16.5037 27.6541 18.955 C 26.5218 23.2985 23.1091 26.5956 18.5247 27.6747 C 15.9833 28.2728 12.9659 28.0236 10.7135 27.1122 C 6.5274 25.4182 3.6683 22.0885 3 17.0328 C 3 16.3452 3 15.6576 3 14.9701 C 3.9989 8.6156 7.8073 4.9597 14.4239 4 ZM 10.7624 7.5629 C 9.6382 8.1526 8.7716 8.9047 8.0284 9.7194 C 6.5303 11.3619 5.3112 13.5983 5.5875 16.8453 C 5.824 19.6257 7.1286 21.6742 8.9072 23.1742 C 10.6243 24.6222 13.1669 25.7555 16.3278 25.5182 C 19.2932 25.2955 21.3507 24.0377 22.9185 22.3302 C 24.4695 20.6412 25.6967 18.3163 25.4572 15.2045 C 25.2407 12.3927 23.7137 10.2175 22.1374 8.8756 C 20.4453 7.4351 17.8713 6.2441 14.668 6.4847 C 13.2422 6.5917 11.8075 7.0146 10.7624 7.5629 Z" fill="#ffffff"/>
			<path d="M 15.6932 17.2203 C 15.6676 19.1733 15.727 21.3274 15.6932 23.3617 C 15.6903 23.5331 15.8469 23.9957 15.4979 24.0179 C 15.1469 23.9764 15.3037 23.5146 15.3026 23.3148 C 15.2921 21.4218 15.3106 19.192 15.3026 17.2672 C 14.7536 17.0131 14.2123 16.7515 14.2285 15.9545 C 13.2148 15.0873 12.1942 14.3136 11.0553 13.3761 C 10.7474 13.1227 10.1537 12.7396 10.1277 12.3916 C 10.1031 12.0623 10.5346 11.5117 10.9577 11.5009 C 11.3459 11.491 11.8061 11.9839 12.1293 12.251 C 13.1288 13.077 14.2887 14.0297 15.205 14.7826 C 15.533 14.78 15.8744 14.7648 16.0349 14.9232 C 16.8644 14.3302 17.8453 13.7097 18.8176 13.048 C 19.7883 12.3873 20.6599 11.649 21.5515 11.1727 C 21.9556 10.9569 22.4891 11.3219 22.4791 11.7352 C 22.4684 12.1793 21.4684 12.7007 21.161 12.9073 C 19.6512 13.9222 18.2077 14.8719 16.7672 15.8607 C 16.796 16.6854 16.335 17.0397 15.6932 17.2203 Z" fill="#ffffff"/>
		</g>
	</g>
</svg>