<?xml version="1.0" encoding="utf-8"?>
<!-- Generator: Adobe Illustrator 16.0.0, SVG Export Plug-In . SVG Version: 6.00 Build 0)  -->
<!DOCTYPE svg PUBLIC "-//W3C//DTD SVG 1.1//EN" "http://www.w3.org/Graphics/SVG/1.1/DTD/svg11.dtd">
<svg version="1.1" id="Calque_1" xmlns="http://www.w3.org/2000/svg" xmlns:xlink="http://www.w3.org/1999/xlink" x="0px" y="0px"
	 width="32px" height="32px" viewBox="0 0 32 32" enable-background="new 0 0 32 32" xml:space="preserve">
<g>
	<path fill="#0E80B5" d="M2.189,5.741C2.546,5.703,2.764,5.659,2.98,5.659c5.549-0.003,11.098-0.007,16.646,0.006
		c0.487,0.001,0.699-0.077,0.774-0.649c0.287-2.12,2.297-3.972,4.443-3.921c2.387,0.058,4.033,1.152,4.74,3.279
		c0.627,1.884-0.105,3.894-1.561,5.071c-1.556,1.256-3.633,1.44-5.279,0.419c-0.477-0.295-0.711-0.229-1.045,0.182
		c-2.094,2.577-4.223,5.127-6.313,7.707c-0.215,0.265-0.363,0.667-0.366,1.006c-0.027,3.232-0.016,6.466-0.016,9.697
		c0,1.04,0.009,0.959,1.021,1.088c1.056,0.136,2.095,0.422,3.127,0.696c0.304,0.08,0.556,0.347,0.828,0.527
		c-0.018,0.045-0.037,0.092-0.055,0.137c-4.128,0-8.256,0-12.385,0c-0.028-0.034-0.06-0.07-0.092-0.104
		c0.264-0.188,0.502-0.471,0.795-0.549c1.05-0.28,2.116-0.495,3.179-0.726c0.155-0.033,0.321-0.017,0.483-0.024
		c0.368-0.019,0.524-0.188,0.523-0.581c-0.013-3.447-0.004-6.896-0.019-10.344c-0.001-0.229-0.099-0.501-0.243-0.678
		c-3.121-3.801-6.255-7.592-9.385-11.388C2.606,6.298,2.444,6.073,2.189,5.741z M17.174,12.728c-2.316,0-4.521,0-6.831,0
		c0.857,0.99,1.621,1.96,2.481,2.835c0.604,0.613,1.34,0.514,1.937-0.128c0.535-0.578,1.05-1.174,1.574-1.763
		C16.604,13.371,16.87,13.069,17.174,12.728z M24.318,5.303c0.035-0.044,0.068-0.09,0.104-0.134
		c-0.484-0.585-0.951-1.185-1.459-1.749c-0.264-0.296-0.502-0.029-0.67,0.161c-0.207,0.233-0.404,0.574-0.031,0.777
		C22.924,4.717,23.631,4.993,24.318,5.303z M25.107,4.906c0.039,0.013,0.078,0.025,0.117,0.038c0.243-0.699,0.508-1.394,0.721-2.103
		c0.043-0.14-0.07-0.446-0.178-0.484c-0.234-0.081-0.525-0.089-0.767-0.023c-0.106,0.029-0.222,0.316-0.203,0.473
		C24.877,3.508,25,4.207,25.107,4.906z M25.824,6.285c-0.035,0.035-0.072,0.071-0.107,0.106c0.428,0.589,0.83,1.198,1.291,1.76
		c0.283,0.344,0.572,0.145,0.807-0.13c0.228-0.269,0.332-0.563-0.037-0.765C27.139,6.907,26.477,6.605,25.824,6.285z M25.838,5.338
		c0.016,0.038,0.029,0.076,0.045,0.114c0.682-0.134,1.367-0.252,2.043-0.411c0.158-0.037,0.402-0.22,0.396-0.327
		C28.314,4.468,28.227,4.181,28.068,4c-0.084-0.099-0.438-0.098-0.57-0.002C26.924,4.417,26.389,4.887,25.838,5.338z M25.059,6.772
		c-0.055-0.003-0.106-0.006-0.162-0.009c-0.235,0.651-0.498,1.292-0.701,1.953c-0.129,0.417,0.193,0.531,0.523,0.563
		c0.35,0.035,0.73-0.047,0.695-0.464C25.355,8.128,25.184,7.453,25.059,6.772z"/>
	<path fill="#FFFFFF" d="M17.174,12.728c-0.304,0.341-0.57,0.643-0.839,0.944c-0.524,0.588-1.039,1.185-1.574,1.763
		c-0.597,0.643-1.333,0.741-1.937,0.128c-0.86-0.875-1.624-1.845-2.481-2.835C12.653,12.728,14.857,12.728,17.174,12.728z"/>
	<path fill="#FFFFFF" d="M24.318,5.303c-0.688-0.31-1.396-0.585-2.057-0.944c-0.373-0.204-0.177-0.544,0.03-0.777
		c0.168-0.19,0.405-0.458,0.67-0.161c0.509,0.564,0.976,1.164,1.459,1.749C24.387,5.213,24.354,5.258,24.318,5.303z"/>
	<path fill="#FFFFFF" d="M25.107,4.906c-0.107-0.699-0.23-1.397-0.31-2.1c-0.019-0.156,0.097-0.444,0.203-0.473
		c0.24-0.066,0.531-0.058,0.767,0.023c0.106,0.038,0.221,0.345,0.178,0.484c-0.213,0.709-0.478,1.404-0.721,2.103
		C25.186,4.931,25.146,4.919,25.107,4.906z"/>
	<path fill="#FFFFFF" d="M25.824,6.285c0.652,0.321,1.314,0.622,1.953,0.971c0.369,0.202,0.264,0.497,0.037,0.765
		c-0.234,0.275-0.523,0.474-0.808,0.13c-0.461-0.563-0.862-1.171-1.291-1.76C25.752,6.355,25.789,6.319,25.824,6.285z"/>
	<path fill="#FFFFFF" d="M25.838,5.338c0.551-0.451,1.086-0.921,1.66-1.341c0.133-0.096,0.486-0.097,0.57,0.002
		c0.158,0.181,0.246,0.468,0.254,0.715c0.006,0.107-0.238,0.29-0.396,0.327C27.25,5.2,26.564,5.318,25.883,5.452
		C25.867,5.415,25.854,5.376,25.838,5.338z"/>
	<path fill="#FFFFFF" d="M25.059,6.772c0.125,0.681,0.297,1.356,0.355,2.042c0.035,0.417-0.346,0.499-0.695,0.464
		c-0.33-0.032-0.652-0.145-0.523-0.563c0.203-0.66,0.466-1.302,0.701-1.953C24.951,6.766,25.004,6.769,25.059,6.772z"/>
</g>
</svg>
