<?xml version="1.0" standalone="no"?>
<!-- Generator: Adobe Fireworks 10, Export SVG Extension by Aaron Beall (http://fireworks.abeall.com) . Version: 0.6.1  -->
<!DOCTYPE svg PUBLIC "-//W3C//DTD SVG 1.1//EN" "http://www.w3.org/Graphics/SVG/1.1/DTD/svg11.dtd">
<svg id="Untitled-page%201" viewBox="0 0 233 122" style="background-color:#ffffff00" version="1.1"
	xmlns="http://www.w3.org/2000/svg" xmlns:xlink="http://www.w3.org/1999/xlink" xml:space="preserve"
	x="0px" y="0px" width="233px" height="122px"
>
	<g id="Calque%201">
		<path id="Ellipse" d="M 0 85 C 0 64.5652 16.5652 48 37 48 C 57.4348 48 74 64.5652 74 85 C 74 105.4348 57.4348 122 37 122 C 16.5652 122 0 105.4348 0 85 Z" fill="#ffffff"/>
		<g>
			<path d="M 56 73.0689 C 56 73.2209 56 73.373 56 73.5249 C 43.713 73.7774 30.3645 73.7778 18 73.5249 C 18 73.373 18 73.2209 18 73.0689 C 18.5192 72.5389 18.9442 71.796 19.5586 71.0174 C 19.9999 70.4583 20.7098 69.2834 21.2656 69.1179 C 22.1571 68.8526 24.043 69.1179 25.1992 69.1179 C 34.3522 69.1179 44.1144 69.1179 52.8086 69.1179 C 53.9738 70.3311 54.9027 71.7862 56 73.0689 Z" fill="#0581b5"/>
			<path d="M 18 76.4881 C 18 75.9816 18 75.4751 18 74.9685 C 19.9167 74.7171 22.8372 74.7171 24.7539 74.9685 C 25.6165 79.9137 18.6172 80.4005 18 76.4881 Z" fill="#0581b5"/>
			<path d="M 26.0898 74.8165 C 28.1944 74.8654 30.4911 74.7176 32.4727 74.8925 C 33.6423 80.3336 24.9432 80.6884 25.8672 74.9685 C 25.9216 74.8975 26.0021 74.8534 26.0898 74.8165 Z" fill="#0581b5"/>
			<path d="M 40.3398 74.9685 C 41.321 80.4358 32.7272 80.5084 33.6602 74.9685 C 35.5524 74.7171 38.4476 74.7171 40.3398 74.9685 Z" fill="#0581b5"/>
			<path d="M 48.1328 74.8925 C 49.0555 79.2737 43.3525 80.5822 41.75 77.324 C 41.5073 76.8304 41.2263 75.4961 41.5273 74.9685 C 43.4131 74.6672 46.1239 74.8155 48.1328 74.8925 Z" fill="#0581b5"/>
			<path d="M 56 74.9685 C 56 75.4751 56 75.9816 56 76.4881 C 55.7147 77.3038 55.3752 77.9102 54.8125 78.3877 C 52.6249 80.244 48.6295 78.7126 49.3203 74.8925 C 51.3561 74.8133 54.0865 74.6703 56 74.9685 Z" fill="#0581b5"/>
			<path d="M 54.293 80.2872 C 54.5604 85.4154 54.4414 92.3726 54.4414 98.2949 C 54.4414 99.0539 54.5185 100.3373 54.2188 100.6504 C 53.803 101.0846 52.2781 100.8783 51.6211 100.8783 C 50.6152 100.8783 49.7703 100.8783 48.875 100.8783 C 48.702 95.5088 48.8502 89.8104 48.8008 84.3143 C 45.7826 84.3143 42.7643 84.3143 39.7461 84.3143 C 39.697 89.8105 39.8447 95.5086 39.6719 100.8783 C 34.765 100.8783 29.6787 100.8783 24.5313 100.8783 C 23.4018 100.8783 20.3735 101.2689 19.7813 100.6504 C 19.2018 100.045 19.5586 96.9219 19.5586 95.6356 C 19.5586 90.5896 19.4376 84.9872 19.707 80.2872 C 21.0976 80.2332 22.0857 80.4817 23.2695 79.9073 C 23.9376 79.5832 24.4285 78.9842 24.9766 78.5396 C 25.5466 78.0773 26.6302 79.6177 27.2031 79.9073 C 28.3547 80.4894 30.124 80.4647 31.2109 79.8314 C 31.7663 79.5077 32.6492 78.3966 33.0664 78.3877 C 33.5031 78.3783 34.2719 79.4547 34.7734 79.7554 C 36.0206 80.503 37.8558 80.5138 39.1523 79.7554 C 39.547 79.5245 40.4658 78.4086 40.8594 78.3877 C 41.4195 78.3578 42.2787 79.5963 42.7148 79.8314 C 44.4293 80.7555 46.5276 80.2571 47.7617 79.1475 C 48.0174 78.9176 48.4443 78.3877 48.7266 78.3877 C 49.179 78.3877 49.9469 79.4763 50.4336 79.7554 C 51.5381 80.3885 52.7772 80.3163 54.293 80.2872 ZM 25.6445 84.3143 C 25.6936 86.8981 25.5462 89.683 25.7188 92.1404 C 28.1685 92.3171 30.9384 92.1662 33.5117 92.2164 C 33.6844 89.6832 33.5369 86.8221 33.5859 84.1624 C 31.1608 83.9856 28.4158 84.1365 25.8672 84.0862 C 25.7603 84.1288 25.6861 84.2049 25.6445 84.3143 Z" fill="#0581b5"/>
			<path d="M 46.6484 91.2286 C 47.7126 91.0612 48.1193 93.7562 47.2422 94.3439 C 45.7203 95.3636 45.275 91.4448 46.6484 91.2286 Z" fill="#0581b5"/>
		</g>
	</g>
</svg>