<?xml version="1.0" standalone="no"?>
<!-- Generator: Adobe Fireworks 10, Export SVG Extension by Aaron Beall (http://fireworks.abeall.com) . Version: 0.6.1  -->
<!DOCTYPE svg PUBLIC "-//W3C//DTD SVG 1.1//EN" "http://www.w3.org/Graphics/SVG/1.1/DTD/svg11.dtd">
<svg id="Untitled-page%201" viewBox="0 0 233 122" style="background-color:#ffffff00" version="1.1"
	xmlns="http://www.w3.org/2000/svg" xmlns:xlink="http://www.w3.org/1999/xlink" xml:space="preserve"
	x="0px" y="0px" width="233px" height="122px"
>
	<defs>
		<filter id="filter1" x="-100%" y="-100%" width="300%" height="300%">
			<!-- Ombre portée -->
			<feOffset result="out" in="SourceGraphic" dx="1.4142" dy="1.4142"/>
			<feColorMatrix result="out" in="out" type="matrix" values="0 0 0 0 0  0 0 0 0 0  0 0 0 0 0  0 0 0 0.651 0"/>
			<feGaussianBlur result="out" in="out" stdDeviation="4"/>
			<feBlend in="SourceGraphic" in2="out" mode="normal" result="Ombre_portée1"/>
		</filter>
	</defs>
	<g id="Calque%201">
		<path id="Ellipse" d="M 0 85 C 0 64.5652 16.5652 48 37 48 C 57.4348 48 74 64.5652 74 85 C 74 105.4348 57.4348 122 37 122 C 16.5652 122 0 105.4348 0 85 Z" fill="#0581b5"/>
		<g filter="url(#filter1)">
			<path d="M 113.3806 17.5798 C 112.0026 19.2959 109.8705 20.3619 107.4784 20.3619 C 103.1882 20.3619 99.7561 16.9298 99.7561 12.6396 C 99.7561 8.5575 103.1882 5.1254 107.4784 5.1254 C 109.8445 5.1254 111.9246 6.1654 113.3286 7.8035 L 115.6947 7.8035 C 114.0046 5.0994 110.9625 3.2273 107.4784 3.2273 C 102.1482 3.2273 97.78 7.5435 97.78 12.6396 C 97.78 17.9438 102.1482 22.26 107.4784 22.26 C 110.9885 22.26 114.0566 20.3879 115.7467 17.5798 L 113.3806 17.5798 L 113.3806 17.5798 Z" fill="#ffffff"/>
			<path d="M 123.8383 22.286 C 127.0884 22.286 129.7665 19.5039 129.7665 16.3058 C 129.7665 13.0557 127.0884 10.3776 123.8383 10.3776 C 120.5881 10.3776 117.91 13.0557 117.91 16.3058 C 117.91 19.5039 120.5881 22.286 123.8383 22.286 L 123.8383 22.286 ZM 123.8383 12.0936 C 126.1523 12.0936 127.9464 13.9917 127.9464 16.3058 C 127.9464 18.5679 126.1523 20.5699 123.8383 20.5699 C 121.5242 20.5699 119.7301 18.5679 119.7301 16.3058 C 119.7301 13.9917 121.5242 12.0936 123.8383 12.0936 L 123.8383 12.0936 Z" fill="#ffffff"/>
			<path d="M 145.5865 10.3776 C 143.8705 10.3776 142.5184 11.1836 141.7124 12.5876 C 141.1144 11.0276 139.8663 10.3776 137.8643 10.3776 C 136.4342 10.3776 135.2642 10.9496 134.4321 11.9376 L 134.4321 10.5596 L 132.6901 10.5596 L 132.6901 22 L 134.4321 22 L 134.4321 16.0458 C 134.4321 13.2637 135.7582 12.0936 137.8643 12.0936 C 139.5543 12.0936 140.4124 13.2117 140.4124 15.4738 L 140.4124 22 L 142.1544 22 L 142.1544 16.0458 C 142.1544 13.2637 143.4805 12.0936 145.5865 12.0936 C 147.2766 12.0936 148.1346 13.2117 148.1346 15.4738 L 148.1346 22 L 149.8767 22 L 149.8767 15.4738 C 149.8767 11.8336 148.5507 10.3776 145.5865 10.3776 L 145.5865 10.3776 Z" fill="#ffffff"/>
			<path d="M 166.5865 10.3776 C 164.8705 10.3776 163.5184 11.1836 162.7124 12.5876 C 162.1144 11.0276 160.8663 10.3776 158.8643 10.3776 C 157.4342 10.3776 156.2642 10.9496 155.4321 11.9376 L 155.4321 10.5596 L 153.6901 10.5596 L 153.6901 22 L 155.4321 22 L 155.4321 16.0458 C 155.4321 13.2637 156.7582 12.0936 158.8643 12.0936 C 160.5543 12.0936 161.4124 13.2117 161.4124 15.4738 L 161.4124 22 L 163.1544 22 L 163.1544 16.0458 C 163.1544 13.2637 164.4805 12.0936 166.5865 12.0936 C 168.2766 12.0936 169.1346 13.2117 169.1346 15.4738 L 169.1346 22 L 170.8767 22 L 170.8767 15.4738 C 170.8767 11.8336 169.5507 10.3776 166.5865 10.3776 L 166.5865 10.3776 Z" fill="#ffffff"/>
			<path d="M 185.7665 16.3058 C 185.7665 13.0557 183.0884 10.3776 179.8383 10.3776 C 176.5881 10.3776 173.91 13.0557 173.91 16.3058 C 173.91 19.5039 176.5881 22.286 179.8383 22.286 C 182.1523 22.286 184.2064 20.96 185.1685 18.9839 L 183.0104 18.9839 C 182.2823 19.9199 181.1643 20.5699 179.8383 20.5699 C 177.8102 20.5699 176.1721 19.0099 175.8081 17.1118 L 185.7665 17.1118 L 185.7665 16.3058 L 185.7665 16.3058 ZM 179.8383 12.0936 C 181.8403 12.0936 183.4784 13.5497 183.8684 15.4478 L 175.8081 15.4478 C 176.1981 13.5497 177.8102 12.0936 179.8383 12.0936 L 179.8383 12.0936 Z" fill="#ffffff"/>
			<path d="M 190.5621 10.5596 L 188.8201 10.5596 L 188.8201 22 L 190.5621 22 L 190.5621 15.6818 C 190.5621 13.3417 192.4082 12.0936 194.4363 12.0936 L 194.4363 10.3776 C 192.8502 10.3776 191.4982 11.0536 190.5621 12.1196 L 190.5621 10.5596 L 190.5621 10.5596 Z" fill="#ffffff"/>
			<path d="M 208.4025 14.2777 C 207.5704 12.0156 205.3864 10.3776 202.8383 10.3776 C 199.5881 10.3776 196.91 13.0557 196.91 16.3058 C 196.91 19.5039 199.5881 22.286 202.8383 22.286 C 205.4124 22.286 207.6224 20.6479 208.4285 18.3339 L 206.4524 18.3339 C 205.7504 19.6339 204.4243 20.5699 202.8383 20.5699 C 200.5242 20.5699 198.7301 18.5679 198.7301 16.3058 C 198.7301 13.9917 200.5242 12.0936 202.8383 12.0936 C 204.4243 12.0936 205.7504 12.9777 206.4524 14.2777 L 208.4025 14.2777 L 208.4025 14.2777 Z" fill="#ffffff"/>
			<path d="M 222.7665 16.3058 C 222.7665 13.0557 220.0884 10.3776 216.8383 10.3776 C 213.5881 10.3776 210.91 13.0557 210.91 16.3058 C 210.91 19.5039 213.5881 22.286 216.8383 22.286 C 219.1523 22.286 221.2064 20.96 222.1685 18.9839 L 220.0104 18.9839 C 219.2823 19.9199 218.1643 20.5699 216.8383 20.5699 C 214.8102 20.5699 213.1721 19.0099 212.8081 17.1118 L 222.7665 17.1118 L 222.7665 16.3058 L 222.7665 16.3058 ZM 216.8383 12.0936 C 218.8403 12.0936 220.4784 13.5497 220.8684 15.4478 L 212.8081 15.4478 C 213.1981 13.5497 214.8102 12.0936 216.8383 12.0936 L 216.8383 12.0936 Z" fill="#ffffff"/>
		</g>
		<g>
			<path d="M 56 73.0689 C 56 73.2209 56 73.373 56 73.5249 C 43.713 73.7774 30.3645 73.7778 18 73.5249 C 18 73.373 18 73.2209 18 73.0689 C 18.5192 72.5389 18.9442 71.796 19.5586 71.0174 C 19.9999 70.4583 20.7098 69.2834 21.2656 69.1179 C 22.1571 68.8526 24.043 69.1179 25.1992 69.1179 C 34.3522 69.1179 44.1144 69.1179 52.8086 69.1179 C 53.9738 70.3311 54.9027 71.7862 56 73.0689 Z" fill="#ffffff"/>
			<path d="M 18 76.4881 C 18 75.9816 18 75.4751 18 74.9685 C 19.9167 74.7171 22.8372 74.7171 24.7539 74.9685 C 25.6165 79.9137 18.6172 80.4005 18 76.4881 Z" fill="#ffffff"/>
			<path d="M 26.0898 74.8165 C 28.1944 74.8654 30.4911 74.7176 32.4727 74.8925 C 33.6423 80.3336 24.9432 80.6884 25.8672 74.9685 C 25.9216 74.8975 26.0021 74.8534 26.0898 74.8165 Z" fill="#ffffff"/>
			<path d="M 40.3398 74.9685 C 41.321 80.4358 32.7272 80.5084 33.6602 74.9685 C 35.5524 74.7171 38.4476 74.7171 40.3398 74.9685 Z" fill="#ffffff"/>
			<path d="M 48.1328 74.8925 C 49.0555 79.2737 43.3525 80.5822 41.75 77.324 C 41.5073 76.8304 41.2263 75.4961 41.5273 74.9685 C 43.4131 74.6672 46.1239 74.8155 48.1328 74.8925 Z" fill="#ffffff"/>
			<path d="M 56 74.9685 C 56 75.4751 56 75.9816 56 76.4881 C 55.7147 77.3038 55.3752 77.9102 54.8125 78.3877 C 52.6249 80.244 48.6295 78.7126 49.3203 74.8925 C 51.3561 74.8133 54.0865 74.6703 56 74.9685 Z" fill="#ffffff"/>
			<path d="M 54.293 80.2872 C 54.5604 85.4154 54.4414 92.3726 54.4414 98.2949 C 54.4414 99.0539 54.5185 100.3373 54.2188 100.6504 C 53.803 101.0846 52.2781 100.8783 51.6211 100.8783 C 50.6152 100.8783 49.7703 100.8783 48.875 100.8783 C 48.702 95.5088 48.8502 89.8104 48.8008 84.3143 C 45.7826 84.3143 42.7643 84.3143 39.7461 84.3143 C 39.697 89.8105 39.8447 95.5086 39.6719 100.8783 C 34.765 100.8783 29.6787 100.8783 24.5313 100.8783 C 23.4018 100.8783 20.3735 101.2689 19.7813 100.6504 C 19.2018 100.045 19.5586 96.9219 19.5586 95.6356 C 19.5586 90.5896 19.4376 84.9872 19.707 80.2872 C 21.0976 80.2332 22.0857 80.4817 23.2695 79.9073 C 23.9376 79.5832 24.4285 78.9842 24.9766 78.5396 C 25.5466 78.0773 26.6302 79.6177 27.2031 79.9073 C 28.3547 80.4894 30.124 80.4647 31.2109 79.8314 C 31.7663 79.5077 32.6492 78.3966 33.0664 78.3877 C 33.5031 78.3783 34.2719 79.4547 34.7734 79.7554 C 36.0206 80.503 37.8558 80.5138 39.1523 79.7554 C 39.547 79.5245 40.4658 78.4086 40.8594 78.3877 C 41.4195 78.3578 42.2787 79.5963 42.7148 79.8314 C 44.4293 80.7555 46.5276 80.2571 47.7617 79.1475 C 48.0174 78.9176 48.4443 78.3877 48.7266 78.3877 C 49.179 78.3877 49.9469 79.4763 50.4336 79.7554 C 51.5381 80.3885 52.7772 80.3163 54.293 80.2872 ZM 25.6445 84.3143 C 25.6936 86.8981 25.5462 89.683 25.7188 92.1404 C 28.1685 92.3171 30.9384 92.1662 33.5117 92.2164 C 33.6844 89.6832 33.5369 86.8221 33.5859 84.1624 C 31.1608 83.9856 28.4158 84.1365 25.8672 84.0862 C 25.7603 84.1288 25.6861 84.2049 25.6445 84.3143 Z" fill="#ffffff"/>
			<path d="M 46.6484 91.2286 C 47.7126 91.0612 48.1193 93.7562 47.2422 94.3439 C 45.7203 95.3636 45.275 91.4448 46.6484 91.2286 Z" fill="#ffffff"/>
		</g>
		<path d="M 61 56 L 85 27 L 232 27 " stroke="#ffffff" stroke-width="2" fill="none"/>
	</g>
</svg>