<?xml version="1.0" encoding="utf-8"?>
<!-- Generator: Adobe Illustrator 16.0.0, SVG Export Plug-In . SVG Version: 6.00 Build 0)  -->
<!DOCTYPE svg PUBLIC "-//W3C//DTD SVG 1.1//EN" "http://www.w3.org/Graphics/SVG/1.1/DTD/svg11.dtd">
<svg version="1.1" id="Calque_1" xmlns="http://www.w3.org/2000/svg" xmlns:xlink="http://www.w3.org/1999/xlink" x="0px" y="0px"
	 width="32px" height="32px" viewBox="0 0 32 32" enable-background="new 0 0 32 32" xml:space="preserve">
<g>
	<path fill="#0E80B5" d="M12.521,25.042c-0.645-1.452-1.292-2.86-1.882-4.292c-0.099-0.238-0.021-0.619,0.102-0.871
		c0.37-0.752,0.813-1.469,1.207-2.211c0.098-0.184,0.165-0.407,0.166-0.611c0.013-1.871,0.015-3.743-0.003-5.614
		c-0.002-0.183-0.104-0.428-0.244-0.536C9.848,9.34,8.635,7.235,7.798,4.877C7.63,4.404,7.854,3.954,8.279,3.817
		c0.407-0.131,0.777,0.099,0.997,0.554c0.505,1.049,0.97,2.124,1.576,3.111c0.416,0.679,1.043,1.228,1.577,1.834
		c0.193,0.219,0.356,0.21,0.633,0.056c0.869-0.489,1.794-0.47,2.691-0.074c0.507,0.225,0.839,0.658,0.944,1.207
		c0.072,0.377,0.264,0.613,0.56,0.847c1.937,1.529,3.084,3.595,3.908,5.867c0.166,0.461-0.054,0.91-0.444,1.053
		c-0.447,0.162-0.839-0.056-1.041-0.592c-0.539-1.419-1.223-2.76-2.203-3.932c-0.188-0.226-0.396-0.437-0.689-0.76
		c0,0.578,0.043,1.04-0.008,1.489c-0.166,1.456,0.24,2.708,1.052,3.936c1.116,1.685,2.075,3.474,3.114,5.209
		c0.279,0.466,0.428,0.903-0.078,1.42c0.264,0,0.426,0,0.588,0c2.213,0,4.428-0.004,6.643,0.004c0.805,0.002,1.48,0.57,1.598,1.308
		c0.13,0.807-0.309,1.541-1.086,1.789c-0.174,0.057-0.364,0.072-0.549,0.072c-8.045,0.006-16.091,0.006-24.139,0.003
		c-0.967,0-1.643-0.659-1.64-1.587c0.002-0.91,0.697-1.584,1.658-1.587c2.683-0.004,5.364-0.002,8.046-0.002
		C12.158,25.042,12.329,25.042,12.521,25.042z M19.947,25.025c-1.162-1.963-2.291-3.877-3.426-5.787
		c-0.276-0.467-0.469-1.1-0.883-1.334c-0.416-0.234-1.06-0.057-1.603-0.079c-0.265-0.013-0.418,0.065-0.546,0.312
		c-0.359,0.689-0.766,1.354-1.118,2.047c-0.082,0.159-0.092,0.418-0.022,0.584c0.399,0.961,0.819,1.912,1.258,2.856
		c0.223,0.479,0.342,0.933-0.087,1.401C15.691,25.025,17.803,25.025,19.947,25.025z"/>
	<path fill="#0E80B5" d="M16.786,6.278c0.001,1.313-1.026,2.373-2.308,2.377c-1.297,0.005-2.368-1.083-2.355-2.392
		c0.014-1.286,1.091-2.375,2.347-2.369C15.736,3.9,16.786,4.979,16.786,6.278z"/>
	<path fill="#0E80B5" d="M24.938,7.553c0.039-0.654,0.076-1.281,0.117-1.948c-0.822,0-1.561,0-2.287,0
		c-0.156,0.926-0.293,1.859-0.475,2.784c-0.156,0.785-0.771,1.155-1.479,0.937c-0.482-0.148-0.744-0.462-0.748-0.895
		c-0.006-0.446,0.268-0.778,0.774-0.914c0.188-0.051,0.394-0.059,0.66-0.096c0.069-0.639,0.146-1.301,0.213-1.962
		c0.065-0.658,0.33-0.906,0.994-0.91c0.731-0.004,1.465-0.007,2.198,0.001c0.64,0.008,0.945,0.306,1.064,0.942
		c0.221,1.18-0.084,2.287-0.462,3.38c-0.151,0.446-0.569,0.609-1.016,0.61c-0.431,0.001-0.793-0.186-0.994-0.585
		c-0.302-0.593,0.16-1.267,0.912-1.343C24.549,7.542,24.688,7.553,24.938,7.553z"/>
	<path fill="#0E80B5" d="M7.182,15.945c-0.224-0.565-0.46-1.161-0.716-1.808C5.723,14.5,5.06,14.825,4.403,15.146
		c0.253,0.896,0.518,1.766,0.743,2.647c0.202,0.793-0.08,1.339-0.764,1.566c-0.473,0.158-0.962-0.002-1.184-0.389
		c-0.207-0.363-0.116-0.873,0.237-1.186c0.161-0.143,0.359-0.239,0.608-0.4c-0.195-0.576-0.378-1.182-0.604-1.769
		c-0.274-0.709-0.161-1.043,0.531-1.386c0.641-0.317,1.279-0.636,1.923-0.947C6.482,13,6.89,13.112,7.256,13.651
		c0.666,0.982,0.93,2.098,1.008,3.253c0.051,0.771-0.889,1.349-1.596,1.029c-0.595-0.271-0.72-0.972-0.234-1.473
		C6.621,16.268,6.883,16.146,7.182,15.945z"/>
</g>
</svg>
