<?xml version="1.0" standalone="no"?>
<!-- Generator: Adobe Fireworks 10, Export SVG Extension by Aaron Beall (http://fireworks.abeall.com) . Version: 0.6.1  -->
<!DOCTYPE svg PUBLIC "-//W3C//DTD SVG 1.1//EN" "http://www.w3.org/Graphics/SVG/1.1/DTD/svg11.dtd">
<svg id="Untitled-page%201" viewBox="0 0 32 32" style="background-color:#ffffff00" version="1.1"
	xmlns="http://www.w3.org/2000/svg" xmlns:xlink="http://www.w3.org/1999/xlink" xml:space="preserve"
	x="0px" y="0px" width="32px" height="32px"
>
	<g id="Calque%201">
		<path d="M 21 4.004 C 21 5.4238 21 6.8436 21 8.2632 C 19.6475 8.4619 17.9048 7.7798 17.3843 8.8347 C 17.0164 9.58 17.4464 10.8174 17.2824 11.9509 C 18.5215 11.9509 19.7607 11.9509 21 11.9509 C 20.8786 13.3335 20.7452 14.7035 20.5417 16.0022 C 19.4722 16.0022 18.4028 16.0022 17.3333 16.0022 C 17.2144 19.8973 17.3163 24.0178 17.2824 28 C 15.6357 28 13.9893 28 12.3426 28 C 12.3426 24.0005 12.3426 20.0012 12.3426 16.0022 C 11.5618 16.0022 10.7809 16.0022 10 16.0022 C 10 14.6519 10 13.3013 10 11.9509 C 10.7809 11.9509 11.5618 11.9509 12.3426 11.9509 C 11.9864 7.0706 12.7196 4.3644 16.875 4.0562 C 18.1664 3.9603 19.5403 4.0198 21 4.004 Z" fill="#000000"/>
	</g>
</svg>