<?xml version="1.0" standalone="no"?>
<!-- Generator: Adobe Fireworks 10, Export SVG Extension by Aaron Beall (http://fireworks.abeall.com) . Version: 0.6.1  -->
<!DOCTYPE svg PUBLIC "-//W3C//DTD SVG 1.1//EN" "http://www.w3.org/Graphics/SVG/1.1/DTD/svg11.dtd">
<svg id="Untitled-page%201" viewBox="0 0 32 32" style="background-color:#ffffff00" version="1.1"
	xmlns="http://www.w3.org/2000/svg" xmlns:xlink="http://www.w3.org/1999/xlink" xml:space="preserve"
	x="0px" y="0px" width="32px" height="32px"
>
	<g id="Calque%201">
		<path d="M 14.9688 4 C 15.6563 4 16.3438 4 17.0313 4 C 23.3845 4.9595 27.0406 8.6152 28 14.9688 C 28 15.6563 28 16.3438 28 17.0313 C 27.0406 23.3845 23.3846 27.0405 17.0313 28 C 16.3438 28 15.6563 28 14.9688 28 C 8.6155 27.0405 4.9594 23.3848 4 17.0313 C 4 16.3438 4 15.6563 4 14.9688 C 4.9594 8.6152 8.6155 4.9595 14.9688 4 ZM 11.9219 9.9063 C 12.9323 10.0366 13.9316 10.1777 15.0156 10.2344 C 14.9844 8.9219 15.0781 7.4844 14.9688 6.25 C 13.4576 6.9731 12.5748 8.3247 11.9219 9.9063 ZM 16.9844 10.2344 C 18.0771 10.1865 19.0627 10.0315 20.0781 9.9063 C 19.4106 8.3237 18.55 6.9343 16.9844 6.25 C 16.9844 7.5781 16.9844 8.9063 16.9844 10.2344 ZM 8.5469 9.0156 C 9.0437 9.1125 9.4163 9.3335 9.9531 9.3906 C 10.2803 8.5303 10.6733 7.7358 11.1719 7.0469 C 11.1821 6.988 11.2449 6.9512 11.125 6.9531 C 10.1772 7.5522 9.2114 8.1333 8.5469 9.0156 ZM 22.0469 9.3906 C 22.5837 9.3335 22.9563 9.1125 23.4531 9.0156 C 22.764 8.1733 21.7731 7.3833 20.7813 7 C 21.3174 7.6826 21.7051 8.5137 22.0469 9.3906 ZM 7.2813 10.7031 C 6.5107 11.6826 5.9642 13.2925 5.7813 15.0156 C 6.7813 15.0156 7.7813 15.0156 8.7813 15.0156 C 8.8435 13.6716 9.0685 12.4902 9.2969 11.3125 C 8.5659 11.1685 7.9745 10.8848 7.2813 10.7031 ZM 24.7188 10.6563 C 24.0946 10.9229 23.4235 11.1421 22.7031 11.3125 C 22.9315 12.4902 23.1565 13.6716 23.2188 15.0156 C 24.2188 15.0156 25.2188 15.0156 26.2188 15.0156 C 26.0253 13.2559 25.522 11.8062 24.7188 10.6563 ZM 11.3125 11.8281 C 10.9961 12.7461 10.881 13.8652 10.7969 15.0156 C 12.2031 15.0156 13.6094 15.0156 15.0156 15.0156 C 15.0156 14.0938 15.0156 13.1719 15.0156 12.25 C 13.7047 12.186 12.4961 12.0195 11.3125 11.8281 ZM 16.9844 12.25 C 16.9844 13.1719 16.9844 14.0938 16.9844 15.0156 C 18.3906 15.0156 19.7969 15.0156 21.2031 15.0156 C 21.0935 13.8752 21.0488 12.6699 20.6406 11.8281 C 19.4865 12.0332 18.2751 12.1814 16.9844 12.25 ZM 7.2813 21.3438 C 7.9054 21.0771 8.5765 20.8579 9.2969 20.6875 C 9.0685 19.5098 8.8435 18.3284 8.7813 16.9844 C 7.7813 16.9844 6.7813 16.9844 5.7813 16.9844 C 5.9747 18.7441 6.478 20.1938 7.2813 21.3438 ZM 10.7969 16.9844 C 10.8552 18.1448 11.0417 19.177 11.2656 20.1719 C 12.4785 19.9941 13.6846 19.8096 15.0156 19.75 C 15.0156 18.8281 15.0156 17.9063 15.0156 16.9844 C 13.6094 16.9844 12.2031 16.9844 10.7969 16.9844 ZM 16.9844 16.9844 C 16.9844 17.9063 16.9844 18.8281 16.9844 19.75 C 18.3154 19.8096 19.5215 19.9941 20.7344 20.1719 C 20.9583 19.177 21.1448 18.1448 21.2031 16.9844 C 19.7969 16.9844 18.3906 16.9844 16.9844 16.9844 ZM 23.2188 16.9844 C 23.1565 18.3284 22.9315 19.5098 22.7031 20.6875 C 23.4443 20.8525 24.101 21.1021 24.7656 21.3438 C 25.4919 20.1326 26.0461 18.7493 26.2188 16.9844 C 25.2188 16.9844 24.2188 16.9844 23.2188 16.9844 ZM 11.9219 22.0938 C 12.5894 23.6763 13.45 25.0657 15.0156 25.75 C 15.0156 24.4219 15.0156 23.0938 15.0156 21.7656 C 13.9229 21.8135 12.9373 21.9685 11.9219 22.0938 ZM 16.9844 21.7656 C 17.0156 23.0781 16.9219 24.5156 17.0313 25.75 C 18.5424 25.0269 19.4252 23.6753 20.0781 22.0938 C 19.0627 21.9685 18.0771 21.8135 16.9844 21.7656 ZM 8.5469 22.9844 C 9.236 23.8267 10.2269 24.6167 11.2188 25 C 10.6254 24.3433 10.3632 23.3555 9.8594 22.6094 C 9.3936 22.7061 9.0083 22.8833 8.5469 22.9844 ZM 22.0469 22.6094 C 21.7134 23.5103 21.2813 24.3125 20.7813 25.0469 C 21.8315 24.519 22.7512 23.8606 23.4531 22.9844 C 22.9563 22.8875 22.5837 22.6665 22.0469 22.6094 Z" fill="#000000"/>
	</g>
</svg>