<?xml version="1.0" standalone="no"?>
<!-- Generator: Adobe Fireworks 10, Export SVG Extension by Aaron Beall (http://fireworks.abeall.com) . Version: 0.6.1  -->
<!DOCTYPE svg PUBLIC "-//W3C//DTD SVG 1.1//EN" "http://www.w3.org/Graphics/SVG/1.1/DTD/svg11.dtd">
<svg id="Untitled-page%201" viewBox="0 0 32 32" style="background-color:#ffffff00" version="1.1"
	xmlns="http://www.w3.org/2000/svg" xmlns:xlink="http://www.w3.org/1999/xlink" xml:space="preserve"
	x="0px" y="0px" width="32px" height="32px"
>
	<g id="Calque%201">
		<g>
			<path d="M 15.7466 4 C 16.251 4 16.7544 4 17.2588 4 C 20.4932 4.6294 23.2765 6.8533 22.978 10.9841 C 22.8625 12.5784 22.0248 14.0542 21.4659 15.4375 C 19.7883 19.582 17.8101 24.124 16.1248 28 C 16.1084 28 16.093 28 16.0779 28 C 14.6387 24.2888 13.0352 19.8689 11.5874 15.9529 C 11.0797 14.5815 10.4685 13.2024 10.1689 11.8281 C 9.2322 7.5308 12.3423 4.498 15.7466 4 ZM 13.4307 7.75 C 12.911 8.3264 12.3979 9.1108 12.3903 10.4219 C 12.3772 12.7419 14.178 14.3394 16.1248 14.4998 C 18.3406 14.6831 20.637 13.1174 20.6151 10.4219 C 20.5933 7.8774 18.5573 6.1252 15.9351 6.4375 C 14.7271 6.5815 13.984 7.1365 13.4307 7.75 Z" fill="#000000"/>
			<path d="M 16.408 8.219 C 17.7871 8.1472 19.0225 9.3359 18.7239 10.8909 C 18.5344 11.8799 17.5387 12.8167 16.1248 12.6248 C 13.7629 12.3044 13.5308 8.3679 16.408 8.219 Z" fill="#000000"/>
		</g>
	</g>
</svg>