<?xml version="1.0" standalone="no"?>
<!-- Generator: Adobe Fireworks 10, Export SVG Extension by Aaron Beall (http://fireworks.abeall.com) . Version: 0.6.1  -->
<!DOCTYPE svg PUBLIC "-//W3C//DTD SVG 1.1//EN" "http://www.w3.org/Graphics/SVG/1.1/DTD/svg11.dtd">
<svg id="Untitled-page%201" viewBox="0 0 32 32" style="background-color:#ffffff00" version="1.1"
	xmlns="http://www.w3.org/2000/svg" xmlns:xlink="http://www.w3.org/1999/xlink" xml:space="preserve"
	x="0px" y="0px" width="32px" height="32px"
>
	<g id="Calque%201">
		<path d="M 9.4285 4 C 13.4961 4 17.5637 4 21.6311 4 C 21.6523 4.0576 21.6931 4.0962 21.7764 4.0938 C 22.1123 4.9766 21.9701 5.9946 21.9701 6.9531 C 21.9701 12.9026 21.9701 19.0713 21.9701 25.0938 C 21.9701 26.0566 22.1116 27.0347 21.7764 27.9063 C 21.6936 27.9043 21.6511 27.9412 21.6311 28 C 17.5637 28 13.4961 28 9.4285 28 C 9.1057 27.7297 9.1245 27.6243 9.0895 27.2969 C 8.8882 25.4163 9.0895 23.4307 9.0895 21.4375 C 9.0895 16.6147 9.0895 11.6147 9.0895 6.7188 C 9.0895 5.7441 8.9426 4.1577 9.4285 4 ZM 11.5107 6.0156 C 11.5107 9.3438 11.5107 12.6719 11.5107 16 C 14.1902 16 16.8695 16 19.5491 16 C 19.5491 12.625 19.5491 9.25 19.5491 5.875 C 16.8857 5.875 14.2224 5.875 11.5591 5.875 C 11.5027 5.8828 11.5066 5.949 11.5107 6.0156 ZM 11.5107 18.25 C 11.4009 18.6907 11.4922 19.3259 11.4622 19.8438 C 12.011 19.8438 12.5598 19.8438 13.1086 19.8438 C 13.1086 19.3281 13.1086 18.8125 13.1086 18.2969 C 12.6694 18.1907 12.0297 18.2788 11.5107 18.25 ZM 14.755 18.25 C 14.6453 18.6907 14.7366 19.3259 14.7065 19.8438 C 15.2554 19.8438 15.8042 19.8438 16.353 19.8438 C 16.353 19.3281 16.353 18.8125 16.353 18.2969 C 15.9138 18.1907 15.2739 18.2788 14.755 18.25 ZM 17.9995 18.25 C 17.8896 18.6907 17.981 19.3259 17.9509 19.8438 C 18.4998 19.8438 19.0486 19.8438 19.5974 19.8438 C 19.5974 19.3281 19.5974 18.8125 19.5974 18.2969 C 19.1582 18.1907 18.5186 18.2788 17.9995 18.25 ZM 11.4622 22.5625 C 12.011 22.5625 12.5598 22.5625 13.1086 22.5625 C 13.1086 22.0313 13.1086 21.5 13.1086 20.9688 C 12.5598 20.9688 12.011 20.9688 11.4622 20.9688 C 11.4622 21.5 11.4622 22.0313 11.4622 22.5625 ZM 14.7065 22.5625 C 15.2554 22.5625 15.8042 22.5625 16.353 22.5625 C 16.353 22.0313 16.353 21.5 16.353 20.9688 C 15.8042 20.9688 15.2554 20.9688 14.7065 20.9688 C 14.7065 21.5 14.7065 22.0313 14.7065 22.5625 ZM 17.9509 22.5625 C 18.4998 22.5625 19.0486 22.5625 19.5974 22.5625 C 19.5974 22.0313 19.5974 21.5 19.5974 20.9688 C 19.0486 20.9688 18.4998 20.9688 17.9509 20.9688 C 17.9509 21.5 17.9509 22.0313 17.9509 22.5625 ZM 11.5107 23.6406 C 11.4009 24.0813 11.4922 24.7166 11.4622 25.2344 C 12.011 25.2344 12.5598 25.2344 13.1086 25.2344 C 13.1086 24.7188 13.1086 24.2031 13.1086 23.6875 C 12.6694 23.5813 12.0297 23.6694 11.5107 23.6406 ZM 14.755 23.6406 C 14.6453 24.0813 14.7366 24.7166 14.7065 25.2344 C 15.2554 25.2344 15.8042 25.2344 16.353 25.2344 C 16.353 24.7188 16.353 24.2031 16.353 23.6875 C 15.9138 23.5813 15.2739 23.6694 14.755 23.6406 ZM 17.9995 23.6406 C 17.8896 24.0813 17.981 24.7166 17.9509 25.2344 C 18.4998 25.2344 19.0486 25.2344 19.5974 25.2344 C 19.5974 24.7188 19.5974 24.2031 19.5974 23.6875 C 19.1582 23.5813 18.5186 23.6694 17.9995 23.6406 Z" fill="#000000"/>
	</g>
</svg>