<?xml version="1.0" standalone="no"?>
<!-- Generator: Adobe Fireworks 10, Export SVG Extension by Aaron Beall (http://fireworks.abeall.com) . Version: 0.6.1  -->
<!DOCTYPE svg PUBLIC "-//W3C//DTD SVG 1.1//EN" "http://www.w3.org/Graphics/SVG/1.1/DTD/svg11.dtd">
<svg id="Untitled-page%201" viewBox="0 0 281 119" style="background-color:#ffffff00" version="1.1"
	xmlns="http://www.w3.org/2000/svg" xmlns:xlink="http://www.w3.org/1999/xlink" xml:space="preserve"
	x="0px" y="0px" width="281px" height="119px"
>
	<defs>
		<filter id="filter1" x="-100%" y="-100%" width="300%" height="300%">
			<!-- Ombre portée -->
			<feOffset result="out" in="SourceGraphic" dx="1.4142" dy="1.4142"/>
			<feColorMatrix result="out" in="out" type="matrix" values="0 0 0 0 0  0 0 0 0 0  0 0 0 0 0  0 0 0 0.651 0"/>
			<feGaussianBlur result="out" in="out" stdDeviation="4"/>
			<feBlend in="SourceGraphic" in2="out" mode="normal" result="Ombre_portée1"/>
		</filter>
	</defs>
	<g id="Calque%201">
		<path d="M 4 29 L 176 29 L 213 66 " stroke="#ffffff" stroke-width="2" fill="none"/>
		<g filter="url(#filter1)">
			<path d="M 3.0801 22 L 8.0203 22 C 14.7545 22 17.4586 19.3479 17.4586 12.7177 C 17.4586 6.0874 14.7545 3.4353 8.0203 3.4353 L 3.0801 3.4353 L 3.0801 22 L 3.0801 22 ZM 4.9781 20.1799 L 4.9781 5.2554 L 8.0203 5.2554 C 13.3505 5.2554 15.4825 7.3875 15.4825 12.7177 C 15.4825 18.0479 13.3505 20.1799 8.0203 20.1799 L 4.9781 20.1799 L 4.9781 20.1799 Z" fill="#ffffff"/>
			<path d="M 21.8081 8.2455 C 22.4581 8.2455 23.0302 7.6995 23.0302 6.9974 C 23.0302 6.3734 22.4581 5.8014 21.8081 5.8014 C 21.1061 5.8014 20.5601 6.3734 20.5601 6.9974 C 20.5601 7.6995 21.1061 8.2455 21.8081 8.2455 L 21.8081 8.2455 ZM 20.9241 22 L 22.7441 22 L 22.7441 10.5596 L 20.9241 10.5596 L 20.9241 22 L 20.9241 22 Z" fill="#ffffff"/>
			<path d="M 29.8622 22 L 31.7603 22 L 36.4664 10.5596 L 34.5684 10.5596 L 30.8242 19.6859 L 27.0541 10.5596 L 25.156 10.5596 L 29.8622 22 L 29.8622 22 Z" fill="#ffffff"/>
			<path d="M 49.7665 16.3058 C 49.7665 13.0557 47.0884 10.3776 43.8383 10.3776 C 40.5881 10.3776 37.91 13.0557 37.91 16.3058 C 37.91 19.5039 40.5881 22.286 43.8383 22.286 C 46.1523 22.286 48.2064 20.96 49.1685 18.9839 L 47.0104 18.9839 C 46.2823 19.9199 45.1643 20.5699 43.8383 20.5699 C 41.8102 20.5699 40.1721 19.0099 39.8081 17.1118 L 49.7665 17.1118 L 49.7665 16.3058 L 49.7665 16.3058 ZM 43.8383 12.0936 C 45.8403 12.0936 47.4784 13.5497 47.8684 15.4478 L 39.8081 15.4478 C 40.1981 13.5497 41.8102 12.0936 43.8383 12.0936 L 43.8383 12.0936 Z" fill="#ffffff"/>
			<path d="M 54.5621 10.5596 L 52.8201 10.5596 L 52.8201 22 L 54.5621 22 L 54.5621 15.6818 C 54.5621 13.3417 56.4082 12.0936 58.4363 12.0936 L 58.4363 10.3776 C 56.8502 10.3776 55.4982 11.0536 54.5621 12.1196 L 54.5621 10.5596 L 54.5621 10.5596 Z" fill="#ffffff"/>
			<path d="M 66.8123 12.1456 L 66.8123 10.5596 L 64.2382 10.5596 L 64.2382 6.0614 L 62.4961 6.0614 L 62.4961 10.5596 L 60.78 10.5596 L 60.78 12.1456 L 62.4961 12.1456 L 62.4961 22 L 64.2382 22 L 64.2382 12.1456 L 66.8123 12.1456 L 66.8123 12.1456 Z" fill="#ffffff"/>
			<path d="M 70.8081 8.2455 C 71.4581 8.2455 72.0302 7.6995 72.0302 6.9974 C 72.0302 6.3734 71.4581 5.8014 70.8081 5.8014 C 70.1061 5.8014 69.5601 6.3734 69.5601 6.9974 C 69.5601 7.6995 70.1061 8.2455 70.8081 8.2455 L 70.8081 8.2455 ZM 69.9241 22 L 71.7441 22 L 71.7441 10.5596 L 69.9241 10.5596 L 69.9241 22 L 69.9241 22 Z" fill="#ffffff"/>
			<path d="M 83.3864 13.3677 C 83.2043 11.6256 81.6963 10.3776 79.4342 10.3776 C 76.8341 10.3776 75.4821 11.7816 75.4821 13.5237 C 75.4821 15.3438 76.7041 16.3318 79.4342 16.8778 C 81.5143 17.2938 82.2423 17.6578 82.2423 18.7499 C 82.2423 19.7899 81.1243 20.5439 79.4342 20.5439 C 77.9521 20.5439 76.7821 19.7119 76.6261 18.7499 L 75.04 18.7499 C 75.144 20.752 76.8601 22.182 79.4342 22.182 C 82.2943 22.182 83.8284 20.752 83.8284 18.7499 C 83.8284 16.8518 82.6583 15.8378 79.7202 15.2397 C 77.8481 14.8757 77.0941 14.3817 77.0941 13.5237 C 77.0941 12.6656 78.0562 12.0156 79.4342 12.0156 C 80.7863 12.0156 81.6443 12.5876 81.8003 13.3677 L 83.3864 13.3677 L 83.3864 13.3677 Z" fill="#ffffff"/>
			<path d="M 95.3864 13.3677 C 95.2043 11.6256 93.6963 10.3776 91.4342 10.3776 C 88.8341 10.3776 87.4821 11.7816 87.4821 13.5237 C 87.4821 15.3438 88.7041 16.3318 91.4342 16.8778 C 93.5143 17.2938 94.2423 17.6578 94.2423 18.7499 C 94.2423 19.7899 93.1243 20.5439 91.4342 20.5439 C 89.9521 20.5439 88.7821 19.7119 88.6261 18.7499 L 87.04 18.7499 C 87.144 20.752 88.8601 22.182 91.4342 22.182 C 94.2943 22.182 95.8284 20.752 95.8284 18.7499 C 95.8284 16.8518 94.6583 15.8378 91.7202 15.2397 C 89.8481 14.8757 89.0941 14.3817 89.0941 13.5237 C 89.0941 12.6656 90.0562 12.0156 91.4342 12.0156 C 92.7863 12.0156 93.6443 12.5876 93.8003 13.3677 L 95.3864 13.3677 L 95.3864 13.3677 Z" fill="#ffffff"/>
			<path d="M 110.7665 16.3058 C 110.7665 13.0557 108.0884 10.3776 104.8383 10.3776 C 101.5881 10.3776 98.91 13.0557 98.91 16.3058 C 98.91 19.5039 101.5881 22.286 104.8383 22.286 C 107.1523 22.286 109.2064 20.96 110.1685 18.9839 L 108.0104 18.9839 C 107.2823 19.9199 106.1643 20.5699 104.8383 20.5699 C 102.8102 20.5699 101.1721 19.0099 100.8081 17.1118 L 110.7665 17.1118 L 110.7665 16.3058 L 110.7665 16.3058 ZM 104.8383 12.0936 C 106.8403 12.0936 108.4784 13.5497 108.8684 15.4478 L 100.8081 15.4478 C 101.1981 13.5497 102.8102 12.0936 104.8383 12.0936 L 104.8383 12.0936 Z" fill="#ffffff"/>
			<path d="M 126.5865 10.3776 C 124.8705 10.3776 123.5184 11.1836 122.7124 12.5876 C 122.1144 11.0276 120.8663 10.3776 118.8643 10.3776 C 117.4342 10.3776 116.2642 10.9496 115.4321 11.9376 L 115.4321 10.5596 L 113.6901 10.5596 L 113.6901 22 L 115.4321 22 L 115.4321 16.0458 C 115.4321 13.2637 116.7582 12.0936 118.8643 12.0936 C 120.5543 12.0936 121.4124 13.2117 121.4124 15.4738 L 121.4124 22 L 123.1544 22 L 123.1544 16.0458 C 123.1544 13.2637 124.4805 12.0936 126.5865 12.0936 C 128.2766 12.0936 129.1346 13.2117 129.1346 15.4738 L 129.1346 22 L 130.8767 22 L 130.8767 15.4738 C 130.8767 11.8336 129.5507 10.3776 126.5865 10.3776 L 126.5865 10.3776 Z" fill="#ffffff"/>
			<path d="M 145.7665 16.3058 C 145.7665 13.0557 143.0884 10.3776 139.8383 10.3776 C 136.5881 10.3776 133.91 13.0557 133.91 16.3058 C 133.91 19.5039 136.5881 22.286 139.8383 22.286 C 142.1523 22.286 144.2064 20.96 145.1685 18.9839 L 143.0104 18.9839 C 142.2823 19.9199 141.1643 20.5699 139.8383 20.5699 C 137.8102 20.5699 136.1721 19.0099 135.8081 17.1118 L 145.7665 17.1118 L 145.7665 16.3058 L 145.7665 16.3058 ZM 139.8383 12.0936 C 141.8403 12.0936 143.4784 13.5497 143.8684 15.4478 L 135.8081 15.4478 C 136.1981 13.5497 137.8102 12.0936 139.8383 12.0936 L 139.8383 12.0936 Z" fill="#ffffff"/>
			<path d="M 148.8201 22 L 150.5621 22 L 150.5621 15.9158 C 150.5621 13.3417 151.9922 12.0416 154.3063 12.0936 C 156.2043 12.0936 157.2444 13.2117 157.2444 15.4738 L 157.2444 22 L 158.9865 22 L 158.9865 15.4738 C 158.9865 11.8336 157.5824 10.3776 154.3063 10.3776 C 152.7462 10.3776 151.4722 10.9496 150.5621 11.9376 L 150.5621 10.5596 L 148.8201 10.5596 L 148.8201 22 L 148.8201 22 Z" fill="#ffffff"/>
			<path d="M 167.8123 12.1456 L 167.8123 10.5596 L 165.2382 10.5596 L 165.2382 6.0614 L 163.4961 6.0614 L 163.4961 10.5596 L 161.78 10.5596 L 161.78 12.1456 L 163.4961 12.1456 L 163.4961 22 L 165.2382 22 L 165.2382 12.1456 L 167.8123 12.1456 L 167.8123 12.1456 Z" fill="#ffffff"/>
		</g>
		<path id="Ellipse" d="M 280.5 82 C 280.5 61.5652 263.9348 45 243.5 45 C 223.0652 45 206.5 61.5652 206.5 82 C 206.5 102.4348 223.0652 119 243.5 119 C 263.9348 119 280.5 102.4348 280.5 82 Z" fill="#0581b5"/>
		<g>
			<g>
				<path d="M 241.5967 73.1495 C 244.0248 71.9405 246.9412 72.9282 249.4385 74.031 C 252.059 75.1881 255.7501 78.17 253.0653 81.5725 C 251.8138 83.1585 249.119 84.2498 246.6938 85.0984 C 245.8245 85.4026 244.6154 86.0225 243.7532 85.6861 C 243.0266 85.4026 242.5947 84.0831 242.8711 83.2375 C 243.2446 82.0942 245.4119 81.6697 246.5959 81.1808 C 248.1212 80.5508 249.353 80.0432 250.2227 79.026 C 249.8459 78.3904 249.1157 78.108 248.4583 77.7528 C 248.4583 78.3405 248.4583 78.9281 248.4583 79.5157 C 247.042 80.8723 243.2617 80.7674 242.283 82.6499 C 241.4691 84.215 242.3671 86.269 243.8513 86.5676 C 245.8064 86.9609 246.7323 85.4909 248.4583 85.3923 C 248.4583 87.9061 248.4583 90.4199 248.4583 92.9338 C 247.0532 92.9338 245.6483 92.9338 244.2434 92.9338 C 244.2434 92.4114 244.2434 91.889 244.2434 91.3667 C 243.7131 91.0803 242.7502 91.2262 242.283 90.877 C 241.2377 91.6608 240.533 92.785 239.6362 93.7173 C 242.4429 94.2801 248.929 92.4974 249.8306 94.8926 C 251.3066 98.8139 244.5942 97.8309 241.4988 97.8309 C 238.2295 97.8309 232.2952 98.9326 233.0688 95.1865 C 233.2751 94.188 235.6133 91.9438 236.3036 91.1708 C 237.4095 89.9326 238.6138 88.7572 239.7344 87.3511 C 239.7344 83.7599 239.7344 80.1687 239.7344 76.5775 C 237.5613 74.4383 234.8569 71.3214 235.1273 66.2936 C 235.2485 64.0417 236.3801 59.4052 238.068 59.0459 C 239.3149 58.7805 240.5232 59.7056 240.5186 60.8088 C 240.5151 61.6322 239.8115 62.4067 239.4402 63.3553 C 238.0498 66.9087 239.0562 71.3232 241.5967 73.1495 Z" fill="#ffffff"/>
				<path d="M 243.2632 64.9224 C 248.3124 63.9102 249.2517 71.585 244.4395 71.9742 C 240.0945 72.3256 238.9648 65.7842 243.2632 64.9224 Z" fill="#ffffff"/>
			</g>
			<path d="M 248.2622 98.5165 C 248.7927 98.8224 248.5563 99.6545 248.5563 100.1815 C 248.5563 101.7357 249.0708 104.6584 248.5563 105.9601 C 247.9493 107.4958 245.1628 107.2464 244.6355 105.7642 C 243.9768 103.9131 244.759 100.5537 244.3413 98.6144 C 245.6331 98.5666 247.1272 98.7209 248.2622 98.5165 Z" fill="#ffffff"/>
		</g>
	</g>
</svg>