<?xml version="1.0" encoding="utf-8"?>
<!-- Generator: Adobe Illustrator 16.0.0, SVG Export Plug-In . SVG Version: 6.00 Build 0)  -->
<!DOCTYPE svg PUBLIC "-//W3C//DTD SVG 1.1//EN" "http://www.w3.org/Graphics/SVG/1.1/DTD/svg11.dtd">
<svg version="1.1" id="Calque_1" xmlns="http://www.w3.org/2000/svg" xmlns:xlink="http://www.w3.org/1999/xlink" x="0px" y="0px"
	 width="32px" height="32px" viewBox="0 0 32 32" enable-background="new 0 0 32 32" xml:space="preserve">
<g>
	<path fill="#0E80B5" d="M9.383,25.393c0.29-0.807,0.566-1.572,0.858-2.385c1.189,0.729,2.418,1.229,3.754,1.404
		c1.226,0.163,2.445,0.186,3.601-0.379c2.112-1.031,2.579-3.65,0.944-5.338c-0.781-0.805-1.776-1.269-2.779-1.725
		c-1.08-0.49-2.18-0.955-3.199-1.553c-2.06-1.21-3.143-3.01-2.803-5.446c0.335-2.402,1.835-3.863,4.073-4.635
		c0.051-0.018,0.104-0.034,0.156-0.051c1.031-0.318,1.031-0.318,1.031-1.44c0-0.765,0-1.53,0-2.328c0.751,0,1.455,0,2.208,0
		c0,1.111,0,2.202,0,3.345c1.627,0.144,3.178,0.418,4.603,1.293c-0.291,0.772-0.578,1.532-0.817,2.167
		c-1.205-0.334-2.337-0.765-3.507-0.935c-0.86-0.125-1.797-0.023-2.649,0.185c-1.106,0.271-1.83,1.074-2.032,2.222
		c-0.203,1.154,0.138,2.176,1.125,2.846c0.781,0.53,1.641,0.949,2.48,1.388c1.147,0.601,2.364,1.086,3.454,1.775
		c2.08,1.317,2.979,3.301,2.678,5.728c-0.305,2.438-1.756,4.034-4.02,4.911c-0.355,0.138-0.727,0.258-1.102,0.315
		c-0.338,0.054-0.412,0.21-0.408,0.515c0.012,1.06,0.004,2.119,0.004,3.209c-0.756,0-1.463,0-2.223,0c0-1.146,0-2.291,0-3.5
		C12.883,26.843,11.051,26.497,9.383,25.393z"/>
</g>
</svg>
