<?xml version="1.0" standalone="no"?>
<!-- Generator: Adobe Fireworks 10, Export SVG Extension by Aaron Beall (http://fireworks.abeall.com) . Version: 0.6.1  -->
<!DOCTYPE svg PUBLIC "-//W3C//DTD SVG 1.1//EN" "http://www.w3.org/Graphics/SVG/1.1/DTD/svg11.dtd">
<svg id="Untitled-page%201" viewBox="0 0 32 32" style="background-color:#ffffff00" version="1.1"
	xmlns="http://www.w3.org/2000/svg" xmlns:xlink="http://www.w3.org/1999/xlink" xml:space="preserve"
	x="0px" y="0px" width="32px" height="32px"
>
	<g id="Calque%201">
		<path d="M 15.0891 4 C 15.7012 4 16.3132 4 16.9253 4 C 17.7537 4.4932 17.199 6.3282 17.3601 7.4688 C 18.368 7.5539 19.5161 7.5156 20.646 7.5156 C 21.7688 7.5156 22.9285 7.4053 23.8352 7.6563 C 23.9971 8.2661 23.9902 9.4827 23.8352 10.0938 C 21.884 10.3104 19.5201 10.1266 17.4084 10.1875 C 17.2961 10.5004 17.3921 11.0153 17.3601 11.4063 C 18.4656 11.4063 19.5039 11.4063 20.7427 11.4063 C 21.5771 11.4063 23.5074 11.1901 23.8352 11.6406 C 24.048 11.933 24.0618 13.5732 23.8352 13.8906 C 23.5093 14.3474 21.6771 14.125 20.7427 14.125 C 19.4788 14.125 18.4031 14.125 17.4084 14.125 C 17.2961 14.4379 17.3921 14.9528 17.3601 15.3438 C 18.1555 15.3438 19.0405 15.3438 19.9695 15.3438 C 20.8131 15.3438 21.8257 15.179 22.5305 15.3438 C 22.785 15.4032 23.9221 16.3029 23.9319 16.6563 C 23.9396 16.9376 22.8542 17.942 22.5789 18.0156 C 21.8875 18.2003 20.8198 18.0156 19.9695 18.0156 C 19.0415 18.0156 18.1804 18.0156 17.4084 18.0156 C 17.3215 20.1561 17.3601 23.0233 17.3601 25.5625 C 17.3601 26.3577 17.5557 27.8706 16.9253 28 C 16.3132 28 15.7012 28 15.0891 28 C 14.4001 27.5961 14.6542 26.2022 14.6542 25.0938 C 14.6542 22.762 14.6542 20.2095 14.6542 18.0156 C 13.575 18.0156 12.583 18.0156 11.3684 18.0156 C 10.543 18.0156 8.6079 18.2435 8.2274 17.8281 C 7.8933 17.4635 8.0037 15.6345 8.2758 15.4375 C 8.5072 15.2699 9.2849 15.3438 9.7737 15.3438 C 11.3977 15.3438 13.2128 15.3438 14.6542 15.3438 C 14.6542 14.9375 14.6542 14.5313 14.6542 14.125 C 13.8751 14.125 13.0162 14.125 12.0931 14.125 C 11.2423 14.125 10.189 14.2991 9.4838 14.125 C 9.1876 14.0519 8.0825 13.0719 8.0825 12.7656 C 8.0825 12.5361 8.554 12.1676 8.7107 12.0156 C 8.9653 11.7687 9.2454 11.4678 9.532 11.4063 C 10.2524 11.2516 11.2588 11.4063 12.0931 11.4063 C 13.0134 11.4063 13.8672 11.4063 14.6542 11.4063 C 14.6542 11 14.6542 10.5938 14.6542 10.1875 C 12.5264 10.1266 10.1464 10.3104 8.1792 10.0938 C 8.21 9.4908 7.7611 8.1248 8.1792 7.6563 C 8.385 7.4254 9.1614 7.5156 9.677 7.5156 C 11.3606 7.5156 13.3325 7.5156 14.6542 7.5156 C 14.8177 6.3618 14.2571 4.5054 15.0891 4 ZM 15.5723 5.5 C 15.6135 6.2633 16.9856 5.6523 16.2004 5.0781 C 15.7684 5.0203 15.5575 5.2275 15.5723 5.5 Z" fill="#000000"/>
	</g>
</svg>