<?xml version="1.0" standalone="no"?>
<!-- Generator: Adobe Fireworks 10, Export SVG Extension by Aaron Beall (http://fireworks.abeall.com) . Version: 0.6.1  -->
<!DOCTYPE svg PUBLIC "-//W3C//DTD SVG 1.1//EN" "http://www.w3.org/Graphics/SVG/1.1/DTD/svg11.dtd">
<svg id="Untitled-page%201" viewBox="0 0 32 32" style="background-color:#ffffff00" version="1.1"
	xmlns="http://www.w3.org/2000/svg" xmlns:xlink="http://www.w3.org/1999/xlink" xml:space="preserve"
	x="0px" y="0px" width="32px" height="32px"
>
	<g id="Calque%201">
		<g>
			<path d="M 15.4238 4 C 16.1399 4 16.8558 4 17.5719 4 C 22.8366 4.6421 26.3042 7.3871 28.0682 11.4071 C 29.0178 13.5713 29.293 16.5037 28.6541 18.955 C 27.5217 23.2985 24.1091 26.5956 19.5247 27.6747 C 16.9833 28.2728 13.9658 28.0236 11.7135 27.1122 C 7.5274 25.4182 4.6683 22.0885 4 17.0328 C 4 16.3452 4 15.6576 4 14.9701 C 4.9989 8.6156 8.8073 4.9597 15.4238 4 ZM 11.7623 7.5629 C 10.6382 8.1526 9.7716 8.9047 9.0284 9.7194 C 7.5303 11.3619 6.3112 13.5983 6.5875 16.8453 C 6.824 19.6257 8.1287 21.6742 9.9072 23.1742 C 11.6243 24.6222 14.1669 25.7555 17.3278 25.5182 C 20.2932 25.2955 22.3507 24.0377 23.9185 22.3302 C 25.4695 20.6412 26.6967 18.3163 26.4572 15.2045 C 26.2407 12.3927 24.7137 10.2175 23.1373 8.8756 C 21.4453 7.4351 18.8713 6.2441 15.668 6.4847 C 14.2422 6.5917 12.8075 7.0146 11.7623 7.5629 Z" fill="#000000"/>
			<path d="M 16.6932 17.2203 C 16.6676 19.1733 16.727 21.3274 16.6932 23.3617 C 16.6903 23.5331 16.8469 23.9957 16.4979 24.0179 C 16.1469 23.9764 16.3037 23.5146 16.3026 23.3148 C 16.2921 21.4218 16.3105 19.192 16.3026 17.2672 C 15.7535 17.0131 15.2123 16.7515 15.2285 15.9545 C 14.2148 15.0873 13.1942 14.3136 12.0553 13.3761 C 11.7474 13.1227 11.1537 12.7396 11.1277 12.3916 C 11.103 12.0623 11.5345 11.5117 11.9576 11.5009 C 12.3459 11.491 12.8062 11.9839 13.1293 12.251 C 14.1288 13.077 15.2887 14.0297 16.205 14.7826 C 16.533 14.78 16.8744 14.7648 17.0349 14.9232 C 17.8644 14.3302 18.8453 13.7097 19.8176 13.048 C 20.7883 12.3873 21.6599 11.649 22.5515 11.1727 C 22.9556 10.9569 23.4891 11.3219 23.4791 11.7352 C 23.4684 12.1793 22.4684 12.7007 22.161 12.9073 C 20.6511 13.9222 19.2076 14.8719 17.7672 15.8607 C 17.796 16.6854 17.335 17.0397 16.6932 17.2203 Z" fill="#000000"/>
		</g>
	</g>
</svg>