<?xml version="1.0" standalone="no"?>
<!-- Generator: Adobe Fireworks 10, Export SVG Extension by Aaron Beall (http://fireworks.abeall.com) . Version: 0.6.1  -->
<!DOCTYPE svg PUBLIC "-//W3C//DTD SVG 1.1//EN" "http://www.w3.org/Graphics/SVG/1.1/DTD/svg11.dtd">
<svg id="Untitled-page%201" viewBox="0 0 32 32" style="background-color:#ffffff00" version="1.1"
	xmlns="http://www.w3.org/2000/svg" xmlns:xlink="http://www.w3.org/1999/xlink" xml:space="preserve"
	x="0px" y="0px" width="32px" height="32px"
>
	<g id="Calque%201">
		<path d="M 15.1326 5.0117 C 18.4161 4.855 21.0431 6.2971 22.7441 7.9153 C 24.4241 9.5132 25.8365 11.9705 25.9878 15.1528 C 26.1476 18.5176 24.7144 21.0359 23.0902 22.7805 C 21.3594 24.6399 18.8838 25.8418 15.8246 25.9875 C 12.5476 26.144 10.0344 24.7983 8.2562 23.1272 C 6.4084 21.3906 5.1658 19.1355 5.0127 15.8896 C 4.8535 12.5161 6.2129 10.0115 7.8237 8.262 C 8.6179 7.3999 9.6575 6.6311 10.8511 6.0518 C 12.0515 5.4695 13.4937 5.0898 15.1326 5.0117 ZM 7.2616 14.416 C 8.1554 14.4448 9.1643 14.3584 9.9862 14.4595 C 9.9862 15.1675 9.9862 15.875 9.9862 16.583 C 9.0779 16.583 8.1697 16.583 7.2616 16.583 C 8.0111 20.5991 10.3899 22.9829 14.3975 23.7341 C 14.3975 22.8237 14.3975 21.9138 14.3975 21.0037 C 15.1183 21.0037 15.839 21.0037 16.5598 21.0037 C 16.5598 21.9138 16.5598 22.8237 16.5598 23.7341 C 20.5674 22.9829 22.946 20.5991 23.6957 16.583 C 22.8019 16.5542 21.7927 16.6406 20.9711 16.5398 C 20.9711 15.832 20.9711 15.124 20.9711 14.416 C 21.8794 14.416 22.7874 14.416 23.6957 14.416 C 22.946 10.4001 20.5674 8.0164 16.5598 7.2651 C 16.5598 8.1753 16.5598 9.0854 16.5598 9.9956 C 15.839 9.9956 15.1183 9.9956 14.3975 9.9956 C 14.3405 9.1138 14.5117 8.0029 14.311 7.2651 C 10.3807 8.0652 7.9965 10.4143 7.2616 14.416 Z" fill="#0581b5"/>
	</g>
</svg>