<?xml version="1.0" encoding="utf-8"?>
<!-- Generator: Adobe Illustrator 16.0.0, SVG Export Plug-In . SVG Version: 6.00 Build 0)  -->
<!DOCTYPE svg PUBLIC "-//W3C//DTD SVG 1.1//EN" "http://www.w3.org/Graphics/SVG/1.1/DTD/svg11.dtd">
<svg version="1.1" id="Calque_1" xmlns="http://www.w3.org/2000/svg" xmlns:xlink="http://www.w3.org/1999/xlink" x="0px" y="0px"
	 width="32px" height="32px" viewBox="0 0 32 32" enable-background="new 0 0 32 32" xml:space="preserve">
<g>
	<path fill="#0E80B5" d="M18.559,28.848c0-0.852,0-1.656,0-2.49c-1.718,0-3.403,0-5.136,0c0,0.838,0,1.652,0,2.496
		c-2.623,0-5.197,0-7.806,0c0-7.707,0-15.414,0-23.174c1.266,0,2.535,0,3.853,0c0-0.869,0-1.686,0-2.532c4.352,0,8.653,0,13.024,0
		c0,0.817,0,1.645,0,2.524c1.334,0,2.602,0,3.889,0c0,7.751,0,15.447,0,23.177C23.795,28.848,21.209,28.848,18.559,28.848z
		 M14.642,17.264c0-0.861,0-1.678,0-2.508c-0.853,0-1.678,0-2.494,0c0,0.856,0,1.673,0,2.508
		C12.982,17.264,13.784,17.264,14.642,17.264z M19.842,17.254c0-0.869,0-1.685,0-2.508c-0.848,0-1.664,0-2.496,0
		c0,0.848,0,1.666,0,2.508C18.189,17.254,19.004,17.254,19.842,17.254z M12.148,9.578c0,0.872,0,1.688,0,2.497
		c0.851,0,1.667,0,2.492,0c0-0.849,0-1.663,0-2.497C13.795,9.578,12.979,9.578,12.148,9.578z M17.348,9.571c0,0.857,0,1.672,0,2.512
		c0.844,0,1.66,0,2.494,0c0-0.849,0-1.675,0-2.512C19.002,9.571,18.197,9.571,17.348,9.571z M14.646,19.924
		c-0.873,0-1.687,0-2.502,0c0,0.854,0,1.668,0,2.492c0.846,0,1.662,0,2.502,0C14.646,21.576,14.646,20.762,14.646,19.924z
		 M19.842,22.418c0-0.865,0-1.682,0-2.498c-0.848,0-1.664,0-2.498,0c0,0.846,0,1.66,0,2.498
		C18.188,22.418,19.004,22.418,19.842,22.418z"/>
</g>
</svg>
