<?xml version="1.0" standalone="no"?>
<!-- Generator: Adobe Fireworks 10, Export SVG Extension by Aaron Beall (http://fireworks.abeall.com) . Version: 0.6.1  -->
<!DOCTYPE svg PUBLIC "-//W3C//DTD SVG 1.1//EN" "http://www.w3.org/Graphics/SVG/1.1/DTD/svg11.dtd">
<svg id="Untitled-page%201" viewBox="0 0 195 119" style="background-color:#ffffff00" version="1.1"
	xmlns="http://www.w3.org/2000/svg" xmlns:xlink="http://www.w3.org/1999/xlink" xml:space="preserve"
	x="0px" y="0px" width="195px" height="119px"
>
	<g id="Calque%201">
		<path id="Ellipse" d="M 0 82 C 0 61.5652 16.5652 45 37 45 C 57.4348 45 74 61.5652 74 82 C 74 102.4348 57.4348 119 37 119 C 16.5652 119 0 102.4348 0 82 Z" fill="#ffffff"/>
		<g>
			<path d="M 40.4688 61.2147 C 43.5659 62.8131 46.7836 64.6182 50.0424 66.359 C 51.0792 66.913 52.3178 67.7912 53.1835 67.9759 C 55.3906 68.4471 59.4636 67.2042 60.5125 68.5638 C 61.3931 69.7066 60.8117 74.5643 60.8117 76.6478 C 60.8117 83.0718 60.8117 86.6012 60.8117 93.4047 C 60.8117 96.1358 61.3362 100.3945 60.363 101.3417 C 59.6459 102.0389 56.361 101.7827 54.8288 101.7827 C 44.5419 101.7827 35.546 101.7827 24.9132 101.7827 C 22.0965 101.7827 14.5786 102.5524 13.5455 101.1947 C 12.5275 99.8571 13.2465 95.0894 13.2465 93.1107 C 13.2465 85.4061 13.2465 80.3425 13.2465 72.3853 C 13.2465 71.1102 13.0025 69.2684 13.5455 68.5638 C 14.5683 67.2391 18.4965 68.3948 20.7251 67.9759 C 21.6572 67.8013 22.9013 66.9424 24.0157 66.359 C 27.0988 64.7477 30.3745 62.8066 33.4389 61.3617 C 31.9991 55.8076 41.885 55.3418 40.4688 61.2147 ZM 34.3363 62.8315 C 31.0624 64.5135 27.7784 66.1863 24.614 67.9759 C 32.8405 67.8785 41.4662 68.1724 49.4442 67.8289 C 46.0179 66.2966 43.0247 64.3381 39.5713 62.8315 C 38.4888 64.2407 35.4806 64.0275 34.3363 62.8315 ZM 16.3875 71.6504 C 16.3875 80.6172 16.3875 89.5831 16.3875 98.549 C 30.1482 98.549 43.9099 98.549 57.6707 98.549 C 57.6707 89.4362 57.6707 80.3224 57.6707 71.2094 C 43.9594 71.2094 30.2483 71.2094 16.537 71.2094 C 16.3632 71.2343 16.3744 71.4419 16.3875 71.6504 Z" fill="#0581b5"/>
			<path d="M 29.2507 73.5612 C 29.6705 73.8358 29.8276 74.3668 29.9987 74.884 C 30.6521 74.7811 30.8419 75.1348 31.4944 75.031 C 31.2373 75.5133 30.7054 75.7255 30.4474 76.2068 C 30.6661 76.4824 30.4539 77.1815 30.7466 77.3827 C 30.3716 77.7897 29.8192 77.1273 29.5499 76.9417 C 28.9273 77.0161 28.6777 77.4562 28.0542 77.5297 C 28.517 76.1995 27.7615 75.8201 27.3063 75.031 C 28.5244 75.1017 29.0853 74.5258 29.2507 73.5612 Z" fill="#0581b5"/>
			<path d="M 34.3363 73.5612 C 34.756 73.8358 34.914 74.3668 35.0841 74.884 C 35.7375 74.7811 35.9274 75.1348 36.5799 75.031 C 36.4686 75.6079 35.9891 75.822 35.5328 76.0598 C 35.6385 76.5449 35.774 76.9996 35.832 77.5297 C 35.2776 77.4387 34.957 77.1172 34.4858 76.9417 C 34.0156 77.1172 33.695 77.4387 33.1397 77.5297 C 33.6548 76.2509 32.8153 75.7889 32.3918 75.031 C 33.61 75.1017 34.1708 74.5258 34.3363 73.5612 Z" fill="#0581b5"/>
			<path d="M 39.5713 73.5612 C 39.9257 73.9001 40.05 74.4633 40.3192 74.884 C 40.9362 74.7692 41.0876 75.11 41.6654 75.031 C 41.2428 75.7889 40.4034 76.2509 40.9175 77.5297 C 40.4361 77.4158 40.0341 77.2228 39.7209 76.9417 C 39.0984 77.0161 38.8488 77.4562 38.2252 77.5297 C 38.3084 77.0722 38.3477 76.5724 38.5243 76.2068 C 38.2579 75.7346 37.5409 75.7043 37.4774 75.031 C 38.0933 75.1468 38.2458 74.8059 38.8235 74.884 C 39.1778 74.546 39.3021 73.9828 39.5713 73.5612 Z" fill="#0581b5"/>
			<path d="M 44.6578 73.5612 C 45.0111 73.9001 45.1364 74.4633 45.4057 74.884 C 46.0217 74.7692 46.1731 75.11 46.7518 75.031 C 46.2965 75.8201 45.5412 76.1995 46.0039 77.5297 C 45.4486 77.4387 45.128 77.1172 44.6578 76.9417 C 44.1436 77.074 44.0071 77.5775 43.3116 77.5297 C 43.8594 76.4521 43.4079 75.5959 42.5637 75.1779 C 42.8881 74.9584 43.4051 74.9281 43.9099 74.884 C 44.2632 74.546 44.3885 73.9828 44.6578 73.5612 Z" fill="#0581b5"/>
			<path d="M 22.5199 81.0573 C 20.712 81.7582 19.5098 84.0236 20.2763 86.3495 C 19.2958 86.2843 18.5432 85.9949 18.1824 85.3206 C 18.2637 81.0389 21.3318 79.694 25.661 79.5874 C 25.2722 81.41 24.8982 83.2473 24.4645 85.0267 C 25.0159 85.3666 26.2079 85.0772 27.0071 85.1736 C 27.4765 83.3805 27.9121 81.5551 28.2038 79.5874 C 29.2013 79.5874 30.1987 79.5874 31.1953 79.5874 C 30.1753 84.2192 29.1189 88.8161 28.2038 93.5516 C 27.2073 93.5516 26.2098 93.5516 25.2122 93.5516 C 25.7919 91.3772 26.2229 89.0567 26.7081 86.7905 C 26.2061 86.4506 25.0655 86.739 24.3148 86.6435 C 23.4997 88.6838 23.2426 91.2725 22.6696 93.5516 C 21.7226 93.5516 20.7755 93.5516 19.8276 93.5516 C 20.6353 89.2983 21.5776 85.1773 22.5199 81.0573 Z" fill="#0581b5"/>
			<path d="M 55.8758 80.4693 C 55.3766 84.1953 54.0547 87.8882 53.7817 91.3469 C 54.0921 91.876 54.4791 91.662 55.1279 91.6409 C 55.2439 94.2755 50.637 94.3582 50.7903 91.6409 C 49.8966 93.4055 44.9775 94.9388 43.9099 92.2288 C 42.9742 92.6027 42.7535 93.3027 41.9655 93.5516 C 38.1766 94.744 38.128 90.6055 39.2722 87.8193 C 39.0553 87.6154 38.2691 88.0995 37.7764 88.1133 C 37.2231 91.3772 36.4902 93.8346 32.9901 93.6986 C 31.515 93.6407 30.3361 92.701 30.1482 91.2 C 29.6845 87.485 32.9976 83.3373 36.1312 83.9978 C 37.0921 84.1999 37.9513 85.3078 37.9261 86.9374 C 38.6814 87.0421 39.0188 86.7363 39.5713 86.6435 C 39.5825 86.0657 39.6442 85.5384 39.8705 85.1736 C 39.9191 84.7832 39.0328 85.3105 39.2722 84.7327 C 40.078 84.0539 40.3781 82.8789 40.6184 81.6452 C 41.4831 81.4173 42.6133 81.4504 43.4612 81.2043 C 43.364 82.2358 43.2079 83.2106 42.8629 83.9978 C 42.9358 84.4645 44.211 83.7507 44.0595 84.4388 C 44.009 85.0267 43.4678 85.1314 42.7133 85.0267 C 42.3656 87.281 41.5877 89.1146 41.5158 91.6409 C 43.1349 92.0892 43.4285 91.0107 43.6108 89.4362 C 43.9642 86.3762 46.8013 82.4003 50.6407 84.7327 C 51.339 87.9342 49.159 89.5363 46.4527 89.8771 C 46.3526 90.7094 46.5892 91.2128 46.7518 91.7878 C 52.8843 92.6652 51.3185 84.7171 53.0339 80.7633 C 54.1108 80.7936 54.7979 80.4399 55.8758 80.4693 ZM 46.7518 88.7012 C 48.4756 88.5643 49.6255 86.6903 48.9955 85.1736 C 47.4389 85.5549 47.1987 87.2296 46.7518 88.7012 ZM 35.2338 85.3206 C 33.8511 86.6343 32.8368 89.0016 33.2892 91.6409 C 36.7379 91.9128 35.4627 87.7311 36.1312 85.6146 C 35.8657 85.4832 35.7516 85.204 35.2338 85.3206 Z" fill="#0581b5"/>
		</g>
	</g>
</svg>