<?xml version="1.0" standalone="no"?>
<!-- Generator: Adobe Fireworks 10, Export SVG Extension by Aaron Beall (http://fireworks.abeall.com) . Version: 0.6.1  -->
<!DOCTYPE svg PUBLIC "-//W3C//DTD SVG 1.1//EN" "http://www.w3.org/Graphics/SVG/1.1/DTD/svg11.dtd">
<svg id="Untitled-page%201" viewBox="0 0 48 48" style="background-color:#ffffff00" version="1.1"
	xmlns="http://www.w3.org/2000/svg" xmlns:xlink="http://www.w3.org/1999/xlink" xml:space="preserve"
	x="0px" y="0px" width="48px" height="48px"
>
	<g id="Calque%201">
		<g>
			<path d="M 39.9009 16.9052 C 37.4792 16.9052 35.2864 16.9052 32.8007 16.9052 C 32.0349 16.9052 31.0708 17.0762 30.4339 16.9052 C 29.9283 16.7694 29.2056 15.7009 28.7708 15.378 C 27.4915 14.4278 25.4091 13.7419 23.3337 13.978 C 20.9493 14.2492 19.5688 15.4312 18.1525 16.9052 C 15.1247 16.9052 12.097 16.9052 9.0693 16.9052 C 9.0693 15.6534 9.0693 14.1077 9.0693 12.3871 C 9.0693 11.1358 8.8294 8.7262 9.4531 8.1872 C 17.8654 7.955 27.2131 8.0599 35.999 8.0599 C 36.9274 8.0599 39.1094 7.8614 39.5811 8.1872 C 40.2709 8.6636 39.9009 11.5667 39.9009 12.3871 C 39.9009 14.058 39.9009 15.4918 39.9009 16.9052 ZM 12.5234 9.4599 C 12.5234 11.4538 12.5234 13.4477 12.5234 15.4416 C 12.8646 15.4416 13.2057 15.4416 13.5469 15.4416 C 13.5469 13.4477 13.5469 11.4538 13.5469 9.4599 C 13.2057 9.4599 12.8646 9.4599 12.5234 9.4599 ZM 14.3145 9.4599 C 14.3145 11.4538 14.3145 13.4477 14.3145 15.4416 C 14.6556 15.4416 14.9968 15.4416 15.3379 15.4416 C 15.3379 13.4477 15.3379 11.4538 15.3379 9.4599 C 14.9968 9.4599 14.6556 9.4599 14.3145 9.4599 ZM 16.1695 9.4599 C 16.1695 11.4538 16.1695 13.4477 16.1695 15.4416 C 16.4893 15.4416 16.8092 15.4416 17.129 15.4416 C 17.129 13.4477 17.129 11.4538 17.129 9.4599 C 16.8092 9.4599 16.4893 9.4599 16.1695 9.4599 ZM 31.9691 10.6053 C 31.7583 11.2563 31.7117 13.445 31.9691 14.2961 C 32.3639 15.6015 33.504 15.4416 35.1034 15.4416 C 36.6821 15.4416 37.9122 15.5348 38.3018 14.2961 C 38.5873 13.3879 38.5388 11.1866 38.2378 10.478 C 38.0275 9.9832 37.4615 9.6033 37.2143 9.5235 C 36.4355 9.2721 33.9563 9.361 33.2484 9.5235 C 32.7638 9.6348 32.1462 10.0584 31.9691 10.6053 ZM 11.6279 9.6508 C 10.0578 10.3373 10.8669 13.3905 10.6684 15.4416 C 11.0096 15.4416 11.3507 15.4416 11.6919 15.4416 C 11.6493 13.5325 11.7771 11.4538 11.6279 9.6508 Z" fill="#0581b5"/>
			<path d="M 23.8454 14.8052 C 27.8462 14.5355 31.399 17.5984 31.0096 22.2505 C 30.8329 24.362 29.7158 25.9875 28.2591 27.0232 C 24.5192 29.6819 19.5217 27.636 18.0245 24.2869 C 16.3593 20.5618 18.5516 16.8335 21.0949 15.5052 C 21.8284 15.1222 22.6923 14.883 23.8454 14.8052 ZM 20.3913 17.9233 C 19.6197 18.7596 19.0186 19.525 18.92 21.1688 C 18.8348 22.5903 19.4114 24.06 20.1994 24.9869 C 23.1748 28.4867 29.869 26.4956 29.6024 21.2324 C 29.4459 18.1455 26.842 15.88 23.5896 16.2688 C 22.1411 16.442 21.1743 17.0747 20.3913 17.9233 Z" fill="#0581b5"/>
			<path d="M 9.1332 18.0506 C 11.9051 18.0506 14.6769 18.0506 17.4488 18.0506 C 15.6744 21.2086 17.2046 25.3211 19.1759 27.1505 C 23.8401 31.4788 31.8933 28.0295 31.9051 21.5506 C 31.9078 20.1288 31.5259 19.245 31.0736 18.0506 C 34.016 18.0506 36.9585 18.0506 39.9009 18.0506 C 39.9009 24.4238 39.9009 29.9878 39.9009 36.5048 C 39.9009 37.3848 39.9545 38.5378 39.5811 38.7957 C 39.0492 39.163 36.9005 38.923 35.871 38.923 C 28.076 38.923 20.9039 38.923 13.0352 38.923 C 12.0999 38.923 9.9036 39.151 9.3891 38.7957 C 8.7783 38.3738 9.0693 34.9561 9.0693 33.8958 C 9.0693 28.4899 9.0693 23.4924 9.0693 18.2415 C 9.0638 18.1513 9.0587 18.0613 9.1332 18.0506 Z" fill="#0581b5"/>
		</g>
	</g>
</svg>