<?xml version="1.0" standalone="no"?>
<!-- Generator: Adobe Fireworks 10, Export SVG Extension by Aaron Beall (http://fireworks.abeall.com) . Version: 0.6.1  -->
<!DOCTYPE svg PUBLIC "-//W3C//DTD SVG 1.1//EN" "http://www.w3.org/Graphics/SVG/1.1/DTD/svg11.dtd">
<svg id="Untitled-page%201" viewBox="0 0 48 48" style="background-color:#ffffff00" version="1.1"
	xmlns="http://www.w3.org/2000/svg" xmlns:xlink="http://www.w3.org/1999/xlink" xml:space="preserve"
	x="0px" y="0px" width="48px" height="48px"
>
	<g id="Calque%201">
		<g>
			<path d="M 12.2651 2.9729 C 12.8146 2.9729 13.3641 2.9729 13.9144 2.9729 C 17.7415 3.7192 19.8615 7.3879 19.5596 11.8213 C 19.3518 14.8584 17.7712 17.5464 15.6265 18.6758 C 15.2636 18.8665 14.8532 18.8882 14.6116 19.1741 C 13.9416 19.9705 14.0526 21.8926 14.2316 23.2874 C 14.419 24.7493 15.0313 25.9407 15.1831 27.0261 C 15.3815 28.4521 15.1831 30.2485 15.1831 31.9478 C 15.1831 35.3718 15.1831 38.1611 15.1831 41.7317 C 15.1831 44.1045 15.6248 46.6504 13.7236 47.0288 C 13.3014 47.0288 12.8783 47.0288 12.455 47.0288 C 10.5284 46.697 10.9965 44.0347 10.9965 41.6069 C 10.9965 38.1396 10.9965 35.3606 10.9965 31.8862 C 10.9965 30.2087 10.821 28.4441 10.9965 27.0261 C 11.0949 26.2329 11.5562 25.3223 11.7579 24.3457 C 12.0556 22.9041 12.4305 20.3413 11.5672 19.2366 C 11.1848 18.7468 10.2621 18.5334 9.7915 18.1768 C 7.9624 16.793 7.1297 14.9097 6.62 12.1953 C 6.62 11.4473 6.62 10.7 6.62 9.9519 C 7.1533 6.3003 8.7315 3.677 12.2651 2.9729 ZM 8.1422 11.7588 C 8.1422 14.3481 9.8296 16.3982 11.2501 17.3669 C 9.9687 15.4175 9.0826 13.0398 9.2208 9.9519 C 9.2539 9.1995 9.2097 8.0947 9.2208 7.584 C 8.6399 8.802 8.1422 10.2324 8.1422 11.7588 Z" fill="#0581b5"/>
			<path d="M 39.095 2 C 39.095 16.1045 39.095 30.2073 39.095 44.3115 C 38.7864 45.1277 38.0876 45.896 36.8122 45.6812 C 35.0619 45.3882 35.4197 43.5566 35.3519 41.4438 C 35.2841 39.2898 35.2892 37.1482 35.2892 35.0259 C 35.2892 33.9126 35.1382 32.728 35.2892 31.7236 C 35.3604 31.2451 35.5775 30.8235 35.6691 30.4155 C 36.2135 28.0093 35.1264 26.353 33.2591 25.8667 C 33.3489 21.2166 33.4965 16.5269 34.2105 12.4063 C 34.9279 8.2773 35.8794 4.4712 38.3336 2 C 38.5878 2 38.8406 2 39.095 2 Z" fill="#0581b5"/>
			<path d="M 22.7938 2.748 C 23.1322 2.748 23.4705 2.748 23.8089 2.748 C 23.6911 6.5789 23.5834 10.4204 23.4282 14.2141 C 23.7249 14.3584 24.294 14.2351 24.6976 14.2759 C 24.6976 10.4333 24.6976 6.5906 24.6976 2.748 C 25.0775 2.748 25.4575 2.748 25.839 2.748 C 25.839 6.5906 25.839 10.4333 25.839 14.2759 C 26.1562 14.2759 26.4734 14.2759 26.7905 14.2759 C 26.938 10.5579 26.8108 6.5703 26.8533 2.748 C 27.2128 2.748 27.5724 2.748 27.9319 2.748 C 27.9319 6.5498 27.9319 10.3503 27.9319 14.1516 C 28.2288 14.2959 28.7986 14.1733 29.2006 14.2141 C 29.0835 10.4026 28.9513 6.6072 28.8834 2.748 C 29.2633 2.748 29.6449 2.748 30.0247 2.748 C 30.3539 5.2952 30.6659 8.136 30.9763 10.8494 C 31.1916 12.7212 31.4087 14.2556 30.5319 15.647 C 30.0079 16.4802 29.1395 17.0383 28.629 17.8904 C 28.0744 18.8171 27.764 19.905 27.6775 21.0056 C 27.5266 22.9385 28.1761 24.1462 28.3118 25.9917 C 28.5306 28.9478 28.3118 32.2615 28.3118 35.3374 C 28.3118 36.79 28.3118 38.4631 28.3118 40.011 C 28.3118 42.3503 28.7867 45.3145 26.8533 45.6812 C 25.6016 45.9194 24.835 45.2346 24.5704 44.5598 C 24.1549 43.5034 24.4432 41.324 24.4432 39.9492 C 24.4432 36.6799 24.4432 33.8376 24.4432 30.5405 C 24.4432 28.9727 24.2788 27.3213 24.4432 25.8667 C 24.6451 24.0774 25.4218 23.2507 25.2675 21.1306 C 25.1318 19.2561 24.2414 17.8005 23.1746 16.7058 C 22.3835 15.8953 21.5176 14.8167 21.4617 13.2168 C 21.4032 11.531 21.8789 9.7849 22.096 8.0452 C 22.3079 6.3503 22.4538 4.6377 22.7303 2.9348 C 22.7252 2.8467 22.7201 2.759 22.7938 2.748 Z" fill="#0581b5"/>
		</g>
	</g>
</svg>