<?xml version="1.0" standalone="no"?>
<!-- Generator: Adobe Fireworks 10, Export SVG Extension by Aaron Beall (http://fireworks.abeall.com) . Version: 0.6.1  -->
<!DOCTYPE svg PUBLIC "-//W3C//DTD SVG 1.1//EN" "http://www.w3.org/Graphics/SVG/1.1/DTD/svg11.dtd">
<svg id="icon_slenh-page%201" viewBox="0 0 36 36" style="background-color:#ffffff00" version="1.1"
	xmlns="http://www.w3.org/2000/svg" xmlns:xlink="http://www.w3.org/1999/xlink" xml:space="preserve"
	x="0px" y="0px" width="36px" height="36px"
>
	<g id="Calque%201">
		<path d="M 17.376 6.0262 C 20.8378 5.7747 23.6904 7.3728 25.4613 9.0786 C 27.2542 10.8057 28.7705 13.5116 28.9765 16.8677 C 29.205 20.5884 27.7314 23.422 26.064 25.3411 C 24.2775 27.3972 21.7332 28.7434 18.5814 28.9724 C 15.1721 29.2204 12.4484 27.7633 10.5461 25.9727 C 8.5683 24.11 7.2722 21.6176 7.0309 18.1834 C 6.7715 14.4825 8.1843 11.6635 9.8434 9.7102 C 10.6481 8.7625 11.7118 7.9194 12.9569 7.2366 C 14.1457 6.5844 15.7822 6.1419 17.376 6.0262 ZM 21.1928 13.9204 C 21.5591 10.1702 17.2264 9.4137 14.7646 11.1313 C 14.9088 11.6465 15.1226 12.0893 15.2667 12.6048 C 16.2907 11.8585 18.5686 11.5879 19.0836 12.9206 C 19.2773 13.4224 19.2537 14.1342 19.0331 14.7099 C 18.3313 16.5429 15.9293 17.8401 16.5727 20.8677 C 17.1582 20.8677 17.7443 20.8677 18.3303 20.8677 C 17.8497 17.4184 20.9221 16.6891 21.1928 13.9204 ZM 16.3716 22.8675 C 15.2604 24.5543 17.9267 26.1724 18.6314 24.3936 C 19.0914 23.2332 18.2509 22.1333 17.1249 22.3939 C 16.6875 22.4951 16.5085 22.6599 16.3716 22.8675 Z" fill="#ffffff"/>
	</g>
</svg>