<?xml version="1.0" standalone="no"?>
<!-- Generator: Adobe Fireworks 10, Export SVG Extension by Aaron Beall (http://fireworks.abeall.com) . Version: 0.6.1  -->
<!DOCTYPE svg PUBLIC "-//W3C//DTD SVG 1.1//EN" "http://www.w3.org/Graphics/SVG/1.1/DTD/svg11.dtd">
<svg id="Untitled-page%201" viewBox="0 0 48 48" style="background-color:#ffffff00" version="1.1"
	xmlns="http://www.w3.org/2000/svg" xmlns:xlink="http://www.w3.org/1999/xlink" xml:space="preserve"
	x="0px" y="0px" width="48px" height="48px"
>
	<g id="Calque%201">
		<path d="M 39.5817 13.214 C 41.0447 13.1184 42.6164 12.3904 44 11.9292 C 43.0505 13.7988 41.6938 15.2577 39.9215 16.2979 C 40.198 23.7613 37.355 29.8058 33.4641 34.2014 C 29.8371 38.2987 24.6667 40.6675 18.0849 40.9688 C 12.4099 41.2288 7.9375 39.8518 5 37.2854 C 10.2373 37.8366 13.7732 35.9779 16.6405 33.8588 C 12.4491 33.6873 10.524 31.2307 9.2483 28.1195 C 10.309 28.3488 11.5336 28.1111 12.5621 28.0337 C 9.2111 26.5865 6.5567 24.4369 6.5294 19.6389 C 7.5758 20.0973 8.5423 20.6362 9.9281 20.7524 C 8.6294 19.4324 6.7448 17.4889 6.5294 14.6703 C 6.3879 12.8183 6.9938 11.2595 7.549 9.7018 C 11.722 13.9183 16.1288 17.8988 24.1176 18.2682 C 23.0399 12.0775 27.7634 7.3451 33.1242 8.0742 C 35.1707 8.3527 36.4322 9.4311 37.7124 10.6441 C 39.7767 10.384 41.266 9.5441 42.8105 8.7596 C 42.2043 10.7183 41.2042 12.28 39.5817 13.214 Z" fill="#0581b5"/>
	</g>
</svg>