<?xml version="1.0" standalone="no"?>
<!-- Generator: Adobe Fireworks 10, Export SVG Extension by Aaron Beall (http://fireworks.abeall.com) . Version: 0.6.1  -->
<!DOCTYPE svg PUBLIC "-//W3C//DTD SVG 1.1//EN" "http://www.w3.org/Graphics/SVG/1.1/DTD/svg11.dtd">
<svg id="Untitled-page%201" viewBox="0 0 36 36" style="background-color:#ffffff00" version="1.1"
	xmlns="http://www.w3.org/2000/svg" xmlns:xlink="http://www.w3.org/1999/xlink" xml:space="preserve"
	x="0px" y="0px" width="36px" height="36px"
>
	<g id="Calque%201">
		<g>
			<path d="M 9.1249 19.4775 C 8.4102 18.7138 7.2085 18.4454 6.306 17.8727 C 6.1583 21.499 6.6021 25.8023 6.0805 29.2205 C 4.6139 29.7366 5.0657 27.9568 5.0657 26.4695 C 5.0657 19.843 4.8862 11.6042 5.2912 5.8372 C 6.7111 5.2761 6.306 7.2493 6.306 8.4736 C 6.306 11.171 6.306 14.9428 6.306 17.0704 C 7.0833 16.9044 8.2853 16.1794 9.1249 15.6949 C 9.6391 11.1126 7.5341 5.6469 11.6055 5.1495 C 14.3583 4.8132 17.0607 5.1495 20.6261 5.1495 C 24.2221 5.1495 28.9923 4.4914 29.7593 6.6396 C 30.2245 7.9423 29.8721 10.5676 29.8721 12.1415 C 29.8721 16.1458 29.8721 19.079 29.8721 23.3747 C 29.8721 25.266 30.0844 28.0195 29.5338 28.8766 C 28.5196 30.4555 23.4501 29.9083 20.175 29.9083 C 18.349 29.9083 16.8464 29.9083 14.9882 29.9083 C 13.0455 29.9083 10.5861 30.1254 9.6887 29.1059 C 7.9102 27.0855 9.8521 22.8392 9.1249 19.4775 ZM 10.8163 13.1732 C 10.8163 17.7581 10.8163 22.3431 10.8163 26.928 C 16.6044 26.928 22.3926 26.928 28.1808 26.928 C 28.1808 22.2284 28.1808 17.5289 28.1808 12.8293 C 22.4678 12.8293 16.7547 12.8293 11.0418 12.8293 C 10.9 12.8763 10.8113 12.977 10.8163 13.1732 Z" fill="#ffffff"/>
			<path d="M 13.2969 16.3826 C 17.4313 16.459 21.8663 16.2298 25.8129 16.4972 C 25.8129 16.7647 25.8129 17.0322 25.8129 17.2996 C 22.0789 17.8287 17.3548 17.3803 13.1841 17.5289 C 13.2548 17.1805 13.0398 16.5416 13.2969 16.3826 Z" fill="#ffffff"/>
			<path d="M 13.2969 19.936 C 17.4313 20.0123 21.8663 19.7832 25.8129 20.0506 C 25.8129 20.318 25.8129 20.5856 25.8129 20.853 C 22.0789 21.3821 17.3548 20.9337 13.1841 21.0822 C 13.2548 20.7339 13.0398 20.0949 13.2969 19.936 Z" fill="#ffffff"/>
			<path d="M 13.2969 23.4893 C 17.4313 23.5657 21.8663 23.3365 25.8129 23.6039 C 25.8129 23.8713 25.8129 24.1389 25.8129 24.4063 C 22.0789 24.9354 17.3548 24.487 13.1841 24.6356 C 13.2548 24.2872 13.0398 23.6483 13.2969 23.4893 Z" fill="#ffffff"/>
		</g>
	</g>
</svg>