<?xml version="1.0" standalone="no"?>
<!-- Generator: Adobe Fireworks 10, Export SVG Extension by Aaron Beall (http://fireworks.abeall.com) . Version: 0.6.1  -->
<!DOCTYPE svg PUBLIC "-//W3C//DTD SVG 1.1//EN" "http://www.w3.org/Graphics/SVG/1.1/DTD/svg11.dtd">
<svg id="Untitled-page%201" viewBox="0 0 48 48" style="background-color:#ffffff00" version="1.1"
	xmlns="http://www.w3.org/2000/svg" xmlns:xlink="http://www.w3.org/1999/xlink" xml:space="preserve"
	x="0px" y="0px" width="48px" height="48px"
>
	<g id="Calque%201">
		<path d="M 32 8.0056 C 32 9.8984 32 11.7913 32 13.6843 C 30.1558 13.9492 27.7795 13.04 27.0694 14.446 C 26.5676 15.4399 27.1544 17.0898 26.9305 18.6011 C 28.6206 18.6011 30.3103 18.6011 32 18.6011 C 31.8347 20.4446 31.6528 22.2715 31.375 24.0029 C 29.9166 24.0029 28.4583 24.0029 26.9999 24.0029 C 26.838 29.1965 26.9769 34.6904 26.9305 40 C 24.6852 40 22.4399 40 20.1945 40 C 20.1945 34.6675 20.1945 29.335 20.1945 24.0029 C 19.1296 24.0029 18.0649 24.0029 17 24.0029 C 17 22.2021 17 20.4016 17 18.6011 C 18.0649 18.6011 19.1296 18.6011 20.1945 18.6011 C 19.7088 12.0942 20.7086 8.4861 26.3749 8.075 C 28.1362 7.947 30.0095 8.0264 32 8.0056 Z" fill="#0581b5"/>
	</g>
</svg>