<?xml version="1.0" standalone="no"?>
<!-- Generator: Adobe Fireworks 10, Export SVG Extension by Aaron Beall (http://fireworks.abeall.com) . Version: 0.6.1  -->
<!DOCTYPE svg PUBLIC "-//W3C//DTD SVG 1.1//EN" "http://www.w3.org/Graphics/SVG/1.1/DTD/svg11.dtd">
<svg id="Untitled-page%201" viewBox="0 0 36 36" style="background-color:#ffffff00" version="1.1"
	xmlns="http://www.w3.org/2000/svg" xmlns:xlink="http://www.w3.org/1999/xlink" xml:space="preserve"
	x="0px" y="0px" width="36px" height="36px"
>
	<g id="Calque%201">
		<path d="M 15.6758 23.4176 C 14.9871 24.0279 14.2328 24.8076 13.4704 25.5889 C 12.7639 26.3128 12.0309 27.3894 11.265 27.7602 C 9.4165 28.6551 7.4307 26.9051 8.1515 24.8356 C 8.4565 23.9599 9.5345 23.1525 10.1839 22.487 C 10.935 21.7173 11.6723 21.0636 12.3028 20.2714 C 12.0436 19.7551 11.8213 19.4384 11.6542 19.0307 C 10.5089 16.2367 11.1322 12.8777 12.4758 10.833 C 13.835 8.7646 16.1721 7.2193 18.9622 7.0222 C 21.7547 6.8248 23.8959 7.9722 25.4054 9.415 C 26.9307 10.873 28.0089 13.1112 27.9999 15.7073 C 27.9897 18.6744 26.6369 21.0716 24.6702 22.62 C 22.8606 24.0447 19.704 24.9608 16.8001 23.9493 C 16.4472 23.8264 16.1143 23.6464 15.6758 23.4176 ZM 15.4595 13.2701 C 15.2093 13.7112 14.916 14.4729 14.8541 15.3085 C 14.7229 17.0813 15.4642 18.337 16.3244 19.1636 C 19.0747 21.8068 24.237 20.134 24.1946 15.6187 C 24.1864 14.7515 23.9314 13.9614 23.5459 13.2701 C 22.8196 11.9677 21.2935 10.72 19.0487 10.9659 C 17.2536 11.1626 16.0393 12.2483 15.4595 13.2701 Z" fill="#ffffff"/>
	</g>
</svg>