<?xml version="1.0" standalone="no"?>
<!-- Generator: Adobe Fireworks 10, Export SVG Extension by Aaron Beall (http://fireworks.abeall.com) . Version: 0.6.1  -->
<!DOCTYPE svg PUBLIC "-//W3C//DTD SVG 1.1//EN" "http://www.w3.org/Graphics/SVG/1.1/DTD/svg11.dtd">
<svg id="Untitled-page%201" viewBox="0 0 36 36" style="background-color:#ffffff00" version="1.1"
	xmlns="http://www.w3.org/2000/svg" xmlns:xlink="http://www.w3.org/1999/xlink" xml:space="preserve"
	x="0px" y="0px" width="36px" height="36px"
>
	<g id="Calque%201">
		<g>
			<path d="M 17.1268 6 C 17.724 6 18.3212 6 18.9185 6 C 22.3367 6.2982 23.1087 9.0424 23.0207 12.2344 C 22.9384 15.2146 21.2033 17.8331 18.4941 18.0938 C 15.6687 18.3656 13.815 16.2061 13.2132 13.875 C 12.589 11.4568 13.017 8.3209 14.4863 7.0313 C 15.1954 6.4089 16.0155 6.2063 17.1268 6 Z" fill="#ffffff"/>
			<path d="M 19.673 30 C 18.5727 30 17.4725 30 16.3724 30 C 14.826 29.8926 13.2773 29.6856 11.7515 29.2031 C 10.752 28.8871 8.7631 28.1487 8.5453 27.1407 C 8.4263 26.5902 8.5777 25.8309 8.5924 25.2188 C 8.6394 23.267 8.912 21.4112 9.724 20.2969 C 10.9004 18.6826 13.088 18.2751 15.2879 17.8125 C 16.2484 19.2795 17.0339 20.9205 18.0698 22.3125 C 18.9804 20.8116 19.8195 19.2395 20.8045 17.8125 C 23.2936 18.3442 25.4808 18.7887 26.557 20.7188 C 27.4515 22.3233 27.4455 24.6384 27.5 27.2344 C 25.9571 29.2161 22.9306 29.723 19.673 30 Z" fill="#ffffff"/>
		</g>
	</g>
</svg>