<?xml version="1.0" standalone="no"?>
<!-- Generator: Adobe Fireworks 10, Export SVG Extension by Aaron Beall (http://fireworks.abeall.com) . Version: 0.6.1  -->
<!DOCTYPE svg PUBLIC "-//W3C//DTD SVG 1.1//EN" "http://www.w3.org/Graphics/SVG/1.1/DTD/svg11.dtd">
<svg id="Untitled-page%201" viewBox="0 0 36 36" style="background-color:#ffffff00" version="1.1"
	xmlns="http://www.w3.org/2000/svg" xmlns:xlink="http://www.w3.org/1999/xlink" xml:space="preserve"
	x="0px" y="0px" width="36px" height="36px"
>
	<g id="Calque%201">
		<path d="M 29 11.0999 C 29 11.5017 29 11.9035 29 12.3054 C 28.423 15.4466 25.9666 16.7698 21.7383 16.379 C 21.6381 17.0441 21.7239 17.8891 21.6953 18.6235 C 25.9404 18.2303 28.425 19.54 29 22.6972 C 29 23.099 29 23.5008 29 23.9026 C 28.4441 26.3396 26.7477 28.2357 23.6719 27.9762 C 21.4065 27.7851 19.5224 26.0612 19.332 23.6948 C 19.2615 22.8184 19.3839 21.8882 19.332 20.8682 C 18.444 20.8682 17.556 20.8682 16.668 20.8682 C 16.6211 21.8591 16.7317 22.7514 16.668 23.6117 C 16.4891 26.0271 14.6416 27.7811 12.3281 27.9762 C 9.2523 28.2357 7.5559 26.3396 7 23.9026 C 7 23.5008 7 23.099 7 22.6972 C 7.575 19.54 10.0595 18.2303 14.3047 18.6235 C 14.3047 17.8892 14.3047 17.1548 14.3047 16.4205 C 12.5886 16.3723 11.0011 16.4677 9.8359 15.9633 C 8.2877 15.293 7.3603 14.1094 7 12.3054 C 7 11.9035 7 11.5017 7 11.0999 C 7.4522 8.6456 9.4754 6.753 12.3711 7.0263 C 14.6416 7.2406 16.4889 8.9726 16.668 11.3909 C 16.729 12.2144 16.623 13.1468 16.668 14.1343 C 17.556 14.1343 18.444 14.1343 19.332 14.1343 C 19.3839 13.1144 19.2615 12.1841 19.332 11.3077 C 19.5224 8.9413 21.4065 7.2174 23.6719 7.0263 C 26.7477 6.7668 28.4441 8.6629 29 11.0999 ZM 14.1758 10.8089 C 13.8086 9.8929 12.8461 9.1699 11.5976 9.2709 C 9.5725 9.4348 8.6615 11.892 9.9219 13.3029 C 10.7885 14.2731 12.4745 14.1757 14.3477 14.1343 C 14.2567 12.9314 14.5318 11.6972 14.1758 10.8089 ZM 26.0781 13.3029 C 27.4873 11.7255 26.2536 9.0709 23.9297 9.2709 C 21.7421 9.4592 21.4697 11.5676 21.6523 14.1343 C 23.6353 14.1444 25.1741 14.315 26.0781 13.3029 ZM 16.668 16.379 C 16.668 17.1272 16.668 17.8753 16.668 18.6235 C 17.556 18.6235 18.444 18.6235 19.332 18.6235 C 19.332 17.8754 19.332 17.1272 19.332 16.379 C 18.444 16.379 17.556 16.379 16.668 16.379 ZM 9.3203 23.487 C 9.4086 24.6672 10.4582 25.8206 11.9844 25.7316 C 14.2478 25.5995 14.5277 23.5212 14.3477 20.8682 C 11.5969 20.62 9.1398 21.0734 9.3203 23.487 ZM 21.6523 20.9929 C 21.4598 23.556 21.7964 25.6331 24.0586 25.7316 C 25.6731 25.8019 26.7843 24.512 26.6797 23.1129 C 26.5227 21.0139 24.3694 20.6436 21.6953 20.8682 C 21.6452 20.8752 21.6487 20.9339 21.6523 20.9929 Z" fill="#ffffff"/>
	</g>
</svg>