<?xml version="1.0" standalone="no"?>
<!-- Generator: Adobe Fireworks 10, Export SVG Extension by Aaron Beall (http://fireworks.abeall.com) . Version: 0.6.1  -->
<!DOCTYPE svg PUBLIC "-//W3C//DTD SVG 1.1//EN" "http://www.w3.org/Graphics/SVG/1.1/DTD/svg11.dtd">
<svg id="Untitled-page%201" viewBox="0 0 183 94" style="background-color:#ffffff00" version="1.1"
	xmlns="http://www.w3.org/2000/svg" xmlns:xlink="http://www.w3.org/1999/xlink" xml:space="preserve"
	x="0px" y="0px" width="183px" height="94px"
>
	<defs>
		<linearGradient id="gradient1" x1="52.6996%" y1="80.3247%" x2="52.6996%" y2="221.3933%">
			<stop stop-color="#0581b5" stop-opacity="1" offset="0%"/>
			<stop stop-color="#046d9b" stop-opacity="1" offset="97.2222%"/>
		</linearGradient>
	</defs>
	<g id="Calque%201">
		<g>
			<g>
				<path d="M 0 81.016 L 0 55.2252 L 17.7061 55.2252 L 17.7061 59.5882 L 5.215 59.5882 L 5.215 65.6927 L 15.9972 65.6927 L 15.9972 70.0558 L 5.215 70.0558 L 5.215 81.016 L 0 81.016 Z" fill="#270a0a"/>
				<path d="M 22.0229 81.016 L 22.0229 55.2252 L 32.9988 55.2252 C 35.759 55.2252 37.7646 55.4571 39.0155 55.9202 C 40.2665 56.3837 41.2677 57.2076 42.0196 58.3918 C 42.7709 59.5765 43.147 60.9312 43.147 62.4558 C 43.147 64.3908 42.5771 65.9893 41.4381 67.2495 C 40.2988 68.5109 38.5956 69.3052 36.3288 69.6337 C 37.4562 70.2906 38.3869 71.0119 39.1212 71.7976 C 39.8552 72.5833 40.8447 73.9788 42.09 75.9847 L 45.2436 81.016 L 39.0066 81.016 L 35.2363 75.4041 C 33.8975 73.3982 32.9812 72.1347 32.488 71.6125 C 31.9946 71.0909 31.472 70.7332 30.9201 70.5395 C 30.3676 70.3463 29.493 70.2495 28.2948 70.2495 L 27.2378 70.2495 L 27.2378 81.016 L 22.0229 81.016 ZM 27.2378 66.1327 L 31.0962 66.1327 C 33.5979 66.1327 35.1599 66.0272 35.7825 65.8161 C 36.4049 65.6051 36.8926 65.2415 37.2449 64.7252 C 37.5974 64.209 37.7735 63.564 37.7735 62.7902 C 37.7735 61.9223 37.5413 61.2215 37.0774 60.6877 C 36.6133 60.1542 35.9586 59.8168 35.113 59.6761 C 34.6904 59.6177 33.4217 59.5882 31.3075 59.5882 L 27.2378 59.5882 L 27.2378 66.1327 Z" fill="#270a0a"/>
				<path d="M 47.9038 81.016 L 47.9038 55.2252 L 53.1188 55.2252 L 53.1188 81.016 L 47.9038 81.016 Z" fill="#270a0a"/>
			</g>
			<g>
				<path d="M 56.7655 72.6244 L 61.8396 72.132 C 62.1447 73.8322 62.7643 75.0816 63.6983 75.8792 C 64.632 76.6768 65.8917 77.0751 67.4772 77.0751 C 69.1569 77.0751 70.4222 76.7206 71.274 76.0107 C 72.1254 75.3013 72.5514 74.4718 72.5514 73.5216 C 72.5514 72.9117 72.3723 72.3928 72.014 71.9648 C 71.6556 71.5368 71.0302 71.1639 70.1377 70.8474 C 69.5267 70.6363 68.1348 70.2614 65.9621 69.7213 C 63.1667 69.0298 61.2053 68.1797 60.0776 67.1705 C 58.492 65.7517 57.6992 64.0218 57.6992 61.9807 C 57.6992 60.6674 58.072 59.4386 58.8179 58.2952 C 59.5636 57.1516 60.6385 56.2809 62.042 55.6827 C 63.4455 55.0845 65.1397 54.7855 67.125 54.7855 C 70.3667 54.7855 72.8069 55.4952 74.4453 56.914 C 76.0837 58.3333 76.944 60.2275 77.0264 62.5965 L 71.8114 62.8254 C 71.5881 61.4999 71.1093 60.547 70.3756 59.9664 C 69.6414 59.3858 68.5402 59.0955 67.0722 59.0955 C 65.557 59.0955 64.3705 59.4066 63.5133 60.0281 C 62.961 60.4269 62.6852 60.9604 62.6852 61.629 C 62.6852 62.2388 62.9434 62.761 63.4604 63.1944 C 64.118 63.7464 65.7155 64.3205 68.2524 64.9189 C 70.7896 65.5169 72.666 66.1359 73.8814 66.775 C 75.0972 67.414 76.0485 68.2879 76.7356 69.3961 C 77.4228 70.5043 77.7663 71.8739 77.7663 73.5037 C 77.7663 74.9815 77.355 76.3657 76.533 77.6557 C 75.7109 78.9462 74.548 79.9051 73.0447 80.5322 C 71.541 81.1594 69.6676 81.4732 67.4244 81.4732 C 64.1589 81.4732 61.6516 80.72 59.9015 79.213 C 58.1511 77.706 57.1061 75.5096 56.7655 72.6244 Z" fill="#0581b5"/>
				<path d="M 82.0826 81.016 L 82.0826 55.2252 L 89.8876 55.2252 L 94.5739 72.8176 L 99.2077 55.2252 L 107.0301 55.2252 L 107.0301 81.016 L 102.1852 81.016 L 102.1852 60.7142 L 97.0583 81.016 L 92.037 81.016 L 86.9277 60.7142 L 86.9277 81.016 L 82.0826 81.016 Z" fill="#0581b5"/>
				<path d="M 135.5013 81.016 L 129.8282 81.016 L 127.573 75.1579 L 117.2487 75.1579 L 115.1169 81.016 L 109.5848 81.016 L 119.645 55.2252 L 125.1594 55.2252 L 135.5013 81.016 ZM 125.8993 70.8122 L 122.3404 61.2418 L 118.8519 70.8122 L 125.8993 70.8122 Z" fill="#0581b5"/>
				<path d="M 138.285 81.016 L 138.285 55.2252 L 149.2609 55.2252 C 152.0211 55.2252 154.0267 55.4571 155.2777 55.9202 C 156.5287 56.3837 157.5298 57.2076 158.2817 58.3918 C 159.0331 59.5765 159.4091 60.9312 159.4091 62.4558 C 159.4091 64.3908 158.8394 65.9893 157.7003 67.2495 C 156.5609 68.5109 154.8578 69.3052 152.5909 69.6337 C 153.7184 70.2906 154.6491 71.0119 155.3833 71.7976 C 156.1173 72.5833 157.1069 73.9788 158.3522 75.9847 L 161.5058 81.016 L 155.2688 81.016 L 151.4984 75.4041 C 150.1597 73.3982 149.2434 72.1347 148.7502 71.6125 C 148.2568 71.0909 147.7342 70.7332 147.1822 70.5395 C 146.6298 70.3463 145.7551 70.2495 144.5569 70.2495 L 143.5 70.2495 L 143.5 81.016 L 138.285 81.016 ZM 143.5 66.1327 L 147.3584 66.1327 C 149.86 66.1327 151.4221 66.0272 152.0447 65.8161 C 152.6671 65.6051 153.1548 65.2415 153.507 64.7252 C 153.8596 64.209 154.0356 63.564 154.0356 62.7902 C 154.0356 61.9223 153.8035 61.2215 153.3396 60.6877 C 152.8754 60.1542 152.2208 59.8168 151.3752 59.6761 C 150.9525 59.6177 149.6839 59.5882 147.5697 59.5882 L 143.5 59.5882 L 143.5 66.1327 Z" fill="#0581b5"/>
				<path d="M 170.1385 81.016 L 170.1385 59.5882 L 162.4747 59.5882 L 162.4747 55.2252 L 183 55.2252 L 183 59.5882 L 175.3535 59.5882 L 175.3535 81.016 L 170.1385 81.016 Z" fill="#0581b5"/>
			</g>
			<g id="g4101">
				<path d="M 75.0506 5.7439 C 71.2161 9.572 69.3032 14.5895 69.3045 19.607 L 69.3045 19.607 C 69.3045 29.8535 76.8616 35.2741 76.8616 35.2741 L 76.8616 35.2741 L 83.5609 28.482 C 87.5596 30.9021 92.8347 30.3987 96.2882 26.9493 L 96.2882 26.9493 C 100.3482 22.8953 100.3482 16.3224 96.2882 12.2692 L 96.2882 12.2692 C 92.2291 8.2152 85.6458 8.2152 81.5859 12.2692 L 81.5859 12.2692 C 78.1123 15.7372 77.6211 21.0455 80.0913 25.046 L 80.0913 25.046 L 76.7985 28.3373 C 75.7095 26.8552 73.9318 23.0311 73.9275 19.6719 L 73.9275 19.6719 C 73.9221 15.814 75.3711 11.9505 78.3196 9.0068 L 78.3196 9.0068 C 84.1843 3.1506 93.692 3.1506 99.5554 9.0068 L 99.5554 9.0068 C 105.4193 14.8625 105.4193 24.3568 99.5554 30.2109 L 99.5554 30.2109 C 95.3277 34.4324 89.2077 35.6093 83.9242 33.7454 L 83.9242 33.7454 L 79.7383 37.9047 L 88.657 46.063 L 101.2913 34.8363 C 101.8186 34.4105 102.3332 33.9635 102.823 33.4751 L 102.823 33.4751 C 110.4926 25.817 110.4926 13.4017 102.823 5.7439 L 102.823 5.7439 C 98.9885 1.9145 93.9624 0 88.937 0 L 88.937 0 C 83.9109 0 78.8851 1.9145 75.0506 5.7439 L 75.0506 5.7439 ZM 85.0665 23.4732 C 82.9304 21.3399 82.9304 17.8786 85.0674 15.744 L 85.0674 15.744 C 87.2051 13.6101 90.6698 13.6101 92.8076 15.744 L 92.8076 15.744 C 94.9446 17.8786 94.9446 21.3399 92.8076 23.4732 L 92.8076 23.4732 C 91.7387 24.5411 90.3376 25.0744 88.937 25.0744 L 88.937 25.0744 C 87.536 25.0744 86.1355 24.5411 85.0665 23.4732 L 85.0665 23.4732 Z" fill="url(#gradient1)"/>
			</g>
			<g>
				<path d="M 58.9751 93.8901 L 56.7612 87.7052 L 58.1176 87.7052 L 59.685 92.2825 L 61.2018 87.7052 L 62.5283 87.7052 L 60.3103 93.8901 L 58.9751 93.8901 Z" fill="#000000"/>
				<path d="M 63.1282 93.8901 L 63.1282 87.7052 L 64.3789 87.7052 L 64.3789 93.8901 L 63.1282 93.8901 Z" fill="#000000"/>
				<path d="M 65.2536 91.8777 L 66.4704 91.7598 C 66.5435 92.1673 66.692 92.467 66.9161 92.658 C 67.1399 92.8496 67.442 92.9454 67.8224 92.9454 C 68.2251 92.9454 68.5286 92.8599 68.7328 92.69 C 68.9371 92.5195 69.039 92.3209 69.039 92.0931 C 69.039 91.9465 68.9962 91.822 68.9103 91.7198 C 68.8244 91.6169 68.6743 91.5276 68.4603 91.4519 C 68.314 91.401 67.9801 91.3112 67.4591 91.1819 C 66.7885 91.0157 66.3181 90.8118 66.0477 90.5699 C 65.6676 90.2295 65.4774 89.8145 65.4774 89.3253 C 65.4774 89.0104 65.5668 88.7155 65.7459 88.4417 C 65.9247 88.1673 66.1824 87.9585 66.5189 87.8151 C 66.8554 87.6716 67.2618 87.5997 67.7379 87.5997 C 68.5153 87.5997 69.1005 87.7702 69.4934 88.1105 C 69.8863 88.4509 70.0925 88.9049 70.1122 89.473 L 68.8618 89.5277 C 68.8082 89.2101 68.6933 88.9817 68.5174 88.8421 C 68.3413 88.703 68.0771 88.6333 67.7252 88.6333 C 67.3618 88.6333 67.0773 88.7079 66.8717 88.8573 C 66.7392 88.9525 66.6731 89.0807 66.6731 89.2409 C 66.6731 89.387 66.7351 89.5125 66.8589 89.6165 C 67.0166 89.7485 67.3997 89.8865 68.0083 90.0298 C 68.6166 90.1732 69.0666 90.3215 69.3582 90.4752 C 69.6497 90.6283 69.8779 90.8377 70.0426 91.1034 C 70.2073 91.3696 70.2897 91.6975 70.2897 92.0888 C 70.2897 92.4432 70.1911 92.7749 69.9941 93.0844 C 69.7969 93.394 69.518 93.6239 69.1574 93.7744 C 68.7968 93.9248 68.3475 94 67.8097 94 C 67.0267 94 66.4252 93.8193 66.0055 93.4578 C 65.5858 93.0963 65.3351 92.5698 65.2536 91.8777 Z" fill="#000000"/>
				<path d="M 75.14 93.8901 L 75.14 88.7518 L 73.3021 88.7518 L 73.3021 87.7052 L 78.2242 87.7052 L 78.2242 88.7518 L 76.3907 88.7518 L 76.3907 93.8901 L 75.14 93.8901 Z" fill="#000000"/>
				<path d="M 83.9746 93.8901 L 82.6141 93.8901 L 82.0733 92.4854 L 79.5974 92.4854 L 79.0862 93.8901 L 77.7595 93.8901 L 80.1721 87.7052 L 81.4943 87.7052 L 83.9746 93.8901 ZM 81.6718 91.4433 L 80.8183 89.1484 L 79.9819 91.4433 L 81.6718 91.4433 Z" fill="#000000"/>
				<path d="M 88.3009 93.8901 L 86.087 87.7052 L 87.4433 87.7052 L 89.0107 92.2825 L 90.5276 87.7052 L 91.8542 87.7052 L 89.6361 93.8901 L 88.3009 93.8901 Z" fill="#000000"/>
				<path d="M 92.454 93.8901 L 92.454 87.7052 L 93.7047 87.7052 L 93.7047 93.8901 L 92.454 93.8901 Z" fill="#000000"/>
				<path d="M 94.9297 93.8901 L 94.9297 87.7561 L 96.1804 87.7561 L 96.1804 92.8479 L 99.2898 92.8479 L 99.2898 93.8901 L 94.9297 93.8901 Z" fill="#000000"/>
				<path d="M 100.2154 93.8901 L 100.2154 87.7561 L 101.4661 87.7561 L 101.4661 92.8479 L 104.5755 92.8479 L 104.5755 93.8901 L 100.2154 93.8901 Z" fill="#000000"/>
				<path d="M 105.4669 93.8901 L 105.4669 87.7052 L 110.0596 87.7052 L 110.0596 88.7518 L 106.7177 88.7518 L 106.7177 90.1229 L 109.8274 90.1229 L 109.8274 91.1646 L 106.7177 91.1646 L 106.7177 92.8479 L 110.178 92.8479 L 110.178 93.8901 L 105.4669 93.8901 Z" fill="#000000"/>
			</g>
		</g>
	</g>
</svg>