<?xml version="1.0" standalone="no"?>
<!-- Generator: Adobe Fireworks 10, Export SVG Extension by Aaron Beall (http://fireworks.abeall.com) . Version: 0.6.1  -->
<!DOCTYPE svg PUBLIC "-//W3C//DTD SVG 1.1//EN" "http://www.w3.org/Graphics/SVG/1.1/DTD/svg11.dtd">
<svg id="Untitled-page%201" viewBox="0 0 32 32" style="background-color:#ffffff00" version="1.1"
	xmlns="http://www.w3.org/2000/svg" xmlns:xlink="http://www.w3.org/1999/xlink" xml:space="preserve"
	x="0px" y="0px" width="32px" height="32px"
>
	<g id="Calque%201">
		<g>
			<path d="M 7 10 C 13.0001 10 18.9999 10 25 10 C 25 10.2148 25 10.4299 25 10.645 C 22.0149 12.7734 19.0103 14.8823 16.035 17.021 C 12.9822 14.9375 10.0205 12.7612 7 10.645 C 7 10.4299 7 10.2148 7 10 Z" fill="#0581b5"/>
			<path d="M 7 11.8267 C 9.9999 13.9521 12.9998 16.0781 15.965 18.2388 C 19.0144 16.1399 21.9692 13.9448 25 11.8267 C 25 15.218 25 18.6089 25 22 C 18.9999 22 13.0001 22 7 22 C 7 18.6089 7 15.218 7 11.8267 Z" fill="#0581b5"/>
		</g>
	</g>
</svg>