<?xml version="1.0" standalone="no"?>
<!-- Generator: Adobe Fireworks 10, Export SVG Extension by Aaron Beall (http://fireworks.abeall.com) . Version: 0.6.1  -->
<!DOCTYPE svg PUBLIC "-//W3C//DTD SVG 1.1//EN" "http://www.w3.org/Graphics/SVG/1.1/DTD/svg11.dtd">
<svg id="Untitled-page%201" viewBox="0 0 48 48" style="background-color:#ffffff00" version="1.1"
	xmlns="http://www.w3.org/2000/svg" xmlns:xlink="http://www.w3.org/1999/xlink" xml:space="preserve"
	x="0px" y="0px" width="48px" height="48px"
>
	<g id="Calque%201">
		<path id="Ellipse" d="M 14 17 C 14 11.4771 18.4771 7 24 7 C 29.5229 7 34 11.4771 34 17 C 34 22.5229 29.5229 27 24 27 C 18.4771 27 14 22.5229 14 17 Z" fill="#ffffff"/>
		<path d="M 13.8454 8.6303 C 14.4273 8.0426 15.0095 7.4544 15.5919 6.8663 C 18.2235 4.8522 20.8548 4 23.5809 4 C 26.6289 4 30.1555 5.0665 33.0981 8.4978 C 36.1423 12.0471 36.5015 16.166 35.4999 19.8322 C 34.7795 22.4686 33.5612 25.1992 32.3126 27.9029 C 29.6631 33.6393 26.5241 39.0104 23.5376 44 C 23.4795 43.9408 23.4209 43.8826 23.3628 43.8234 C 20.1859 38.2927 16.5771 32.1106 13.9766 26.2271 C 12.7325 23.4126 11.3374 20.315 11.0508 17.4508 C 10.7527 14.4671 11.7766 11.5221 13.8454 8.6303 ZM 14.6746 12.8205 C 13.3456 15.9492 13.6169 19.8789 16.1591 22.8751 C 18.4461 25.5711 21.2079 26.3591 23.5371 26.3596 C 25.9194 26.3591 28.7161 25.4683 30.9156 22.8751 C 34.527 18.6182 33.9254 11.3841 28.2089 8.1455 C 24.5964 6.0988 19.8516 6.4271 16.5521 10.0416 C 15.7488 10.9214 15.1148 11.7836 14.6746 12.8205 Z" fill="#0581b5"/>
	</g>
</svg>