<?xml version="1.0" standalone="no"?>
<!-- Generator: Adobe Fireworks 10, Export SVG Extension by Aaron Beall (http://fireworks.abeall.com) . Version: 0.6.1  -->
<!DOCTYPE svg PUBLIC "-//W3C//DTD SVG 1.1//EN" "http://www.w3.org/Graphics/SVG/1.1/DTD/svg11.dtd">
<svg id="Untitled-page%201" viewBox="0 0 16 16" style="background-color:#ffffff00" version="1.1"
	xmlns="http://www.w3.org/2000/svg" xmlns:xlink="http://www.w3.org/1999/xlink" xml:space="preserve"
	x="0px" y="0px" width="16px" height="16px"
>
	<g id="Calque%201">
		<path d="M 5.1417 6.6954 C 5.7298 8.5437 6.7957 9.8318 8.526 10.5808 C 8.7655 10.6846 9.0963 10.858 9.278 10.8566 C 9.5296 10.8546 9.9532 10.2192 10.2307 10.0795 C 10.8333 9.7761 11.5407 10.031 12.186 10.2048 C 13.0691 10.4428 13.8929 10.7855 13.9909 11.759 C 14.0681 12.5257 13.638 12.864 13.2389 13.2631 C 13.0072 13.4948 12.8117 13.7573 12.5871 13.8646 C 12.0333 14.1295 10.9718 13.9466 10.2557 13.8145 C 6.702 13.1589 4.209 10.9982 2.9106 8.0741 C 2.5343 7.2268 2.1926 6.1992 2.0582 5.0159 C 1.9959 4.4665 1.9486 3.8379 2.1084 3.4617 C 2.2151 3.2104 2.4868 2.983 2.71 2.7598 C 3.0675 2.4024 3.3319 2.0668 3.9133 2.0078 C 4.6227 1.9358 5.2445 2.3701 5.5177 2.9102 C 5.6533 3.1782 5.7186 3.5226 5.8186 3.8879 C 5.9786 4.4726 6.2069 5.1237 5.9439 5.7178 C 5.7432 6.1713 5.3304 6.3186 5.1417 6.6954 Z" fill="#000000"/>
	</g>
</svg>