<?xml version="1.0" standalone="no"?>
<!-- Generator: Adobe Fireworks 10, Export SVG Extension by Aaron Beall (http://fireworks.abeall.com) . Version: 0.6.1  -->
<!DOCTYPE svg PUBLIC "-//W3C//DTD SVG 1.1//EN" "http://www.w3.org/Graphics/SVG/1.1/DTD/svg11.dtd">
<svg id="Untitled-page%201" viewBox="0 0 16 16" style="background-color:#ffffff00" version="1.1"
	xmlns="http://www.w3.org/2000/svg" xmlns:xlink="http://www.w3.org/1999/xlink" xml:space="preserve"
	x="0px" y="0px" width="16px" height="16px"
>
	<g id="Calque%201">
		<g>
			<path d="M 7.9404 2 C 8.3127 2 8.6851 2 9.0574 2 C 11.795 2.321 13.5982 3.6935 14.5155 5.7036 C 15.0093 6.7856 15.1523 8.2518 14.8201 9.4775 C 14.2313 11.6492 12.4567 13.2978 10.0729 13.8373 C 8.7513 14.1364 7.1822 14.0118 6.011 13.5561 C 3.8343 12.7091 2.3475 11.0443 2 8.5164 C 2 8.1726 2 7.8288 2 7.485 C 2.5194 4.3078 4.4998 2.4799 7.9404 2 ZM 6.0364 3.7814 C 5.4519 4.0763 5.0013 4.4523 4.6148 4.8597 C 3.8357 5.681 3.2018 6.7991 3.3455 8.4227 C 3.4685 9.8129 4.1469 10.8371 5.0718 11.5871 C 5.9646 12.3111 7.2868 12.8778 8.9305 12.7591 C 10.4725 12.6478 11.5424 12.0189 12.3576 11.1651 C 13.1642 10.3206 13.8023 9.1581 13.6777 7.6022 C 13.5651 6.1964 12.7711 5.1088 11.9514 4.4378 C 11.0715 3.7175 9.7331 3.1221 8.0673 3.2424 C 7.326 3.2958 6.5799 3.5073 6.0364 3.7814 Z" fill="#000000"/>
			<path d="M 8.6005 8.6102 C 8.5872 9.5867 8.618 10.6637 8.6005 11.6809 C 8.599 11.7665 8.6804 11.9979 8.4989 12.009 C 8.3164 11.9882 8.3979 11.7573 8.3974 11.6574 C 8.3919 10.7109 8.4015 9.596 8.3974 8.6336 C 8.1119 8.5065 7.8304 8.3757 7.8388 7.9772 C 7.3117 7.5436 6.781 7.1568 6.1887 6.6881 C 6.0286 6.5613 5.7199 6.3698 5.7064 6.1958 C 5.6936 6.0311 5.918 5.7559 6.138 5.7504 C 6.3399 5.7455 6.5792 5.9919 6.7472 6.1255 C 7.267 6.5385 7.8701 7.0148 8.3466 7.3913 C 8.5172 7.39 8.6947 7.3824 8.7782 7.4616 C 9.2095 7.1651 9.7196 6.8549 10.2252 6.524 C 10.7299 6.1937 11.1831 5.8245 11.6468 5.5864 C 11.8569 5.4785 12.1343 5.661 12.1291 5.8676 C 12.1236 6.0897 11.6036 6.3503 11.4437 6.4537 C 10.6586 6.9611 9.908 7.436 9.159 7.9304 C 9.1739 8.3427 8.9342 8.5198 8.6005 8.6102 Z" fill="#000000"/>
		</g>
	</g>
</svg>