<?xml version="1.0" standalone="no"?>
<!-- Generator: Adobe Fireworks 10, Export SVG Extension by Aaron Beall (http://fireworks.abeall.com) . Version: 0.6.1  -->
<!DOCTYPE svg PUBLIC "-//W3C//DTD SVG 1.1//EN" "http://www.w3.org/Graphics/SVG/1.1/DTD/svg11.dtd">
<svg id="Untitled-page%201" viewBox="0 0 84 84" style="background-color:#ffffff00" version="1.1"
	xmlns="http://www.w3.org/2000/svg" xmlns:xlink="http://www.w3.org/1999/xlink" xml:space="preserve"
	x="0px" y="0px" width="84px" height="84px"
>
	<g id="Calque%201">
		<g id="g4101">
			<path d="M 28.0506 24.7439 C 24.2161 28.572 22.3032 33.5895 22.3045 38.6069 L 22.3045 38.6069 C 22.3045 48.8535 29.8616 54.2741 29.8616 54.2741 L 29.8616 54.2741 L 36.5609 47.4821 C 40.5596 49.9022 45.8347 49.3987 49.2882 45.9493 L 49.2882 45.9493 C 53.3482 41.8953 53.3482 35.3224 49.2882 31.2692 L 49.2882 31.2692 C 45.2291 27.2152 38.6458 27.2152 34.5859 31.2692 L 34.5859 31.2692 C 31.1123 34.7372 30.6211 40.0455 33.0913 44.046 L 33.0913 44.046 L 29.7985 47.3373 C 28.7095 45.8552 26.9318 42.0311 26.9275 38.6719 L 26.9275 38.6719 C 26.9221 34.814 28.3711 30.9504 31.3196 28.0068 L 31.3196 28.0068 C 37.1843 22.1506 46.692 22.1506 52.5554 28.0068 L 52.5554 28.0068 C 58.4193 33.8625 58.4193 43.3568 52.5554 49.2109 L 52.5554 49.2109 C 48.3277 53.4324 42.2077 54.6093 36.9242 52.7455 L 36.9242 52.7455 L 32.7383 56.9047 L 41.657 65.063 L 54.2913 53.8363 C 54.8186 53.4105 55.3332 52.9635 55.823 52.4752 L 55.823 52.4752 C 63.4926 44.817 63.4926 32.4017 55.823 24.7439 L 55.823 24.7439 C 51.9885 20.9144 46.9624 19 41.937 19 L 41.937 19 C 36.9109 19 31.8851 20.9144 28.0506 24.7439 L 28.0506 24.7439 ZM 38.0665 42.4732 C 35.9304 40.3398 35.9304 36.8787 38.0674 34.744 L 38.0674 34.744 C 40.2051 32.6101 43.6698 32.6101 45.8076 34.744 L 45.8076 34.744 C 47.9446 36.8787 47.9446 40.3398 45.8076 42.4732 L 45.8076 42.4732 C 44.7387 43.5411 43.3376 44.0743 41.937 44.0743 L 41.937 44.0743 C 40.536 44.0743 39.1355 43.5411 38.0665 42.4732 L 38.0665 42.4732 Z" fill="#ffffff"/>
		</g>
	</g>
</svg>