<?xml version="1.0" standalone="no"?>
<!-- Generator: Adobe Fireworks 10, Export SVG Extension by Aaron Beall (http://fireworks.abeall.com) . Version: 0.6.1  -->
<!DOCTYPE svg PUBLIC "-//W3C//DTD SVG 1.1//EN" "http://www.w3.org/Graphics/SVG/1.1/DTD/svg11.dtd">
<svg id="Untitled-page%201" viewBox="0 0 227 91" style="background-color:#ffffff00" version="1.1"
	xmlns="http://www.w3.org/2000/svg" xmlns:xlink="http://www.w3.org/1999/xlink" xml:space="preserve"
	x="0px" y="0px" width="227px" height="91px"
>
	<g id="Calque%201">
		<path id="Ellipse" d="M 0 37 C 0 16.5652 16.5652 0 37 0 C 57.4348 0 74 16.5652 74 37 C 74 57.4348 57.4348 74 37 74 C 16.5652 74 0 57.4348 0 37 Z" fill="#ffffff"/>
		<g>
			<path d="M 25.835 15.4277 C 26.3845 15.4277 26.934 15.4277 27.4843 15.4277 C 31.3114 16.1741 33.4315 19.8428 33.1296 24.2761 C 32.9218 27.3135 31.3411 30.0012 29.1965 31.1306 C 28.8335 31.3215 28.4231 31.343 28.1815 31.6292 C 27.5115 32.4253 27.6225 34.3474 27.8015 35.7422 C 27.9889 37.2041 28.6012 38.3955 28.753 39.481 C 28.9514 40.9072 28.753 42.7034 28.753 44.4026 C 28.753 47.8267 28.753 50.6162 28.753 54.1865 C 28.753 56.5593 29.1948 59.1052 27.2935 59.4836 C 26.8713 59.4836 26.4482 59.4836 26.0249 59.4836 C 24.0983 59.1519 24.5664 56.4897 24.5664 54.0618 C 24.5664 50.5945 24.5664 47.8154 24.5664 44.3413 C 24.5664 42.6636 24.3909 40.8989 24.5664 39.481 C 24.6648 38.688 25.126 37.7771 25.3279 36.8008 C 25.6255 35.3589 26.0004 32.7961 25.1371 31.6917 C 24.7547 31.2017 23.832 30.9883 23.3614 30.6316 C 21.5322 29.2478 20.6995 27.3645 20.1898 24.6501 C 20.1898 23.9021 20.1898 23.1548 20.1898 22.4067 C 20.7232 18.7554 22.3014 16.1318 25.835 15.4277 ZM 21.712 24.2136 C 21.712 26.803 23.3995 28.8533 24.82 29.8218 C 23.5386 27.8726 22.6525 25.4949 22.7907 22.4067 C 22.8238 21.6543 22.7797 20.5498 22.7907 20.0391 C 22.2098 21.2568 21.712 22.6873 21.712 24.2136 Z" fill="#0581b5"/>
			<path d="M 52.6649 14.4548 C 52.6649 28.5593 52.6649 42.6621 52.6649 56.7664 C 52.3563 57.5825 51.6575 58.3508 50.3821 58.136 C 48.6318 57.843 48.9896 56.0115 48.9218 53.8989 C 48.8541 51.7446 48.8591 49.603 48.8591 47.4807 C 48.8591 46.3677 48.7081 45.1831 48.8591 44.1785 C 48.9303 43.7 49.1473 43.2786 49.239 42.8704 C 49.7834 40.4641 48.6963 38.8079 46.829 38.3218 C 46.9188 33.6714 47.0664 28.9817 47.7804 24.8611 C 48.4978 20.7322 49.4493 16.926 51.9034 14.4548 C 52.1578 14.4548 52.4105 14.4548 52.6649 14.4548 Z" fill="#0581b5"/>
			<path d="M 36.3638 15.2029 C 36.7021 15.2029 37.0404 15.2029 37.3788 15.2029 C 37.261 19.0337 37.1533 22.8752 36.9981 26.6689 C 37.2949 26.8132 37.8639 26.6899 38.2675 26.731 C 38.2675 22.8884 38.2675 19.0454 38.2675 15.2029 C 38.6474 15.2029 39.0274 15.2029 39.4089 15.2029 C 39.4089 19.0454 39.4089 22.8884 39.4089 26.731 C 39.7261 26.731 40.0433 26.731 40.3604 26.731 C 40.5079 23.0127 40.3807 19.0251 40.4232 15.2029 C 40.7827 15.2029 41.1423 15.2029 41.5018 15.2029 C 41.5018 19.0046 41.5018 22.8052 41.5018 26.6064 C 41.7987 26.7507 42.3685 26.6282 42.7704 26.6689 C 42.6534 22.8574 42.5212 19.0623 42.4533 15.2029 C 42.8332 15.2029 43.2147 15.2029 43.5946 15.2029 C 43.9238 17.75 44.2358 20.5908 44.5461 23.3042 C 44.7615 25.1763 44.9786 26.7107 44.1018 28.1018 C 43.5778 28.9353 42.7094 29.4932 42.1989 30.3455 C 41.6443 31.272 41.3339 32.3601 41.2474 33.4604 C 41.0965 35.3933 41.746 36.6011 41.8817 38.4468 C 42.1005 41.4026 41.8817 44.7163 41.8817 47.7922 C 41.8817 49.2451 41.8817 50.918 41.8817 52.4661 C 41.8817 54.8054 42.3566 57.7695 40.4232 58.136 C 39.1715 58.3743 38.4049 57.6895 38.1403 57.0146 C 37.7248 55.9583 38.0131 53.7788 38.0131 52.4041 C 38.0131 49.135 38.0131 46.2927 38.0131 42.9954 C 38.0131 41.4275 37.8487 39.7761 38.0131 38.3218 C 38.215 36.5322 38.9917 35.7056 38.8374 33.5854 C 38.7017 31.7112 37.8113 30.2554 36.7445 29.1609 C 35.9534 28.3501 35.0875 27.2715 35.0316 25.6716 C 34.9731 23.9858 35.4488 22.2397 35.6659 20.5 C 35.8779 18.8054 36.0237 17.0925 36.3002 15.3896 C 36.295 15.3018 36.29 15.2139 36.3638 15.2029 Z" fill="#0581b5"/>
		</g>
	</g>
</svg>