<?xml version="1.0" standalone="no"?>
<!-- Generator: Adobe Fireworks 10, Export SVG Extension by Aaron Beall (http://fireworks.abeall.com) . Version: 0.6.1  -->
<!DOCTYPE svg PUBLIC "-//W3C//DTD SVG 1.1//EN" "http://www.w3.org/Graphics/SVG/1.1/DTD/svg11.dtd">
<svg id="Untitled-page%201" viewBox="0 0 54 54" style="background-color:#ffffff00" version="1.1"
	xmlns="http://www.w3.org/2000/svg" xmlns:xlink="http://www.w3.org/1999/xlink" xml:space="preserve"
	x="0px" y="0px" width="54px" height="54px"
>
	<g id="Calque%201">
		<path id="Ellipse" d="M 0 27.041 C 0 12.1064 12.0489 0 26.9125 0 C 41.776 0 53.825 12.1064 53.825 27.041 C 53.825 41.9755 41.776 54.0819 26.9125 54.0819 C 12.0489 54.0819 0 41.9755 0 27.041 Z" fill="#ffffff"/>
		<path d="M 24.1224 33.589 C 23.3152 34.2953 22.431 35.1977 21.5373 36.1019 C 20.7092 36.9398 19.85 38.1855 18.9521 38.6147 C 16.7854 39.6504 14.4576 37.6251 15.3026 35.23 C 15.6601 34.2166 16.9237 33.2822 17.6849 32.5121 C 18.5654 31.6213 19.4297 30.8647 20.1687 29.9479 C 19.8649 29.3503 19.6043 28.9839 19.4084 28.512 C 18.0659 25.2785 18.7965 21.3911 20.3715 19.0247 C 21.9647 16.631 24.7042 14.8426 27.9747 14.6144 C 31.2482 14.386 33.7581 15.7139 35.5273 17.3837 C 37.3153 19.071 38.5792 21.6613 38.5687 24.6658 C 38.5566 28.0997 36.9709 30.874 34.6657 32.6659 C 32.5444 34.3148 28.8442 35.3749 25.4404 34.2044 C 25.0267 34.0622 24.6365 33.8538 24.1224 33.589 ZM 23.869 21.8453 C 23.5756 22.3557 23.2318 23.2372 23.1593 24.2043 C 23.0055 26.256 23.8745 27.7092 24.8828 28.6659 C 28.1067 31.7248 34.1578 29.7889 34.108 24.5632 C 34.0985 23.5596 33.7996 22.6452 33.3477 21.8453 C 32.4965 20.338 30.7076 18.8939 28.0762 19.1785 C 25.9719 19.4062 24.5485 20.6627 23.869 21.8453 Z" fill="#0581b5"/>
	</g>
</svg>