<?xml version="1.0" standalone="no"?>
<!-- Generator: Adobe Fireworks 10, Export SVG Extension by Aaron Beall (http://fireworks.abeall.com) . Version: 0.6.1  -->
<!DOCTYPE svg PUBLIC "-//W3C//DTD SVG 1.1//EN" "http://www.w3.org/Graphics/SVG/1.1/DTD/svg11.dtd">
<svg id="Untitled-page%201" viewBox="0 0 54 54" style="background-color:#ffffff00" version="1.1"
	xmlns="http://www.w3.org/2000/svg" xmlns:xlink="http://www.w3.org/1999/xlink" xml:space="preserve"
	x="0px" y="0px" width="54px" height="54px"
>
	<g id="Calque%201">
		<path id="Ellipse" d="M 0 27.041 C 0 12.1064 12.0488 0 26.9125 0 C 41.776 0 53.825 12.1064 53.825 27.041 C 53.825 41.9755 41.776 54.0819 26.9125 54.0819 C 12.0488 54.0819 0 41.9755 0 27.041 Z" fill="#0581b5"/>
		<g>
			<path d="M 28.8325 17.6754 C 31.9126 17.6754 35.1219 17.6754 38.3452 17.6754 C 39.4194 17.6754 40.5441 17.5553 41.3989 17.7889 C 42.4769 18.0848 43.3226 18.8648 43.6888 19.7821 C 44.1158 20.8521 43.9236 23.0299 43.9236 24.6234 C 43.9236 26.2162 44.1296 28.3043 43.865 29.6346 C 43.5974 30.9782 42.6162 32.2313 41.3989 32.6525 C 39.9026 33.1716 37.6141 32.8809 35.5853 32.8809 C 33.4858 32.8809 31.369 32.8809 29.5371 32.8809 C 30.1804 38.5557 27.1714 42.1862 21.8445 41.9926 C 18.046 41.8547 15.1792 39.2186 15.0917 34.9312 C 14.9949 30.1781 14.9463 25.3975 15.0917 21.3199 C 15.2281 17.4945 17.8442 14.3475 21.8445 14.0309 C 25.5566 13.7365 27.4257 15.5917 28.8325 17.6754 ZM 20.1418 19.0992 C 18.1321 19.857 16.5244 21.6729 16.325 23.9968 C 16.1288 26.277 17.1458 27.9513 18.3213 28.9509 C 22.2166 32.264 28.4135 29.5219 28.3625 24.5092 C 28.3267 20.9952 25.3418 18.4014 21.5509 18.8144 C 21.0696 18.867 20.531 18.9523 20.1418 19.0992 ZM 29.5371 20.9211 C 29.5371 23.8826 29.5371 26.8442 29.5371 29.8051 C 32.3094 29.8051 35.0593 29.8051 37.9341 29.8051 C 38.8171 29.8051 40.1572 29.9363 40.5181 29.5775 C 40.8408 29.2571 40.7528 28.2413 40.7528 27.5272 C 40.7528 26.6596 40.7528 26.0226 40.7528 25.2493 C 40.7528 24.2185 41.077 21.4008 40.4592 20.9211 C 40.0662 20.6163 38.7588 20.7505 37.8752 20.7505 C 34.9098 20.7505 32.3324 20.7505 29.5959 20.7505 C 29.5275 20.7601 29.532 20.841 29.5371 20.9211 ZM 19.9067 34.361 C 19.946 37.3685 24.2874 37.1921 24.7219 34.817 C 25.0592 32.9744 23.5273 31.9132 22.1382 32.0267 C 20.8865 32.1283 19.8879 32.9313 19.9067 34.361 Z" fill="#ffffff"/>
			<path d="M 22.3143 20.5229 C 23.6274 20.508 24.9272 21.1457 25.6028 21.9466 C 25.9048 22.3047 26.5421 23.5022 26.5421 24.5663 C 26.5421 29.7325 18.6951 29.9052 18.145 25.1358 C 18.0629 24.4232 18.1895 23.3865 18.5559 22.6866 C 19.0209 21.7997 20.2369 20.5458 22.3143 20.5229 Z" fill="#ffffff"/>
		</g>
	</g>
</svg>