<?xml version="1.0" standalone="no"?>
<!-- Generator: Adobe Fireworks 10, Export SVG Extension by Aaron Beall (http://fireworks.abeall.com) . Version: 0.6.1  -->
<!DOCTYPE svg PUBLIC "-//W3C//DTD SVG 1.1//EN" "http://www.w3.org/Graphics/SVG/1.1/DTD/svg11.dtd">
<svg id="Untitled-page%201" viewBox="0 0 225 225" style="background-color:#ffffff00" version="1.1"
	xmlns="http://www.w3.org/2000/svg" xmlns:xlink="http://www.w3.org/1999/xlink" xml:space="preserve"
	x="0px" y="0px" width="225px" height="225px"
>
	<g id="Calque%201">
		<g>
			<path d="M 127.4413 0 C 133.301 0 139.1601 0 145.0198 0 C 190.8448 7.495 217.5047 34.1553 225 79.9805 C 225 85.8397 225 91.6993 225 97.5586 C 219.6659 139.958 187.4654 174.4041 143.7014 177.5393 C 124.5631 178.9102 103.2082 173.7462 90.9669 165.2346 C 75.1839 178.3094 62.0722 194.0546 47.0214 207.8613 C 36.8775 198.0833 26.9166 188.1227 17.1386 177.9788 C 30.9456 162.928 46.6909 149.8164 59.7657 134.0334 C 51.3257 120.4918 46.1533 102.7882 47.4609 81.7385 C 48.9339 58.0278 59.6728 40.15 72.9492 26.3672 C 86.6229 12.172 105.191 2.8179 127.4413 0 ZM 95.3614 37.7932 C 84.0366 46.9663 77.4453 56.855 73.3887 70.3127 C 63.2112 104.0763 80.558 131.4597 101.5138 144.5801 C 156.8238 179.2091 227.4636 117.0725 193.7988 56.6895 C 184.4759 39.9678 164.0386 23.2289 135.791 23.291 C 117.6423 23.3309 105.2154 29.8108 95.3614 37.7932 Z" fill="#0581b5"/>
			<path d="M 28.5644 225 C 26.6601 225 24.756 225 22.8515 225 C 13.9775 218.6396 6.3604 211.0223 0 202.1484 C 0 200.244 0 198.3402 0 196.4355 C 2.4153 192.1124 5.6355 188.5945 9.6681 185.8884 C 19.2259 196.1063 29.5534 205.554 39.1112 215.7717 C 35.9804 219.2324 32.9384 222.7823 28.5644 225 Z" fill="#0581b5"/>
		</g>
	</g>
</svg>