<?xml version="1.0" standalone="no"?>
<!-- Generator: Adobe Fireworks 10, Export SVG Extension by Aaron Beall (http://fireworks.abeall.com) . Version: 0.6.1  -->
<!DOCTYPE svg PUBLIC "-//W3C//DTD SVG 1.1//EN" "http://www.w3.org/Graphics/SVG/1.1/DTD/svg11.dtd">
<svg id="Untitled-page%201" viewBox="0 0 166 166" style="background-color:#ffffff00" version="1.1"
	xmlns="http://www.w3.org/2000/svg" xmlns:xlink="http://www.w3.org/1999/xlink" xml:space="preserve"
	x="0px" y="0px" width="166px" height="166px"
>
	<g id="Calque%201">
		<g>
			<path d="M 54.471 24.636 C 55.9768 24.636 57.4829 24.636 58.991 24.636 C 69.4794 26.6581 75.2895 36.598 74.4622 48.6095 C 73.8926 56.8389 69.5608 64.1211 63.6833 67.1809 C 62.6885 67.6982 61.5638 67.7565 60.9016 68.5316 C 59.0656 70.6887 59.3697 75.8965 59.8604 79.6754 C 60.3738 83.6364 62.0519 86.8643 62.4679 89.8052 C 63.0117 93.6694 62.4679 98.5359 62.4679 103.1398 C 62.4679 112.4169 62.4679 119.9747 62.4679 129.6481 C 62.4679 136.0769 63.6786 142.9747 58.4681 144 C 57.3109 144 56.1514 144 54.9914 144 C 49.7115 143.1011 50.9943 135.8884 50.9943 129.3101 C 50.9943 119.916 50.9943 112.3865 50.9943 102.9736 C 50.9943 98.4281 50.5132 93.647 50.9943 89.8052 C 51.2639 87.6567 52.528 85.1888 53.0812 82.5436 C 53.8969 78.6371 54.9241 71.6936 52.5583 68.701 C 51.5103 67.3734 48.9817 66.7953 47.6919 65.829 C 42.679 62.0796 40.3969 56.9772 39 49.623 C 39 47.5962 39 45.5714 39 43.5447 C 40.4618 33.6519 44.7869 26.5437 54.471 24.636 ZM 43.1717 48.4402 C 43.1717 55.4557 47.7963 61.0107 51.6893 63.6348 C 48.1776 58.3536 45.7492 51.9116 46.1279 43.5447 C 46.2186 41.506 46.0976 38.5135 46.1279 37.1298 C 44.5358 40.4291 43.1717 44.3047 43.1717 48.4402 Z" fill="#000000"/>
			<path d="M 128 22 C 128 60.2144 128 98.4241 128 136.6378 C 127.1543 138.8491 125.239 140.9307 121.7437 140.3486 C 116.9469 139.5549 117.9276 134.5928 117.7418 128.8689 C 117.5561 123.0321 117.57 117.2296 117.57 111.4795 C 117.57 108.4639 117.1562 105.2545 117.57 102.5326 C 117.765 101.2361 118.3599 100.0942 118.611 98.9884 C 120.103 92.469 117.1237 87.9814 112.0063 86.6646 C 112.2525 74.0648 112.657 61.3586 114.6136 50.1943 C 116.5798 39.0077 119.1875 28.6954 125.9131 22 C 126.6101 22 127.3028 22 128 22 Z" fill="#000000"/>
			<path d="M 83.3257 24.0269 C 84.253 24.0269 85.1801 24.0269 86.1074 24.0269 C 85.7846 34.4059 85.4895 44.814 85.0641 55.0928 C 85.8774 55.4835 87.4369 55.1494 88.5431 55.2606 C 88.5431 44.8497 88.5431 34.4376 88.5431 24.0269 C 89.5841 24.0269 90.6255 24.0269 91.6711 24.0269 C 91.6711 34.4376 91.6711 44.8497 91.6711 55.2606 C 92.5405 55.2606 93.4096 55.2606 94.2788 55.2606 C 94.683 45.1865 94.3344 34.3827 94.4508 24.0269 C 95.4359 24.0269 96.4215 24.0269 97.4069 24.0269 C 97.4069 34.3273 97.4069 44.6243 97.4069 54.9232 C 98.2205 55.3141 99.7821 54.9822 100.8836 55.0928 C 100.5627 44.7657 100.2004 34.4833 100.0145 24.0269 C 101.0555 24.0269 102.1011 24.0269 103.1422 24.0269 C 104.0443 30.9277 104.8996 38.6248 105.75 45.9763 C 106.3401 51.0485 106.9351 55.2056 104.5322 58.9747 C 103.0961 61.233 100.7162 62.7445 99.3173 65.0537 C 97.7975 67.564 96.9466 70.5121 96.7097 73.4934 C 96.2961 78.7302 98.0761 82.0024 98.4478 87.0033 C 99.0476 95.0115 98.4478 103.9897 98.4478 112.3236 C 98.4478 116.26 98.4478 120.7924 98.4478 124.9867 C 98.4478 131.3248 99.7495 139.3558 94.4508 140.3486 C 91.0205 140.9944 88.9196 139.1389 88.1945 137.3105 C 87.0557 134.4484 87.8459 128.5435 87.8459 124.8187 C 87.8459 115.9617 87.8459 108.2607 87.8459 99.3271 C 87.8459 95.0791 87.3952 90.6049 87.8459 86.6646 C 88.399 81.8159 90.5277 79.5763 90.1048 73.832 C 89.733 68.7539 87.2928 64.8097 84.3691 61.8444 C 82.201 59.6476 79.8281 56.7251 79.6747 52.3905 C 79.5144 47.8231 80.8181 43.0923 81.4131 38.3785 C 81.9941 33.7874 82.3939 29.1466 83.1514 24.5327 C 83.1373 24.2946 83.1235 24.0566 83.3257 24.0269 Z" fill="#000000"/>
		</g>
	</g>
</svg>