<?xml version="1.0" standalone="no"?>
<!-- Generator: Adobe Fireworks 10, Export SVG Extension by Aaron Beall (http://fireworks.abeall.com) . Version: 0.6.1  -->
<!DOCTYPE svg PUBLIC "-//W3C//DTD SVG 1.1//EN" "http://www.w3.org/Graphics/SVG/1.1/DTD/svg11.dtd">
<svg id="Untitled-page%201" viewBox="0 0 205 87" style="background-color:#ffffff00" version="1.1"
	xmlns="http://www.w3.org/2000/svg" xmlns:xlink="http://www.w3.org/1999/xlink" xml:space="preserve"
	x="0px" y="0px" width="205px" height="87px"
>
	<defs>
		<filter id="filter1" x="-100%" y="-100%" width="300%" height="300%">
			<!-- Ombre portée -->
			<feOffset result="out" in="SourceGraphic" dx="1.4142" dy="1.4142"/>
			<feColorMatrix result="out" in="out" type="matrix" values="0 0 0 0 0  0 0 0 0 0  0 0 0 0 0  0 0 0 0.651 0"/>
			<feGaussianBlur result="out" in="out" stdDeviation="4"/>
			<feBlend in="SourceGraphic" in2="out" mode="normal" result="Ombre_portée1"/>
		</filter>
	</defs>
	<g id="Calque%201">
		<path d="M 138 59 L 97 86 L 1 86 " stroke="#ffffff" stroke-width="2" fill="none"/>
		<path id="Ellipse" d="M 131 37 C 131 16.5652 147.5652 0 168 0 C 188.4348 0 205 16.5652 205 37 C 205 57.4348 188.4348 74 168 74 C 147.5652 74 131 57.4348 131 37 Z" fill="#0581b5"/>
		<g filter="url(#filter1)">
			<path d="M 9.0801 75 L 15.7103 75 C 19.2725 75 21.6385 72.6859 21.6385 69.2278 C 21.6385 67.0697 20.4425 65.2236 18.7004 64.2356 C 19.6625 63.4296 20.2865 62.2335 20.2865 60.8555 C 20.2865 58.2034 18.4664 56.4353 15.7103 56.4353 L 9.0801 56.4353 L 9.0801 75 L 9.0801 75 ZM 10.9781 63.4556 L 10.9781 58.2554 L 15.7103 58.2554 C 17.2704 58.2554 18.3104 59.2954 18.3104 60.8555 C 18.3104 62.4155 17.2704 63.4556 15.7103 63.4556 L 10.9781 63.4556 L 10.9781 63.4556 ZM 10.9781 73.1799 L 10.9781 65.2756 L 15.7103 65.2756 C 18.0764 65.2756 19.6625 66.8617 19.6625 69.2278 C 19.6625 71.5939 18.0764 73.1799 15.7103 73.1799 L 10.9781 73.1799 L 10.9781 73.1799 Z" fill="#ffffff"/>
			<path d="M 30.8383 75.286 C 32.5803 75.286 34.1144 74.454 35.1544 73.1799 L 35.1544 75.052 L 36.8965 75.052 L 36.8965 63.5596 L 35.1544 63.5596 L 35.1544 65.4316 C 34.1144 64.1836 32.5803 63.3776 30.8383 63.3776 C 27.5881 63.3776 24.91 66.0557 24.91 69.3058 C 24.91 72.5039 27.5881 75.286 30.8383 75.286 L 30.8383 75.286 ZM 30.7863 73.5699 C 28.4722 73.5699 26.7301 71.5679 26.7301 69.3058 C 26.7301 66.9917 28.4722 65.0936 30.7863 65.0936 C 33.0483 65.0936 35.0504 66.9917 35.0504 69.3058 C 35.0504 71.5679 33.0483 73.5699 30.7863 73.5699 L 30.7863 73.5699 Z" fill="#ffffff"/>
			<path d="M 40.8201 75 L 42.5621 75 L 42.5621 68.9158 C 42.5621 66.3417 43.9922 65.0416 46.3063 65.0936 C 48.2043 65.0936 49.2444 66.2117 49.2444 68.4738 L 49.2444 75 L 50.9865 75 L 50.9865 68.4738 C 50.9865 64.8336 49.5824 63.3776 46.3063 63.3776 C 44.7462 63.3776 43.4722 63.9496 42.5621 64.9376 L 42.5621 63.5596 L 40.8201 63.5596 L 40.8201 75 L 40.8201 75 Z" fill="#ffffff"/>
			<path d="M 64.2844 80.2002 L 66.0265 80.2002 L 66.0265 63.5596 L 64.2844 63.5596 L 64.2844 65.4316 C 63.2444 64.1836 61.7103 63.3776 59.9683 63.3776 C 56.7181 63.3776 54.04 66.0557 54.04 69.3058 C 54.04 72.5039 56.7181 75.286 59.9683 75.286 C 61.7103 75.286 63.2444 74.454 64.2844 73.1799 L 64.2844 80.2002 L 64.2844 80.2002 ZM 59.9163 73.5699 C 57.6022 73.5699 55.8601 71.5679 55.8601 69.3058 C 55.8601 66.9917 57.6022 65.0936 59.9163 65.0936 C 62.1783 65.0936 64.1804 66.9917 64.1804 69.3058 C 64.1804 71.5679 62.1783 73.5699 59.9163 73.5699 L 59.9163 73.5699 Z" fill="#ffffff"/>
			<path d="M 79.7264 63.5596 L 77.9844 63.5596 L 77.9844 69.6438 C 77.9844 72.1659 76.5543 73.4659 74.2402 73.4659 C 72.3422 73.4659 71.3021 72.3479 71.3021 70.0858 L 71.3021 63.5596 L 69.5601 63.5596 L 69.5601 70.0858 C 69.5601 73.726 70.9641 75.182 74.2402 75.182 C 75.8003 75.182 77.0743 74.61 77.9844 73.6219 L 77.9844 75 L 79.7264 75 L 79.7264 63.5596 L 79.7264 63.5596 Z" fill="#ffffff"/>
			<path d="M 94.7665 69.3058 C 94.7665 66.0557 92.0884 63.3776 88.8383 63.3776 C 85.5881 63.3776 82.91 66.0557 82.91 69.3058 C 82.91 72.5039 85.5881 75.286 88.8383 75.286 C 91.1523 75.286 93.2064 73.96 94.1685 71.9839 L 92.0104 71.9839 C 91.2823 72.9199 90.1643 73.5699 88.8383 73.5699 C 86.8102 73.5699 85.1721 72.0099 84.8081 70.1118 L 94.7665 70.1118 L 94.7665 69.3058 L 94.7665 69.3058 ZM 88.8383 65.0936 C 90.8403 65.0936 92.4784 66.5497 92.8684 68.4478 L 84.8081 68.4478 C 85.1981 66.5497 86.8102 65.0936 88.8383 65.0936 L 88.8383 65.0936 Z" fill="#ffffff"/>
		</g>
		<g>
			<path d="M 190 25.9576 C 190 35.8519 190 45.7455 190 55.6398 C 189.6557 56.1571 186.3697 55.9596 184.8749 55.9596 C 174.5404 55.9596 164.6196 55.9596 154.1248 55.9596 C 152.512 55.9596 149.5274 56.1676 149 55.6398 C 149 45.7455 149 35.8519 149 25.9576 C 149.656 25.4228 150.6677 25.3792 151.6426 25.2376 C 154.5767 24.8112 158.2838 24.817 161.1718 25.3174 C 161.2645 23.5971 160.9777 21.4969 161.3322 20.037 C 165.8993 18.6803 173.2917 18.6016 177.748 20.1174 C 177.9268 21.6985 177.7807 23.6046 177.8282 25.3174 C 179.5757 25.1001 181.7618 24.828 184.1542 24.9177 C 185.8448 24.9807 188.9825 25.2848 190 25.9576 ZM 163.0937 21.4771 C 163.0937 32.3315 163.0937 43.1852 163.0937 54.0395 C 164.1348 54.0395 165.1756 54.0395 166.2167 54.0395 C 166.3211 50.3565 166.0065 46.2559 166.3771 42.8385 C 168.1223 42.6177 171.0867 42.4855 172.7031 42.9189 C 172.8891 46.4667 172.7305 50.3588 172.7833 54.0395 C 173.824 54.0395 174.8652 54.0395 175.9063 54.0395 C 175.9063 43.1852 175.9063 32.3315 175.9063 21.4771 C 172.0637 20.7379 166.9363 20.7379 163.0937 21.4771 ZM 153.8849 30.5977 C 153.5181 31.5922 153.8262 33.2595 153.7245 34.5184 C 155.1688 34.6512 157.165 34.6512 158.6094 34.5184 C 158.5581 33.2361 158.7135 31.7471 158.5292 30.5977 C 156.9811 30.5977 155.433 30.5977 153.8849 30.5977 ZM 180.5507 30.5977 C 180.1842 31.5922 180.4921 33.2595 180.3906 34.5184 C 181.835 34.6512 183.8312 34.6512 185.2755 34.5184 C 185.2239 33.2361 185.3796 31.7471 185.1953 30.5977 C 183.6472 30.5977 182.0988 30.5977 180.5507 30.5977 ZM 153.8849 38.1186 C 153.5181 39.1125 153.8262 40.7803 153.7245 42.0387 C 155.1688 42.1715 157.165 42.1715 158.6094 42.0387 C 158.5581 40.7565 158.7135 39.268 158.5292 38.1186 C 156.9811 38.1186 155.433 38.1186 153.8849 38.1186 ZM 180.5507 38.1186 C 180.1842 39.1125 180.4921 40.7803 180.3906 42.0387 C 181.835 42.1715 183.8312 42.1715 185.2755 42.0387 C 185.2239 40.7565 185.3796 39.268 185.1953 38.1186 C 183.6472 38.1186 182.0988 38.1186 180.5507 38.1186 ZM 153.9648 45.5591 C 153.8496 45.6039 153.7694 45.6838 153.7245 45.7991 C 153.7761 47.0545 153.6205 48.5162 153.8047 49.6394 C 155.3796 49.6394 156.9546 49.6394 158.5292 49.6394 C 158.6622 48.4883 158.6622 46.79 158.5292 45.6389 C 157.166 45.4543 155.461 45.6109 153.9648 45.5591 ZM 180.6308 45.5591 C 180.5157 45.6039 180.4355 45.6838 180.3906 45.7991 C 180.4419 47.0545 180.2865 48.5162 180.4708 49.6394 C 182.0457 49.6394 183.6204 49.6394 185.1953 49.6394 C 185.3282 48.4883 185.3282 46.79 185.1953 45.6389 C 183.832 45.4543 182.127 45.6109 180.6308 45.5591 Z" fill="#ffffff"/>
			<path d="M 170.3809 25.6378 C 170.5342 25.8312 170.4313 26.2803 170.4608 26.5979 C 171.2549 26.8711 172.2139 26.98 172.7031 27.5579 C 172.5926 28.3805 172.1185 28.8407 171.6623 29.3178 C 170.9063 28.8669 168.262 28.2931 168.1386 29.5579 C 168.0214 30.7608 171.0917 30.9886 172.0626 31.718 C 173.9416 33.1295 173.4162 36.58 170.541 36.8381 C 170.3404 37.0648 170.5815 37.7324 170.3809 37.9584 C 169.8582 38.0644 168.783 38.1454 168.3788 37.8786 C 168.2255 37.6852 168.3284 37.2354 168.2986 36.9185 C 167.8115 36.6249 165.8643 36.0878 165.8165 35.3182 C 165.7788 34.7124 166.7689 34.3354 167.1777 33.8781 C 167.7605 34.0162 168.0969 34.6227 168.8593 34.7584 C 169.7305 34.9128 170.869 34.7141 170.9416 34.1182 C 171.067 33.0853 168.2899 32.7439 167.5779 32.3582 C 165.4523 31.2065 165.1867 27.4676 168.2986 26.7574 C 167.8068 25.2475 169.4657 25.4776 170.3809 25.6378 Z" fill="#ffffff"/>
		</g>
	</g>
</svg>