<?xml version="1.0" standalone="no"?>
<!-- Generator: Adobe Fireworks 10, Export SVG Extension by Aaron Beall (http://fireworks.abeall.com) . Version: 0.6.1  -->
<!DOCTYPE svg PUBLIC "-//W3C//DTD SVG 1.1//EN" "http://www.w3.org/Graphics/SVG/1.1/DTD/svg11.dtd">
<svg id="Untitled-page%201" viewBox="0 0 205 87" style="background-color:#ffffff00" version="1.1"
	xmlns="http://www.w3.org/2000/svg" xmlns:xlink="http://www.w3.org/1999/xlink" xml:space="preserve"
	x="0px" y="0px" width="205px" height="87px"
>
	<g id="Calque%201">
		<path id="Ellipse" d="M 131 37 C 131 16.5652 147.5652 0 168 0 C 188.4348 0 205 16.5652 205 37 C 205 57.4348 188.4348 74 168 74 C 147.5652 74 131 57.4348 131 37 Z" fill="#ffffff"/>
		<g>
			<path d="M 190 25.9576 C 190 35.8519 190 45.7455 190 55.6398 C 189.6557 56.1571 186.3697 55.9596 184.8749 55.9596 C 174.5404 55.9596 164.6196 55.9596 154.1248 55.9596 C 152.512 55.9596 149.5274 56.1676 149 55.6398 C 149 45.7455 149 35.8519 149 25.9576 C 149.656 25.4228 150.6677 25.3792 151.6426 25.2376 C 154.5767 24.8112 158.2838 24.817 161.1718 25.3174 C 161.2645 23.5971 160.9777 21.4969 161.3322 20.037 C 165.8993 18.6803 173.2917 18.6016 177.748 20.1174 C 177.9268 21.6985 177.7807 23.6046 177.8282 25.3174 C 179.5757 25.1001 181.7618 24.828 184.1542 24.9177 C 185.8448 24.9807 188.9825 25.2848 190 25.9576 ZM 163.0937 21.4771 C 163.0937 32.3315 163.0937 43.1852 163.0937 54.0395 C 164.1348 54.0395 165.1756 54.0395 166.2167 54.0395 C 166.3211 50.3565 166.0065 46.2559 166.3771 42.8385 C 168.1223 42.6177 171.0867 42.4855 172.7031 42.9189 C 172.8891 46.4667 172.7305 50.3588 172.7833 54.0395 C 173.824 54.0395 174.8652 54.0395 175.9063 54.0395 C 175.9063 43.1852 175.9063 32.3315 175.9063 21.4771 C 172.0637 20.7379 166.9363 20.7379 163.0937 21.4771 ZM 153.8849 30.5977 C 153.5181 31.5922 153.8262 33.2595 153.7245 34.5184 C 155.1688 34.6512 157.165 34.6512 158.6094 34.5184 C 158.5581 33.2361 158.7135 31.7471 158.5292 30.5977 C 156.9811 30.5977 155.433 30.5977 153.8849 30.5977 ZM 180.5507 30.5977 C 180.1842 31.5922 180.4921 33.2595 180.3906 34.5184 C 181.835 34.6512 183.8312 34.6512 185.2755 34.5184 C 185.2239 33.2361 185.3796 31.7471 185.1953 30.5977 C 183.6472 30.5977 182.0988 30.5977 180.5507 30.5977 ZM 153.8849 38.1186 C 153.5181 39.1125 153.8262 40.7803 153.7245 42.0387 C 155.1688 42.1715 157.165 42.1715 158.6094 42.0387 C 158.5581 40.7565 158.7135 39.268 158.5292 38.1186 C 156.9811 38.1186 155.433 38.1186 153.8849 38.1186 ZM 180.5507 38.1186 C 180.1842 39.1125 180.4921 40.7803 180.3906 42.0387 C 181.835 42.1715 183.8312 42.1715 185.2755 42.0387 C 185.2239 40.7565 185.3796 39.268 185.1953 38.1186 C 183.6472 38.1186 182.0988 38.1186 180.5507 38.1186 ZM 153.9648 45.5591 C 153.8496 45.6039 153.7694 45.6838 153.7245 45.7991 C 153.7761 47.0545 153.6205 48.5162 153.8047 49.6394 C 155.3796 49.6394 156.9546 49.6394 158.5292 49.6394 C 158.6622 48.4883 158.6622 46.79 158.5292 45.6389 C 157.166 45.4543 155.461 45.6109 153.9648 45.5591 ZM 180.6308 45.5591 C 180.5157 45.6039 180.4355 45.6838 180.3906 45.7991 C 180.4419 47.0545 180.2865 48.5162 180.4708 49.6394 C 182.0457 49.6394 183.6204 49.6394 185.1953 49.6394 C 185.3282 48.4883 185.3282 46.79 185.1953 45.6389 C 183.832 45.4543 182.127 45.6109 180.6308 45.5591 Z" fill="#0581b5"/>
			<path d="M 170.3809 25.6378 C 170.5342 25.8312 170.4313 26.2803 170.4608 26.5979 C 171.2549 26.8711 172.2139 26.98 172.7031 27.5579 C 172.5926 28.3805 172.1185 28.8407 171.6623 29.3178 C 170.9063 28.8669 168.262 28.2931 168.1386 29.5579 C 168.0214 30.7608 171.0917 30.9886 172.0626 31.718 C 173.9416 33.1295 173.4162 36.58 170.541 36.8381 C 170.3404 37.0648 170.5815 37.7324 170.3809 37.9584 C 169.8582 38.0644 168.783 38.1454 168.3788 37.8786 C 168.2255 37.6852 168.3284 37.2354 168.2986 36.9185 C 167.8115 36.6249 165.8643 36.0878 165.8165 35.3182 C 165.7788 34.7124 166.7689 34.3354 167.1777 33.8781 C 167.7605 34.0162 168.0969 34.6227 168.8593 34.7584 C 169.7305 34.9128 170.869 34.7141 170.9416 34.1182 C 171.067 33.0853 168.2899 32.7439 167.5779 32.3582 C 165.4523 31.2065 165.1867 27.4676 168.2986 26.7574 C 167.8068 25.2475 169.4657 25.4776 170.3809 25.6378 Z" fill="#0581b5"/>
		</g>
	</g>
</svg>