<?xml version="1.0" standalone="no"?>
<!-- Generator: Adobe Fireworks 10, Export SVG Extension by Aaron Beall (http://fireworks.abeall.com) . Version: 0.6.1  -->
<!DOCTYPE svg PUBLIC "-//W3C//DTD SVG 1.1//EN" "http://www.w3.org/Graphics/SVG/1.1/DTD/svg11.dtd">
<svg id="Untitled-page%201" viewBox="0 0 77 77" style="background-color:#ffffff00" version="1.1"
	xmlns="http://www.w3.org/2000/svg" xmlns:xlink="http://www.w3.org/1999/xlink" xml:space="preserve"
	x="0px" y="0px" width="77px" height="77px"
>
	<g id="Calque%201">
		<path d="M 34.3516 50.0534 C 32.9742 51.245 31.4655 52.7672 29.9407 54.2926 C 28.5277 55.706 27.0618 57.8078 25.53 58.5317 C 21.833 60.2789 17.8614 56.8624 19.303 52.8218 C 19.913 51.1122 22.0689 49.5359 23.3678 48.2366 C 24.8701 46.7338 26.3447 45.4575 27.6056 43.9109 C 27.0872 42.9027 26.6425 42.2845 26.3084 41.4885 C 24.0179 36.0336 25.2643 29.4755 27.9515 25.4834 C 30.6699 21.4452 35.3442 18.4281 40.9244 18.0432 C 46.5094 17.658 50.7919 19.8981 53.8107 22.715 C 56.8614 25.5616 59.0179 29.9314 58.9999 35 C 58.9794 40.7929 56.2738 45.4731 52.3405 48.4961 C 48.7212 51.2778 42.408 53.0662 36.6001 51.0915 C 35.8943 50.8516 35.2286 50.5001 34.3516 50.0534 ZM 33.9191 30.2417 C 33.4185 31.1029 32.8321 32.5899 32.7082 34.2213 C 32.4458 37.6826 33.9284 40.1341 35.6487 41.748 C 41.1495 46.9085 51.474 43.6426 51.3891 34.8269 C 51.3728 33.1338 50.8628 31.5912 50.0919 30.2417 C 48.6393 27.6989 45.5871 25.2628 41.0973 25.743 C 37.5072 26.127 35.0786 28.2468 33.9191 30.2417 Z" fill="#ffffff"/>
	</g>
</svg>