<?xml version="1.0" standalone="no"?>
<!-- Generator: Adobe Fireworks 10, Export SVG Extension by Aaron Beall (http://fireworks.abeall.com) . Version: 0.6.1  -->
<!DOCTYPE svg PUBLIC "-//W3C//DTD SVG 1.1//EN" "http://www.w3.org/Graphics/SVG/1.1/DTD/svg11.dtd">
<svg id="Untitled-page%201" viewBox="0 0 32 32" style="background-color:#ffffff00" version="1.1"
	xmlns="http://www.w3.org/2000/svg" xmlns:xlink="http://www.w3.org/1999/xlink" xml:space="preserve"
	x="0px" y="0px" width="32px" height="32px"
>
	<g id="Calque%201">
		<path d="M 15.0891 4 C 15.7011 4 16.3132 4 16.9252 4 C 17.7536 4.4932 17.1989 6.3282 17.36 7.4688 C 18.368 7.554 19.5161 7.5156 20.6459 7.5156 C 21.7687 7.5156 22.9284 7.4053 23.8351 7.6563 C 23.997 8.2661 23.9902 9.4827 23.8351 10.0938 C 21.884 10.3103 19.5201 10.1267 17.4084 10.1875 C 17.2961 10.5004 17.392 11.0154 17.36 11.4063 C 18.4655 11.4063 19.5038 11.4063 20.7426 11.4063 C 21.5771 11.4063 23.5074 11.1901 23.8351 11.6406 C 24.0479 11.933 24.0617 13.5732 23.8351 13.8906 C 23.5092 14.3474 21.6771 14.125 20.7426 14.125 C 19.4787 14.125 18.403 14.125 17.4084 14.125 C 17.2961 14.4379 17.392 14.9529 17.36 15.3438 C 18.1555 15.3438 19.0405 15.3438 19.9694 15.3438 C 20.813 15.3438 21.8256 15.179 22.5305 15.3438 C 22.785 15.4032 23.9221 16.3029 23.9318 16.6563 C 23.9395 16.9375 22.8542 17.942 22.5788 18.0156 C 21.8874 18.2003 20.8198 18.0156 19.9694 18.0156 C 19.0414 18.0156 18.1804 18.0156 17.4084 18.0156 C 17.3215 20.1561 17.36 23.0233 17.36 25.5625 C 17.36 26.3577 17.5556 27.8706 16.9252 28 C 16.3132 28 15.7011 28 15.0891 28 C 14.4001 27.5961 14.6541 26.2021 14.6541 25.0938 C 14.6541 22.762 14.6541 20.2095 14.6541 18.0156 C 13.5749 18.0156 12.5829 18.0156 11.3683 18.0156 C 10.5429 18.0156 8.6078 18.2434 8.2274 17.8281 C 7.8932 17.4635 8.0036 15.6345 8.2757 15.4375 C 8.5071 15.2699 9.2849 15.3438 9.7736 15.3438 C 11.3976 15.3438 13.2127 15.3438 14.6541 15.3438 C 14.6541 14.9375 14.6541 14.5313 14.6541 14.125 C 13.8751 14.125 13.0162 14.125 12.0931 14.125 C 11.2422 14.125 10.1889 14.2991 9.4837 14.125 C 9.1876 14.0519 8.0825 13.0719 8.0825 12.7656 C 8.0825 12.5361 8.5539 12.1676 8.7106 12.0156 C 8.9653 11.7687 9.2453 11.4678 9.5319 11.4063 C 10.2524 11.2517 11.2587 11.4063 12.0931 11.4063 C 13.0134 11.4063 13.8671 11.4063 14.6541 11.4063 C 14.6541 11 14.6541 10.5938 14.6541 10.1875 C 12.5263 10.1266 10.1463 10.3103 8.1791 10.0938 C 8.2099 9.4908 7.761 8.1248 8.1791 7.6563 C 8.3849 7.4254 9.1613 7.5156 9.6769 7.5156 C 11.3605 7.5156 13.3325 7.5156 14.6541 7.5156 C 14.8177 6.3618 14.257 4.5054 15.0891 4 ZM 15.5722 5.5 C 15.6135 6.2633 16.9855 5.6523 16.2004 5.0781 C 15.7684 5.0203 15.5574 5.2275 15.5722 5.5 Z" fill="#000000"/>
	</g>
</svg>