<?xml version="1.0" standalone="no"?>
<!-- Generator: Adobe Fireworks 10, Export SVG Extension by Aaron Beall (http://fireworks.abeall.com) . Version: 0.6.1  -->
<!DOCTYPE svg PUBLIC "-//W3C//DTD SVG 1.1//EN" "http://www.w3.org/Graphics/SVG/1.1/DTD/svg11.dtd">
<svg id="Untitled-page%201" viewBox="0 0 32 32" style="background-color:#ffffff00" version="1.1"
	xmlns="http://www.w3.org/2000/svg" xmlns:xlink="http://www.w3.org/1999/xlink" xml:space="preserve"
	x="0px" y="0px" width="32px" height="32px"
>
	<g id="Calque%201">
		<path d="M 11.7125 14.0432 C 12.5948 16.8156 14.1936 18.7477 16.7889 19.8712 C 17.1483 20.0269 17.6444 20.2871 17.917 20.2849 C 18.2944 20.282 18.9298 19.3289 19.3459 19.1191 C 20.25 18.6642 21.311 19.0465 22.279 19.3073 C 23.6037 19.6641 24.8394 20.1782 24.9864 21.6385 C 25.1022 22.7886 24.457 23.296 23.8583 23.8945 C 23.5107 24.2422 23.2175 24.636 22.8806 24.7969 C 22.05 25.1943 20.4576 24.9199 19.3835 24.7219 C 14.053 23.7384 10.3135 20.4974 8.3658 16.1111 C 7.8015 14.8402 7.2888 13.2988 7.0873 11.5238 C 6.9938 10.6998 6.9229 9.7568 7.1625 9.1926 C 7.3227 8.8157 7.7302 8.4746 8.0651 8.1399 C 8.6013 7.6036 8.9979 7.1003 9.87 7.0117 C 10.934 6.9038 11.8668 7.5552 12.2766 8.3655 C 12.4799 8.7673 12.5779 9.2839 12.7278 9.8319 C 12.9679 10.7089 13.3103 11.6855 12.9158 12.5767 C 12.6147 13.2568 11.9956 13.4779 11.7125 14.0432 Z" fill="#000000"/>
	</g>
</svg>