<?xml version="1.0" standalone="no"?>
<!-- Generator: Adobe Fireworks 10, Export SVG Extension by Aaron Beall (http://fireworks.abeall.com) . Version: 0.6.1  -->
<!DOCTYPE svg PUBLIC "-//W3C//DTD SVG 1.1//EN" "http://www.w3.org/Graphics/SVG/1.1/DTD/svg11.dtd">
<svg id="Untitled-page%201" viewBox="0 0 32 32" style="background-color:#ffffff00" version="1.1"
	xmlns="http://www.w3.org/2000/svg" xmlns:xlink="http://www.w3.org/1999/xlink" xml:space="preserve"
	x="0px" y="0px" width="32px" height="32px"
>
	<g id="Calque%201">
		<path d="M 24.3943 9.16 C 25.2571 9.1019 26.184 8.6609 27 8.3813 C 26.44 9.5144 25.6399 10.3986 24.5948 11.0291 C 24.7577 15.5522 23.0812 19.2157 20.7865 21.8798 C 18.6475 24.3628 15.5983 25.7985 11.7168 25.9812 C 8.3699 26.1387 5.7324 25.3041 4 23.7487 C 7.0886 24.0828 9.174 22.9563 10.8649 21.6721 C 8.393 21.568 7.2578 20.0792 6.5054 18.1936 C 7.1309 18.3325 7.8531 18.1886 8.4597 18.1416 C 6.4835 17.2645 4.918 15.9618 4.902 13.054 C 5.519 13.3317 6.0891 13.6583 6.9063 13.7286 C 6.1404 12.9287 5.0289 11.7509 4.902 10.0426 C 4.8185 8.9202 5.1758 7.9753 5.5033 7.0314 C 7.9642 9.5868 10.5631 11.9993 15.2745 12.2231 C 14.6389 8.4712 17.4245 5.603 20.5861 6.045 C 21.793 6.2137 22.5369 6.8674 23.2919 7.6025 C 24.5093 7.4448 25.3877 6.9358 26.2985 6.4603 C 25.941 7.6475 25.3512 8.5939 24.3943 9.16 Z" fill="#000000"/>
	</g>
</svg>