<?xml version="1.0" standalone="no"?>
<!-- Generator: Adobe Fireworks 10, Export SVG Extension by Aaron Beall (http://fireworks.abeall.com) . Version: 0.6.1  -->
<!DOCTYPE svg PUBLIC "-//W3C//DTD SVG 1.1//EN" "http://www.w3.org/Graphics/SVG/1.1/DTD/svg11.dtd">
<svg id="Untitled-page%201" viewBox="0 0 281 119" style="background-color:#ffffff00" version="1.1"
	xmlns="http://www.w3.org/2000/svg" xmlns:xlink="http://www.w3.org/1999/xlink" xml:space="preserve"
	x="0px" y="0px" width="281px" height="119px"
>
	<g id="Calque%201">
		<path id="Ellipse" d="M 280.5 82 C 280.5 61.5652 263.9348 45 243.5 45 C 223.0652 45 206.5 61.5652 206.5 82 C 206.5 102.4348 223.0652 119 243.5 119 C 263.9348 119 280.5 102.4348 280.5 82 Z" fill="#ffffff"/>
		<g>
			<g>
				<path d="M 241.5967 73.1495 C 244.0248 71.9405 246.9412 72.9282 249.4385 74.031 C 252.059 75.1881 255.7501 78.17 253.0653 81.5725 C 251.8138 83.1585 249.119 84.2498 246.6938 85.0984 C 245.8245 85.4026 244.6154 86.0225 243.7532 85.6861 C 243.0266 85.4026 242.5947 84.0831 242.8711 83.2375 C 243.2446 82.0942 245.4119 81.6697 246.5959 81.1808 C 248.1212 80.5508 249.353 80.0432 250.2227 79.026 C 249.8459 78.3904 249.1157 78.108 248.4583 77.7528 C 248.4583 78.3405 248.4583 78.9281 248.4583 79.5157 C 247.042 80.8723 243.2617 80.7674 242.283 82.6499 C 241.4691 84.215 242.3671 86.269 243.8513 86.5676 C 245.8064 86.9609 246.7323 85.4909 248.4583 85.3923 C 248.4583 87.9061 248.4583 90.4199 248.4583 92.9338 C 247.0532 92.9338 245.6483 92.9338 244.2434 92.9338 C 244.2434 92.4114 244.2434 91.889 244.2434 91.3667 C 243.7131 91.0803 242.7502 91.2262 242.283 90.877 C 241.2377 91.6608 240.533 92.785 239.6362 93.7173 C 242.4429 94.2801 248.929 92.4974 249.8306 94.8926 C 251.3066 98.8139 244.5942 97.8309 241.4988 97.8309 C 238.2295 97.8309 232.2952 98.9326 233.0688 95.1865 C 233.2751 94.188 235.6133 91.9438 236.3036 91.1708 C 237.4095 89.9326 238.6138 88.7572 239.7344 87.3511 C 239.7344 83.7599 239.7344 80.1687 239.7344 76.5775 C 237.5613 74.4383 234.8569 71.3214 235.1273 66.2936 C 235.2485 64.0417 236.3801 59.4052 238.068 59.0459 C 239.3149 58.7805 240.5232 59.7056 240.5186 60.8088 C 240.5151 61.6322 239.8115 62.4067 239.4402 63.3553 C 238.0498 66.9087 239.0562 71.3232 241.5967 73.1495 Z" fill="#0581b5"/>
				<path d="M 243.2632 64.9224 C 248.3124 63.9102 249.2517 71.585 244.4395 71.9742 C 240.0945 72.3256 238.9648 65.7842 243.2632 64.9224 Z" fill="#0581b5"/>
			</g>
			<path d="M 248.2622 98.5165 C 248.7927 98.8224 248.5563 99.6545 248.5563 100.1815 C 248.5563 101.7357 249.0708 104.6584 248.5563 105.9601 C 247.9493 107.4958 245.1628 107.2464 244.6355 105.7642 C 243.9768 103.9131 244.759 100.5537 244.3413 98.6144 C 245.6331 98.5666 247.1272 98.7209 248.2622 98.5165 Z" fill="#0581b5"/>
		</g>
	</g>
</svg>