<?xml version="1.0" standalone="no"?>
<!-- Generator: Adobe Fireworks 10, Export SVG Extension by Aaron Beall (http://fireworks.abeall.com) . Version: 0.6.1  -->
<!DOCTYPE svg PUBLIC "-//W3C//DTD SVG 1.1//EN" "http://www.w3.org/Graphics/SVG/1.1/DTD/svg11.dtd">
<svg id="Untitled-page%201" viewBox="0 0 32 32" style="background-color:#ffffff00" version="1.1"
	xmlns="http://www.w3.org/2000/svg" xmlns:xlink="http://www.w3.org/1999/xlink" xml:space="preserve"
	x="0px" y="0px" width="32px" height="32px"
>
	<g id="Calque%201">
		<path d="M 10.2834 13.3908 C 11.4597 17.0874 13.5914 19.6636 17.0519 21.1616 C 17.5311 21.3691 18.1925 21.7161 18.556 21.7131 C 19.0592 21.7091 19.9064 20.4384 20.4613 20.1589 C 21.6666 19.5521 23.0814 20.062 24.372 20.4097 C 26.1382 20.8855 27.7859 21.5709 27.9819 23.518 C 28.1363 25.0514 27.276 25.7279 26.4778 26.5261 C 26.0143 26.9895 25.6234 27.5145 25.1742 27.7292 C 24.0667 28.2589 21.9435 27.8932 20.5114 27.629 C 13.404 26.3179 8.418 21.9965 5.8212 16.1482 C 5.0687 14.4536 4.3851 12.3984 4.1165 10.0317 C 3.9918 8.933 3.8972 7.6758 4.2167 6.9235 C 4.4302 6.4208 4.9736 5.9661 5.42 5.5197 C 6.135 4.8047 6.6638 4.1337 7.8267 4.0156 C 9.2454 3.8716 10.489 4.7402 11.0354 5.8204 C 11.3066 6.3564 11.4371 7.0452 11.6371 7.7758 C 11.9572 8.9451 12.4138 10.2474 11.8878 11.4355 C 11.4863 12.3425 10.6608 12.6372 10.2834 13.3908 Z" fill="#000000"/>
	</g>
</svg>