<?xml version="1.0" standalone="no"?>
<!-- Generator: Adobe Fireworks 10, Export SVG Extension by Aaron Beall (http://fireworks.abeall.com) . Version: 0.6.1  -->
<!DOCTYPE svg PUBLIC "-//W3C//DTD SVG 1.1//EN" "http://www.w3.org/Graphics/SVG/1.1/DTD/svg11.dtd">
<svg id="Untitled-page%201" viewBox="0 0 54 54" style="background-color:#ffffff00" version="1.1"
	xmlns="http://www.w3.org/2000/svg" xmlns:xlink="http://www.w3.org/1999/xlink" xml:space="preserve"
	x="0px" y="0px" width="54px" height="54px"
>
	<g id="Calque%201">
		<path id="Ellipse" d="M 0 27.041 C 0 12.1064 12.0488 0 26.9125 0 C 41.776 0 53.825 12.1064 53.825 27.041 C 53.825 41.9755 41.776 54.0819 26.9125 54.0819 C 12.0488 54.0819 0 41.9755 0 27.041 Z" fill="#ffffff"/>
		<g>
			<path d="M 25.7223 13.0554 C 29.0365 12.6217 30.326 14.8214 31.8888 16.591 C 34.3259 19.3504 36.3427 21.4481 38.8889 24.2697 C 39.4576 24.9001 39.9934 25.4958 39.9999 26.0928 C 40.0098 26.9887 39.2931 27.6278 38.5 27.6396 C 37.3135 27.6572 36.1991 25.837 35.3333 24.8774 C 33.4821 22.8259 31.5297 20.8053 29.6666 18.6902 C 28.7483 17.6477 27.6539 15.7887 26.1667 16.0386 C 24.9891 16.2364 23.8333 17.9907 23.1111 18.8007 C 20.8467 21.3409 18.5798 23.8834 16.2778 26.4795 C 15.7769 27.0446 15.2087 27.6248 14.5557 27.6396 C 13.7371 27.6581 13.0143 27.0306 13.0001 26.148 C 12.9822 25.0287 14.954 23.4015 15.5557 22.7229 C 17.3208 20.7324 19.3219 18.4642 21.1667 16.4252 C 22.4396 15.0184 23.4459 13.3534 25.7223 13.0554 Z" fill="#0581b5"/>
			<path d="M 31.2777 38.9644 C 31.2777 37.423 31.2777 35.7387 31.2777 33.9925 C 31.2777 33.5135 31.347 32.6844 31.1667 32.4457 C 30.8638 32.0452 29.7914 32.2247 29.1666 32.2247 C 28.3574 32.2247 27.6436 32.1832 27.0555 32.28 C 26.5013 32.9888 26.7223 34.3394 26.7223 35.4841 C 26.7223 36.6779 26.7223 37.9093 26.7223 38.9644 C 25.3591 38.9644 24.2477 38.9644 22.9446 38.9644 C 21.1538 38.9644 19.1213 39.2623 18.4446 38.1357 C 18.1154 37.5878 18.0878 36.6882 17.9446 35.8156 C 17.7031 34.345 17.4355 32.5789 17.1669 31.0646 C 17.0023 30.1376 16.6115 29.1281 16.8335 28.192 C 17.0658 27.2122 18.1068 26.293 18.8889 25.3746 C 20.4791 23.5077 21.8108 21.9572 23.3889 20.1265 C 24.0497 19.36 25.1783 17.7848 26.0555 17.6406 C 26.1993 17.6169 26.8146 17.6245 27.0555 17.6959 C 27.8574 17.9335 28.8588 19.4388 29.4445 20.1265 C 31.0026 21.9561 32.3844 23.5601 33.8889 25.3194 C 34.5593 26.1035 35.7728 27.1926 35.9999 28.0263 C 36.2113 28.8019 35.9238 29.8242 35.7777 30.678 C 35.464 32.5121 35.2526 33.9491 34.9443 35.8156 C 34.8184 36.5786 34.7101 37.7053 34.3888 38.1909 C 33.8177 39.0544 32.5216 39.0229 31.2777 38.9644 ZM 20.7778 32.3904 C 20.5786 33.0649 20.7776 35.2969 20.9445 35.4841 C 21.2108 35.7826 23.7987 35.985 24.3334 35.5393 C 24.6942 35.2384 24.6112 34.6025 24.6112 33.7162 C 24.6112 33.3396 24.8302 32.4538 24.3889 32.059 C 24.2065 31.8959 21.9269 31.7272 21.2778 31.9485 C 21.0403 32.0295 20.8409 32.1769 20.7778 32.3904 Z" fill="#0581b5"/>
		</g>
	</g>
</svg>