<?xml version="1.0" encoding="utf-8"?>
<!-- Generator: Adobe Illustrator 15.0.0, SVG Export Plug-In . SVG Version: 6.00 Build 0)  -->
<!DOCTYPE svg PUBLIC "-//W3C//DTD SVG 1.1//EN" "http://www.w3.org/Graphics/SVG/1.1/DTD/svg11.dtd">
<svg version="1.1" id="Untitled-page_x25_201" xmlns="http://www.w3.org/2000/svg" xmlns:xlink="http://www.w3.org/1999/xlink"
	 x="0px" y="0px" width="96px" height="85px" viewBox="0 0 96 85" enable-background="new 0 0 96 85" xml:space="preserve">
<path fill="none" d="z"/>
<path fill="#E9E9E9" stroke="#CCCCCC" d="M1,42.5C1,65.42,19.608,84,42.562,84c20.258,0,37.132-14.471,40.817-33.627L95,45.215
	l-11.012-6.108C82.259,17.774,64.371,1,42.562,1C19.608,1,1,19.58,1,42.5z"/>
<path fill="none" d="z"/>
<path fill-rule="evenodd" clip-rule="evenodd" d="M60.698,58.308c-0.627-5.673-4.983-7.616-9.45-9.449
	c-2.201,1.645-5.133,3.169-8.993,2.848c-2.752-0.229-4.812-1.722-6.49-2.961c-4.753,1.585-8.982,3.693-10.018,8.993
	c-5.254-5.188-6.864-16.014-3.644-23.68c3.049-7.26,10.332-13.471,19.695-14.117c3.819-0.263,7.769,0.476,10.703,1.708
	c5.452,2.29,10.159,7.054,12.408,12.409C68.331,42.205,66.213,53.492,60.698,58.308z M34.513,40.206
	c0.424,3.979,3.367,7.459,6.717,8.425c5.674,1.637,10.734-2.995,11.271-8.539c0.627-6.481-3.722-12.302-10.246-11.384
	C37.387,29.392,33.878,34.241,34.513,40.206z"/>
</svg>
