<?xml version="1.0" standalone="no"?>
<!-- Generator: Adobe Fireworks 10, Export SVG Extension by Aaron Beall (http://fireworks.abeall.com) . Version: 0.6.1  -->
<!DOCTYPE svg PUBLIC "-//W3C//DTD SVG 1.1//EN" "http://www.w3.org/Graphics/SVG/1.1/DTD/svg11.dtd">
<svg id="Untitled-page%201" viewBox="0 0 48 48" style="background-color:#ffffff00" version="1.1"
	xmlns="http://www.w3.org/2000/svg" xmlns:xlink="http://www.w3.org/1999/xlink" xml:space="preserve"
	x="0px" y="0px" width="48px" height="48px"
>
	<g id="Calque%201">
		<g>
			<path d="M 30.0562 8.1287 C 29.5268 8.9442 28.4295 9.2096 27.6684 9.8009 C 26.8505 9.8009 26.0326 9.8009 25.2147 9.8009 C 26.8016 11.1948 28.233 13.1182 28.0664 15.7819 C 27.9582 17.5184 27.185 18.8942 26.2092 19.8979 C 25.1874 20.9486 22.8386 21.8554 23.3576 23.821 C 23.5794 24.6606 24.4449 25.1431 25.0821 25.6213 C 27.0383 27.0909 29.3776 28.5696 29.5255 31.7311 C 29.6147 33.6295 28.8432 35.273 27.9337 36.3616 C 26.261 38.3642 23.0094 39.7524 19.5107 39.9631 C 15.9123 40.1797 12.1936 39.4607 10.2913 37.3263 C 9.4587 36.3921 8.8535 35.0846 9.0311 33.4032 C 9.2748 31.0951 11.093 29.4046 12.9443 28.5155 C 14.9843 27.5359 17.3955 27.1974 20.3066 27.0362 C 19.9605 26.3071 19.1023 25.2793 19.179 24.014 C 19.2118 23.4724 19.4037 23.1068 19.577 22.5991 C 14.3816 23.2072 10.8076 19.945 11.1535 15.5247 C 11.5013 11.0795 15.8509 8.3575 20.5719 8.0644 C 23.511 7.8819 26.9094 8.1472 30.0562 8.1287 ZM 17.587 20.4767 C 19.2964 21.8747 22.5451 21.747 23.7556 19.5763 C 25.2545 16.8877 23.232 12.6198 22.2301 11.4087 C 21.447 10.4625 20.1988 9.5388 18.4494 9.7366 C 13.2692 10.3222 14.7032 18.1181 17.587 20.4767 ZM 16.5923 28.837 C 14.3125 29.5883 11.6444 31.9846 13.276 35.0754 C 15.3866 39.074 24.3372 39.2814 26.2092 35.5255 C 26.6109 34.72 26.7796 33.195 26.2092 32.0526 C 25.6413 30.9147 24.8947 30.4605 24.2198 29.9304 C 23.5388 29.3957 22.7391 28.501 21.7658 28.2582 C 21.4511 28.1802 20.9848 28.2541 20.8372 28.2582 C 19.0978 28.3084 17.7449 28.4571 16.5923 28.837 Z" fill="#0581b5"/>
			<path d="M 36.6888 18.8046 C 36.8401 20.0515 36.7137 21.5673 36.7551 22.9206 C 38.1488 22.9624 39.7166 22.8358 41 22.9849 C 41 23.6706 41 24.3568 41 25.0425 C 39.5852 25.0425 38.1699 25.0425 36.7551 25.0425 C 36.7137 26.4172 36.8401 27.9548 36.6888 29.2229 C 35.9812 29.2229 35.274 29.2229 34.5663 29.2229 C 34.5663 27.8298 34.5663 26.4361 34.5663 25.0425 C 33.1515 25.0425 31.7367 25.0425 30.3215 25.0425 C 30.2124 24.499 30.2124 23.5284 30.3215 22.9849 C 31.6053 22.8358 33.1726 22.9624 34.5663 22.9206 C 34.5663 21.5484 34.5663 20.1765 34.5663 18.8046 C 35.274 18.8046 35.9812 18.8046 36.6888 18.8046 Z" fill="#0581b5"/>
		</g>
	</g>
</svg>