<?xml version="1.0" standalone="no"?>
<!-- Generator: Adobe Fireworks 10, Export SVG Extension by Aaron Beall (http://fireworks.abeall.com) . Version: 0.6.1  -->
<!DOCTYPE svg PUBLIC "-//W3C//DTD SVG 1.1//EN" "http://www.w3.org/Graphics/SVG/1.1/DTD/svg11.dtd">
<svg id="Untitled-page%201" viewBox="0 0 54 54" style="background-color:#ffffff00" version="1.1"
	xmlns="http://www.w3.org/2000/svg" xmlns:xlink="http://www.w3.org/1999/xlink" xml:space="preserve"
	x="0px" y="0px" width="54px" height="54px"
>
	<g id="Calque%201">
		<path id="Ellipse" d="M 0 27.041 C 0 12.1064 12.0488 0 26.9125 0 C 41.776 0 53.825 12.1064 53.825 27.041 C 53.825 41.9755 41.776 54.0819 26.9125 54.0819 C 12.0488 54.0819 0 41.9755 0 27.041 Z" fill="#0581b5"/>
		<g>
			<path d="M 35.4766 10.0342 C 32.1456 10.3865 29.5673 14.0034 30.9063 17.8138 C 31.4866 19.4654 32.6781 21.3104 33.5781 23.1443 C 34.5552 25.135 35.3927 27.0948 36.3203 28.4747 C 37.0587 26.9669 37.9728 25.0782 38.9219 23.1443 C 39.828 21.2978 41.011 19.4723 41.5939 17.8138 C 43.1227 13.463 39.6376 9.5942 35.4766 10.0342 ZM 35.6173 19.1825 C 33.8538 18.9093 32.2588 16.5737 33.1563 14.4282 C 33.4293 13.7753 34.3906 12.6977 35.6173 12.4833 C 37.5001 12.1543 39.2834 13.3102 39.5547 15.1487 C 39.9407 17.7634 37.8591 19.5298 35.6173 19.1825 Z" fill="#ffffff"/>
			<path d="M 39.2736 27.6103 C 38.6471 28.2892 38.3899 29.3463 37.8672 30.1315 C 38.5391 31.5562 39.2736 32.9167 39.9063 34.3815 C 38.1328 35.1578 36.5859 36.1661 34.7734 36.9026 C 34.5558 35.5691 34.2833 34.1167 34 32.6526 C 33.7216 31.2141 33.1611 29.6993 33.1563 28.4747 C 33.1545 28.0448 33.2943 28.0114 33.3672 27.6824 C 33.0392 27.0099 32.7108 26.3378 32.3828 25.6654 C 32.1295 25.4343 31.933 26.2566 31.6797 26.0255 C 29.3876 24.6042 27.2922 22.981 25.0001 21.5596 C 22.7218 23.0193 20.5282 24.5657 18.3203 26.0977 C 16.6855 24.699 15.326 23.0182 13.75 21.5596 C 11.4453 26.0657 9.3048 30.7397 7 35.2458 C 7 35.3178 7 35.3899 7 35.4619 C 10.0858 36.9105 12.9454 38.5914 16.0703 40 C 19.0858 38.5033 21.9766 36.8787 25.0703 35.4619 C 28.0858 36.9586 30.9767 38.5833 34.0704 40 C 37.0546 38.4954 39.9766 36.9266 43 35.4619 C 43 35.3899 43 35.3178 43 35.2458 C 41.7188 32.7407 40.4767 30.1955 39.2736 27.6103 ZM 15.2266 36.9026 C 13.4142 36.1661 11.8671 35.1578 10.0938 34.3815 C 11.4453 31.396 12.9609 28.5789 14.3125 25.5933 C 15.2677 26.3918 16.1346 27.2802 16.9141 28.2586 C 16.3027 31.0898 15.7404 33.9713 15.2266 36.9026 ZM 23.875 33.3729 C 21.7736 34.3894 19.7109 35.4459 17.6875 36.5424 C 18.0723 33.9592 18.7518 31.0539 19.2344 28.3306 C 20.7673 27.3318 22.4124 26.064 23.875 25.2332 C 23.875 27.9465 23.875 30.6597 23.875 33.3729 ZM 26.125 33.3729 C 26.125 30.6837 26.125 27.9945 26.125 25.3053 C 26.3676 25.2565 26.8427 25.602 27.25 25.8815 C 28.3304 26.6227 29.6205 27.5978 30.7656 28.3306 C 31.3026 31.0459 31.7871 33.8152 32.3828 36.4704 C 30.3827 35.6381 28.2423 34.3253 26.125 33.3729 Z" fill="#ffffff"/>
		</g>
	</g>
</svg>