<?xml version="1.0" standalone="no"?>
<!-- Generator: Adobe Fireworks 10, Export SVG Extension by Aaron Beall (http://fireworks.abeall.com) . Version: 0.6.1  -->
<!DOCTYPE svg PUBLIC "-//W3C//DTD SVG 1.1//EN" "http://www.w3.org/Graphics/SVG/1.1/DTD/svg11.dtd">
<svg id="Untitled-page%201" viewBox="0 0 25 24" style="background-color:#ffffff00" version="1.1"
	xmlns="http://www.w3.org/2000/svg" xmlns:xlink="http://www.w3.org/1999/xlink" xml:space="preserve"
	x="0px" y="0px" width="25px" height="24px"
>
	<g id="Calque%201">
		<g>
			<path d="M 11.4238 0 C 12.1399 0 12.8558 0 13.5719 0 C 18.8367 0.6421 22.3042 3.3871 24.0681 7.4071 C 25.0178 9.5713 25.293 12.5037 24.6541 14.955 C 23.5217 19.2985 20.1091 22.5956 15.5247 23.6747 C 12.9833 24.2728 9.9658 24.0236 7.7135 23.1122 C 3.5273 21.4182 0.6683 18.0885 0 13.0328 C 0 12.3452 0 11.6576 0 10.9701 C 0.9989 4.6156 4.8074 0.9597 11.4238 0 ZM 7.7623 3.5629 C 6.6382 4.1526 5.7716 4.9047 5.0284 5.7194 C 3.5303 7.3619 2.3112 9.5983 2.5874 12.8453 C 2.824 15.6257 4.1287 17.6742 5.9072 19.1742 C 7.6243 20.6222 10.1669 21.7555 13.3279 21.5182 C 16.2932 21.2955 18.3507 20.0377 19.9185 18.3302 C 21.4695 16.6412 22.6968 14.3163 22.4572 11.2045 C 22.2407 8.3927 20.7137 6.2175 19.1373 4.8756 C 17.4453 3.4351 14.8713 2.2441 11.668 2.4847 C 10.2422 2.5917 8.8075 3.0146 7.7623 3.5629 Z" fill="#00cc00"/>
			<path d="M 12.6931 13.2203 C 12.6676 15.1733 12.7271 17.3274 12.6931 19.3617 C 12.6903 19.5331 12.8469 19.9957 12.4979 20.0179 C 12.1469 19.9764 12.3037 19.5146 12.3026 19.3148 C 12.292 17.4218 12.3105 15.192 12.3026 13.2672 C 11.7535 13.0131 11.2123 12.7515 11.2285 11.9545 C 10.2148 11.0873 9.1941 10.3136 8.0553 9.3761 C 7.7473 9.1227 7.1538 8.7396 7.1277 8.3916 C 7.103 8.0623 7.5345 7.5117 7.9576 7.5009 C 8.3459 7.491 8.8062 7.9839 9.1293 8.251 C 10.1288 9.077 11.2887 10.0297 12.205 10.7826 C 12.533 10.78 12.8744 10.7648 13.0349 10.9232 C 13.8644 10.3302 14.8453 9.7097 15.8176 9.048 C 16.7883 8.3873 17.6599 7.649 18.5515 7.1727 C 18.9556 6.9569 19.489 7.3219 19.4791 7.7352 C 19.4684 8.1793 18.4685 8.7007 18.161 8.9073 C 16.6511 9.9222 15.2076 10.8719 13.7672 11.8607 C 13.796 12.6854 13.335 13.0397 12.6931 13.2203 Z" fill="#00cc00"/>
		</g>
	</g>
</svg>