<?xml version="1.0" standalone="no"?>
<!-- Generator: Adobe Fireworks 10, Export SVG Extension by Aaron Beall (http://fireworks.abeall.com) . Version: 0.6.1  -->
<!DOCTYPE svg PUBLIC "-//W3C//DTD SVG 1.1//EN" "http://www.w3.org/Graphics/SVG/1.1/DTD/svg11.dtd">
<svg id="Untitled-page%201" viewBox="0 0 227 91" style="background-color:#ffffff00" version="1.1"
	xmlns="http://www.w3.org/2000/svg" xmlns:xlink="http://www.w3.org/1999/xlink" xml:space="preserve"
	x="0px" y="0px" width="227px" height="91px"
>
	<defs>
		<filter id="filter1" x="-100%" y="-100%" width="300%" height="300%">
			<!-- Ombre portée -->
			<feOffset result="out" in="SourceGraphic" dx="1.4142" dy="1.4142"/>
			<feColorMatrix result="out" in="out" type="matrix" values="0 0 0 0 0  0 0 0 0 0  0 0 0 0 0  0 0 0 0.651 0"/>
			<feGaussianBlur result="out" in="out" stdDeviation="4"/>
			<feBlend in="SourceGraphic" in2="out" mode="normal" result="Ombre_portée1"/>
		</filter>
	</defs>
	<g id="Calque%201">
		<path d="M 60 66 L 90 90 L 226 90 " stroke="#ffffff" stroke-width="2" fill="none"/>
		<path id="Ellipse" d="M 0 37 C 0 16.5652 16.5652 0 37 0 C 57.4348 0 74 16.5652 74 37 C 74 57.4348 57.4348 74 37 74 C 16.5652 74 0 57.4348 0 37 Z" fill="#0581b5"/>
		<g filter="url(#filter1)">
			<path d="M 93.0801 82 L 94.9781 82 L 94.9781 74.9797 L 98.4363 74.9797 L 103.9745 82 L 106.4966 82 L 100.8284 74.7977 C 103.4545 74.1737 105.0925 72.0936 105.0925 69.2075 C 105.0925 65.7494 102.7004 63.4353 99.1643 63.4353 L 93.0801 63.4353 L 93.0801 82 L 93.0801 82 ZM 94.9781 73.1597 L 94.9781 65.2554 L 99.1643 65.2554 C 101.5564 65.2554 103.1165 66.8414 103.1165 69.2075 C 103.1165 71.5736 101.5304 73.1597 99.1643 73.1597 L 94.9781 73.1597 L 94.9781 73.1597 Z" fill="#ffffff"/>
			<path d="M 119.7665 76.3058 C 119.7665 73.0557 117.0884 70.3776 113.8383 70.3776 C 110.5881 70.3776 107.91 73.0557 107.91 76.3058 C 107.91 79.5039 110.5881 82.286 113.8383 82.286 C 116.1523 82.286 118.2064 80.96 119.1685 78.9839 L 117.0104 78.9839 C 116.2823 79.9199 115.1643 80.5699 113.8383 80.5699 C 111.8102 80.5699 110.1721 79.0099 109.8081 77.1118 L 119.7665 77.1118 L 119.7665 76.3058 L 119.7665 76.3058 ZM 113.8383 72.0936 C 115.8403 72.0936 117.4784 73.5497 117.8684 75.4478 L 109.8081 75.4478 C 110.1981 73.5497 111.8102 72.0936 113.8383 72.0936 L 113.8383 72.0936 Z" fill="#ffffff"/>
			<path d="M 130.3864 73.3677 C 130.2043 71.6256 128.6963 70.3776 126.4342 70.3776 C 123.8341 70.3776 122.4821 71.7816 122.4821 73.5237 C 122.4821 75.3438 123.7041 76.3318 126.4342 76.8778 C 128.5143 77.2938 129.2423 77.6578 129.2423 78.7499 C 129.2423 79.7899 128.1243 80.5439 126.4342 80.5439 C 124.9521 80.5439 123.7821 79.7119 123.6261 78.7499 L 122.04 78.7499 C 122.144 80.752 123.8601 82.182 126.4342 82.182 C 129.2943 82.182 130.8284 80.752 130.8284 78.7499 C 130.8284 76.8518 129.6583 75.8378 126.7202 75.2397 C 124.8481 74.8757 124.0941 74.3817 124.0941 73.5237 C 124.0941 72.6656 125.0562 72.0156 126.4342 72.0156 C 127.7863 72.0156 128.6443 72.5876 128.8003 73.3677 L 130.3864 73.3677 L 130.3864 73.3677 Z" fill="#ffffff"/>
			<path d="M 139.8123 72.1456 L 139.8123 70.5596 L 137.2382 70.5596 L 137.2382 66.0614 L 135.4961 66.0614 L 135.4961 70.5596 L 133.78 70.5596 L 133.78 72.1456 L 135.4961 72.1456 L 135.4961 82 L 137.2382 82 L 137.2382 72.1456 L 139.8123 72.1456 L 139.8123 72.1456 Z" fill="#ffffff"/>
			<path d="M 147.8383 82.286 C 149.5803 82.286 151.1144 81.454 152.1544 80.1799 L 152.1544 82.052 L 153.8965 82.052 L 153.8965 70.5596 L 152.1544 70.5596 L 152.1544 72.4316 C 151.1144 71.1836 149.5803 70.3776 147.8383 70.3776 C 144.5881 70.3776 141.91 73.0557 141.91 76.3058 C 141.91 79.5039 144.5881 82.286 147.8383 82.286 L 147.8383 82.286 ZM 147.7863 80.5699 C 145.4722 80.5699 143.7301 78.5679 143.7301 76.3058 C 143.7301 73.9917 145.4722 72.0936 147.7863 72.0936 C 150.0483 72.0936 152.0504 73.9917 152.0504 76.3058 C 152.0504 78.5679 150.0483 80.5699 147.7863 80.5699 L 147.7863 80.5699 Z" fill="#ffffff"/>
			<path d="M 167.7264 70.5596 L 165.9844 70.5596 L 165.9844 76.6438 C 165.9844 79.1659 164.5543 80.4659 162.2402 80.4659 C 160.3422 80.4659 159.3021 79.3479 159.3021 77.0858 L 159.3021 70.5596 L 157.5601 70.5596 L 157.5601 77.0858 C 157.5601 80.726 158.9641 82.182 162.2402 82.182 C 163.8003 82.182 165.0743 81.61 165.9844 80.6219 L 165.9844 82 L 167.7264 82 L 167.7264 70.5596 L 167.7264 70.5596 Z" fill="#ffffff"/>
			<path d="M 173.5621 70.5596 L 171.8201 70.5596 L 171.8201 82 L 173.5621 82 L 173.5621 75.6818 C 173.5621 73.3417 175.4082 72.0936 177.4363 72.0936 L 177.4363 70.3776 C 175.8502 70.3776 174.4982 71.0536 173.5621 72.1196 L 173.5621 70.5596 L 173.5621 70.5596 Z" fill="#ffffff"/>
			<path d="M 185.8383 82.286 C 187.5803 82.286 189.1144 81.454 190.1544 80.1799 L 190.1544 82.052 L 191.8965 82.052 L 191.8965 70.5596 L 190.1544 70.5596 L 190.1544 72.4316 C 189.1144 71.1836 187.5803 70.3776 185.8383 70.3776 C 182.5881 70.3776 179.91 73.0557 179.91 76.3058 C 179.91 79.5039 182.5881 82.286 185.8383 82.286 L 185.8383 82.286 ZM 185.7863 80.5699 C 183.4722 80.5699 181.7301 78.5679 181.7301 76.3058 C 181.7301 73.9917 183.4722 72.0936 185.7863 72.0936 C 188.0483 72.0936 190.0504 73.9917 190.0504 76.3058 C 190.0504 78.5679 188.0483 80.5699 185.7863 80.5699 L 185.7863 80.5699 Z" fill="#ffffff"/>
			<path d="M 195.8201 82 L 197.5621 82 L 197.5621 75.9158 C 197.5621 73.3417 198.9922 72.0416 201.3063 72.0936 C 203.2043 72.0936 204.2444 73.2117 204.2444 75.4738 L 204.2444 82 L 205.9865 82 L 205.9865 75.4738 C 205.9865 71.8336 204.5824 70.3776 201.3063 70.3776 C 199.7462 70.3776 198.4722 70.9496 197.5621 71.9376 L 197.5621 70.5596 L 195.8201 70.5596 L 195.8201 82 L 195.8201 82 Z" fill="#ffffff"/>
			<path d="M 214.8123 72.1456 L 214.8123 70.5596 L 212.2382 70.5596 L 212.2382 66.0614 L 210.4961 66.0614 L 210.4961 70.5596 L 208.78 70.5596 L 208.78 72.1456 L 210.4961 72.1456 L 210.4961 82 L 212.2382 82 L 212.2382 72.1456 L 214.8123 72.1456 L 214.8123 72.1456 Z" fill="#ffffff"/>
		</g>
		<g>
			<path d="M 25.835 15.4277 C 26.3845 15.4277 26.934 15.4277 27.4843 15.4277 C 31.3114 16.1741 33.4315 19.8428 33.1296 24.2761 C 32.9218 27.3135 31.3411 30.0012 29.1965 31.1306 C 28.8335 31.3215 28.4231 31.343 28.1815 31.6292 C 27.5115 32.4253 27.6225 34.3474 27.8015 35.7422 C 27.9889 37.2041 28.6012 38.3955 28.753 39.481 C 28.9514 40.9072 28.753 42.7034 28.753 44.4026 C 28.753 47.8267 28.753 50.6162 28.753 54.1865 C 28.753 56.5593 29.1948 59.1052 27.2935 59.4836 C 26.8713 59.4836 26.4482 59.4836 26.0249 59.4836 C 24.0983 59.1519 24.5664 56.4897 24.5664 54.0618 C 24.5664 50.5945 24.5664 47.8154 24.5664 44.3413 C 24.5664 42.6636 24.3909 40.8989 24.5664 39.481 C 24.6648 38.688 25.126 37.7771 25.3279 36.8008 C 25.6255 35.3589 26.0004 32.7961 25.1371 31.6917 C 24.7547 31.2017 23.832 30.9883 23.3614 30.6316 C 21.5322 29.2478 20.6995 27.3645 20.1898 24.6501 C 20.1898 23.9021 20.1898 23.1548 20.1898 22.4067 C 20.7232 18.7554 22.3014 16.1318 25.835 15.4277 ZM 21.712 24.2136 C 21.712 26.803 23.3995 28.8533 24.82 29.8218 C 23.5386 27.8726 22.6525 25.4949 22.7907 22.4067 C 22.8238 21.6543 22.7797 20.5498 22.7907 20.0391 C 22.2098 21.2568 21.712 22.6873 21.712 24.2136 Z" fill="#ffffff"/>
			<path d="M 52.6649 14.4548 C 52.6649 28.5593 52.6649 42.6621 52.6649 56.7664 C 52.3563 57.5825 51.6575 58.3508 50.3821 58.136 C 48.6318 57.843 48.9896 56.0115 48.9218 53.8989 C 48.8541 51.7446 48.8591 49.603 48.8591 47.4807 C 48.8591 46.3677 48.7081 45.1831 48.8591 44.1785 C 48.9303 43.7 49.1473 43.2786 49.239 42.8704 C 49.7834 40.4641 48.6963 38.8079 46.829 38.3218 C 46.9188 33.6714 47.0664 28.9817 47.7804 24.8611 C 48.4978 20.7322 49.4493 16.926 51.9034 14.4548 C 52.1578 14.4548 52.4105 14.4548 52.6649 14.4548 Z" fill="#ffffff"/>
			<path d="M 36.3638 15.2029 C 36.7021 15.2029 37.0404 15.2029 37.3788 15.2029 C 37.261 19.0337 37.1533 22.8752 36.9981 26.6689 C 37.2949 26.8132 37.8639 26.6899 38.2675 26.731 C 38.2675 22.8884 38.2675 19.0454 38.2675 15.2029 C 38.6474 15.2029 39.0274 15.2029 39.4089 15.2029 C 39.4089 19.0454 39.4089 22.8884 39.4089 26.731 C 39.7261 26.731 40.0433 26.731 40.3604 26.731 C 40.5079 23.0127 40.3807 19.0251 40.4232 15.2029 C 40.7827 15.2029 41.1423 15.2029 41.5018 15.2029 C 41.5018 19.0046 41.5018 22.8052 41.5018 26.6064 C 41.7987 26.7507 42.3685 26.6282 42.7704 26.6689 C 42.6534 22.8574 42.5212 19.0623 42.4533 15.2029 C 42.8332 15.2029 43.2147 15.2029 43.5946 15.2029 C 43.9238 17.75 44.2358 20.5908 44.5461 23.3042 C 44.7615 25.1763 44.9786 26.7107 44.1018 28.1018 C 43.5778 28.9353 42.7094 29.4932 42.1989 30.3455 C 41.6443 31.272 41.3339 32.3601 41.2474 33.4604 C 41.0965 35.3933 41.746 36.6011 41.8817 38.4468 C 42.1005 41.4026 41.8817 44.7163 41.8817 47.7922 C 41.8817 49.2451 41.8817 50.918 41.8817 52.4661 C 41.8817 54.8054 42.3566 57.7695 40.4232 58.136 C 39.1715 58.3743 38.4049 57.6895 38.1403 57.0146 C 37.7248 55.9583 38.0131 53.7788 38.0131 52.4041 C 38.0131 49.135 38.0131 46.2927 38.0131 42.9954 C 38.0131 41.4275 37.8487 39.7761 38.0131 38.3218 C 38.215 36.5322 38.9917 35.7056 38.8374 33.5854 C 38.7017 31.7112 37.8113 30.2554 36.7445 29.1609 C 35.9534 28.3501 35.0875 27.2715 35.0316 25.6716 C 34.9731 23.9858 35.4488 22.2397 35.6659 20.5 C 35.8779 18.8054 36.0237 17.0925 36.3002 15.3896 C 36.295 15.3018 36.29 15.2139 36.3638 15.2029 Z" fill="#ffffff"/>
		</g>
	</g>
</svg>