<?xml version="1.0" standalone="no"?>
<!-- Generator: Adobe Fireworks 10, Export SVG Extension by Aaron Beall (http://fireworks.abeall.com) . Version: 0.6.1  -->
<!DOCTYPE svg PUBLIC "-//W3C//DTD SVG 1.1//EN" "http://www.w3.org/Graphics/SVG/1.1/DTD/svg11.dtd">
<svg id="Untitled-page%201" viewBox="0 0 32 32" style="background-color:#ffffff00" version="1.1"
	xmlns="http://www.w3.org/2000/svg" xmlns:xlink="http://www.w3.org/1999/xlink" xml:space="preserve"
	x="0px" y="0px" width="32px" height="32px"
>
	<g id="Calque%201">
		<path d="M 6.7854 14.1958 C 5.6929 12.5688 5.8246 10.2339 6.662 8.7234 C 7.626 6.9836 9.9213 5.4802 12.6282 6.1721 C 12.9048 6.2427 13.1642 6.3579 13.41 6.4602 C 13.6584 6.5635 13.9292 6.7556 14.1506 6.7893 C 14.5632 6.8521 15.015 6.709 15.385 6.707 C 18.2322 6.6917 20.2577 7.8137 21.7214 9.2993 C 23.1714 10.7705 24.3086 12.8015 24.2725 15.636 C 24.2682 15.9766 24.1396 16.4375 24.1902 16.8291 C 24.2371 17.1895 24.6385 17.71 24.7664 18.1458 C 25.6084 21.0205 24.0361 23.3152 22.2563 24.3176 C 21.1174 24.9592 19.5116 25.2297 18.0183 24.7705 C 17.668 24.6626 17.2776 24.3047 16.825 24.2354 C 16.4369 24.1763 15.9695 24.3176 15.5908 24.3176 C 12.6804 24.3176 10.7522 23.2236 9.2542 21.7256 C 7.6508 20.1223 6.3102 17.783 6.7854 14.1958 ZM 12.1757 10.6572 C 11.2979 11.2842 10.5576 12.7153 11.2292 14.1135 C 11.8552 15.416 13.5708 15.8723 15.2617 16.2529 C 16.3511 16.4983 17.4836 16.7019 17.7302 17.5286 C 18.3826 19.7146 14.567 19.9414 13.5747 18.9275 C 12.986 18.3264 12.8918 16.9817 11.8876 16.9524 C 11.4253 16.9392 10.9631 17.1704 10.8179 17.6108 C 10.4406 18.7546 11.592 19.9531 12.3813 20.45 C 13.2943 21.0249 14.7924 21.2876 16.1255 21.1904 C 18.3525 21.0286 20.2878 19.8738 20.199 17.5286 C 20.1177 15.3733 18.1954 14.8105 16.29 14.3604 C 15.3015 14.1265 13.2832 13.9001 13.2455 12.7554 C 13.2043 11.5159 15.3799 11.1167 16.4958 11.6445 C 16.9197 11.8452 17.2002 12.2466 17.4421 12.6321 C 17.6464 12.9573 17.8799 13.5303 18.4709 13.5784 C 19.0278 13.624 19.5718 13.2373 19.6641 12.7554 C 19.7927 12.0852 19.301 11.3525 19.1292 11.1509 C 18.2679 10.1394 16.6061 9.7244 14.7678 9.8755 C 13.6633 9.9661 12.8949 10.1431 12.1757 10.6572 Z" fill="#0581b5"/>
	</g>
</svg>