<?xml version="1.0" encoding="utf-8"?>
<!-- Generator: Adobe Illustrator 16.0.0, SVG Export Plug-In . SVG Version: 6.00 Build 0)  -->
<!DOCTYPE svg PUBLIC "-//W3C//DTD SVG 1.1//EN" "http://www.w3.org/Graphics/SVG/1.1/DTD/svg11.dtd">
<svg version="1.1" id="Calque_1" xmlns="http://www.w3.org/2000/svg" xmlns:xlink="http://www.w3.org/1999/xlink" x="0px" y="0px"
	 width="32px" height="32px" viewBox="0 0 32 32" enable-background="new 0 0 32 32" xml:space="preserve">
<g>
	<path fill="#0E80B5" d="M23.426,29.465c-4.994,0-9.886,0-14.861,0c0-6.301,0-12.589,0-18.879c-0.045-0.017-0.09-0.034-0.135-0.052
		c-1.187,1.256-2.374,2.511-3.587,3.793c-1.478-1.541-2.81-2.932-4.075-4.251c2.351-2.44,4.806-4.99,7.262-7.54
		C8.076,2.611,8.124,2.685,8.172,2.76c0.167-0.055,0.331-0.152,0.499-0.156c0.662-0.016,1.324-0.009,1.987,0.007
		c0.063,0.001,0.132,0.106,0.187,0.173c1.381,1.703,3.261,2.279,5.346,2.231c1.948-0.043,3.69-0.657,4.954-2.264
		c0.043-0.054,0.1-0.139,0.148-0.139c0.693,0,1.389,0.011,2.083,0.032c0.035,0,0.065,0.116,0.114,0.202
		c0.117-0.082,0.23-0.16,0.447-0.31c2.438,2.538,4.885,5.083,7.295,7.591c-1.234,1.272-2.575,2.657-3.961,4.085
		c-1.258-1.235-2.496-2.455-3.847-3.78C23.426,16.859,23.426,23.137,23.426,29.465z"/>
</g>
</svg>
